M48
;Layer_Color=9474304
;FILE_FORMAT=2:5
INCH,LZ
;TYPE=PLATED
T1F00S00C0.01181
T2F00S00C0.03543
%
T01
X0088681Y-0146181
X00855Y-0143
X00905Y-00955
X01Y-00745
X01045Y-0078
X0119Y-00785
X0123624Y-0080129
X0114101Y-0063475
X0109099Y-0060221
X00955Y-00615
X01015Y-00495
X012287Y-0048606
X0126016Y-0053446
X01265Y-0044
X0076736Y-0099075
X0067165Y-0099957
X0062195Y-0103579
X00575Y-00985
X0052871Y-0094871
X00715Y-0108
X0076313Y-0115516
X0073071Y-0140531
X0066736Y-014074
X0069843Y-0147284
X0063397Y-0147186
X0076Y-0146
X0079232Y-0143232
X00825Y-0146
X0054Y-01605
X00475Y-0159
X00415Y-01585
X0003Y-01555
X-0005
X-0013Y-0156
X-0009Y-0133
X-0013692Y-0125214
Y-0118441
Y-0112
X-00175Y-0115
Y-01215
Y-0129
Y-01085
Y-01015
Y-00975
X-0013692Y-0105066
X-002351Y-0067532
X-0028516Y-0062743
X-0030516Y-0058254
X-0030366Y-0048634
X-002351Y-0043909
X-0037862Y-0072369
X-0037926Y-0077088
X-00745Y0082
X-0063Y00815
X-0048Y0082
X-0047292Y0074167
X-0047Y00505
X-00325Y006
X-00295Y00815
X0001Y0077
X0015Y0064
X0023543Y0051345
X0019381Y0046998
X00325Y006
X0050097Y0058774
X0050551Y0055
X0047383Y00514
X0057401Y0059691
X0064609Y0061217
X0062236Y0063965
X0083455Y0028829
X00825Y0001
X0079232Y-0001268
X0075959Y0000605
X0072526Y-0000487
X007303Y-0003957
X0063311Y-0001954
X0060483Y0001072
X0056998Y-000247
X0054Y-0004
X0044587Y-0003087
X0038287Y-0003213
X0035069Y-0003069
X0031988Y-0003012
X0028919Y-0003081
X00255Y-0003
X0013Y-0003021
X0005854Y-0018828
X0019399Y-0023866
X0030832Y-0019114
X00415Y-00165
X0051Y-0031
X00655
X0028948Y0024341
X0030514Y0028863
X-0011Y003
X-0033954Y0012746
X-0037474Y0008077
X-00395Y00175
X-0045Y00225
X-0062867Y0025133
X-0065475Y0043025
X-00535Y00035
X-0049Y-00015
X-00585Y-0006
X-002351Y-0010839
X-0015Y-00155
X-0016Y-00205
X-002351Y-0025012
X-0030255Y-0029884
X-0030516Y-00345
X-00295Y-0039
X0116624Y-0036154
X0122Y-00355
X01275Y00035
X0158734Y0007929
X0155781Y0012632
X0153057Y0017539
X0150554Y0022253
X0147546Y0026932
X0145051Y0031396
X0142Y00365
X00965Y00355
X0093Y00325
X00905Y00295
X00875Y0027266
X0084632Y0024764
X0085968Y0031594
X0088733Y0034323
X0090826Y0062984
X0085963
X0088681Y0001181
X0085532Y-0001469
T02
X01415Y-0149
Y-0119
X00835Y0086
X00535
M30
