G04*
G04 #@! TF.GenerationSoftware,Altium Limited,Altium Designer,22.1.2 (22)*
G04*
G04 Layer_Color=2752767*
%FSLAX25Y25*%
%MOIN*%
G70*
G04*
G04 #@! TF.SameCoordinates,691D6CEF-7681-4429-9CE0-D2776B591AA1*
G04*
G04*
G04 #@! TF.FilePolarity,Positive*
G04*
G01*
G75*
%ADD43C,0.00200*%
%ADD44C,0.00267*%
D43*
X82700Y85200D02*
Y86800D01*
X84300D01*
Y85200D01*
X82700D01*
X52700D02*
Y86800D01*
X54300D01*
Y85200D01*
X52700D01*
X140700Y-119800D02*
Y-118200D01*
X142300D01*
Y-119800D01*
X140700D01*
Y-149800D02*
Y-148200D01*
X142300D01*
Y-149800D01*
X140700D01*
D44*
X77113Y-115516D02*
G03*
X77113Y-115516I-800J0D01*
G01*
X-12200Y-156000D02*
G03*
X-12200Y-156000I-800J0D01*
G01*
X-4200Y-155500D02*
G03*
X-4200Y-155500I-800J0D01*
G01*
X3800D02*
G03*
X3800Y-155500I-800J0D01*
G01*
X53671Y-94871D02*
G03*
X53671Y-94871I-800J0D01*
G01*
X-28700Y81500D02*
G03*
X-28700Y81500I-800J0D01*
G01*
X-47200Y82000D02*
G03*
X-47200Y82000I-800J0D01*
G01*
X-62200Y81500D02*
G03*
X-62200Y81500I-800J0D01*
G01*
X-73700Y82000D02*
G03*
X-73700Y82000I-800J0D01*
G01*
X159534Y7929D02*
G03*
X159534Y7929I-800J0D01*
G01*
X156581Y12632D02*
G03*
X156581Y12632I-800J0D01*
G01*
X-8200Y-133000D02*
G03*
X-8200Y-133000I-800J0D01*
G01*
X1800Y77000D02*
G03*
X1800Y77000I-800J0D01*
G01*
X-31700Y60000D02*
G03*
X-31700Y60000I-800J0D01*
G01*
X-46200Y50500D02*
G03*
X-46200Y50500I-800J0D01*
G01*
X-46492Y74167D02*
G03*
X-46492Y74167I-800J0D01*
G01*
X-62067Y25133D02*
G03*
X-62067Y25133I-800J0D01*
G01*
X-64675Y43025D02*
G03*
X-64675Y43025I-800J0D01*
G01*
X-12892Y-118441D02*
G03*
X-12892Y-118441I-800J0D01*
G01*
Y-125214D02*
G03*
X-12892Y-125214I-800J0D01*
G01*
Y-112000D02*
G03*
X-12892Y-112000I-800J0D01*
G01*
Y-105066D02*
G03*
X-12892Y-105066I-800J0D01*
G01*
X-16700Y-129000D02*
G03*
X-16700Y-129000I-800J0D01*
G01*
Y-121500D02*
G03*
X-16700Y-121500I-800J0D01*
G01*
Y-97500D02*
G03*
X-16700Y-97500I-800J0D01*
G01*
Y-101500D02*
G03*
X-16700Y-101500I-800J0D01*
G01*
Y-115000D02*
G03*
X-16700Y-115000I-800J0D01*
G01*
Y-108500D02*
G03*
X-16700Y-108500I-800J0D01*
G01*
X-33154Y12746D02*
G03*
X-33154Y12746I-800J0D01*
G01*
X-36674Y8077D02*
G03*
X-36674Y8077I-800J0D01*
G01*
X-57700Y-6000D02*
G03*
X-57700Y-6000I-800J0D01*
G01*
X-52700Y3500D02*
G03*
X-52700Y3500I-800J0D01*
G01*
X-48200Y-1500D02*
G03*
X-48200Y-1500I-800J0D01*
G01*
X-38700Y17500D02*
G03*
X-38700Y17500I-800J0D01*
G01*
X-44200Y22500D02*
G03*
X-44200Y22500I-800J0D01*
G01*
X-37126Y-77088D02*
G03*
X-37126Y-77088I-800J0D01*
G01*
X-37062Y-72369D02*
G03*
X-37062Y-72369I-800J0D01*
G01*
X-27716Y-62743D02*
G03*
X-27716Y-62743I-800J0D01*
G01*
X-29716Y-34500D02*
G03*
X-29716Y-34500I-800J0D01*
G01*
Y-58254D02*
G03*
X-29716Y-58254I-800J0D01*
G01*
X-22710Y-67532D02*
G03*
X-22710Y-67532I-800J0D01*
G01*
X42300Y-158500D02*
G03*
X42300Y-158500I-800J0D01*
G01*
X48300Y-159000D02*
G03*
X48300Y-159000I-800J0D01*
G01*
X54800Y-160500D02*
G03*
X54800Y-160500I-800J0D01*
G01*
X-29566Y-48634D02*
G03*
X-29566Y-48634I-800J0D01*
G01*
X-28700Y-39000D02*
G03*
X-28700Y-39000I-800J0D01*
G01*
X-22710Y-43909D02*
G03*
X-22710Y-43909I-800J0D01*
G01*
X58300Y-98500D02*
G03*
X58300Y-98500I-800J0D01*
G01*
X62995Y-103579D02*
G03*
X62995Y-103579I-800J0D01*
G01*
X72300Y-108000D02*
G03*
X72300Y-108000I-800J0D01*
G01*
X-29455Y-29884D02*
G03*
X-29455Y-29884I-800J0D01*
G01*
X-22710Y-25012D02*
G03*
X-22710Y-25012I-800J0D01*
G01*
Y-10839D02*
G03*
X-22710Y-10839I-800J0D01*
G01*
X-15200Y-20500D02*
G03*
X-15200Y-20500I-800J0D01*
G01*
X-14200Y-15500D02*
G03*
X-14200Y-15500I-800J0D01*
G01*
X67536Y-140740D02*
G03*
X67536Y-140740I-800J0D01*
G01*
X73871Y-140531D02*
G03*
X73871Y-140531I-800J0D01*
G01*
X70643Y-147284D02*
G03*
X70643Y-147284I-800J0D01*
G01*
X64197Y-147186D02*
G03*
X64197Y-147186I-800J0D01*
G01*
X80032Y-143232D02*
G03*
X80032Y-143232I-800J0D01*
G01*
X83300Y-146000D02*
G03*
X83300Y-146000I-800J0D01*
G01*
X89481Y-146181D02*
G03*
X89481Y-146181I-800J0D01*
G01*
X76800Y-146000D02*
G03*
X76800Y-146000I-800J0D01*
G01*
X86300Y-143000D02*
G03*
X86300Y-143000I-800J0D01*
G01*
X67965Y-99957D02*
G03*
X67965Y-99957I-800J0D01*
G01*
X77536Y-99075D02*
G03*
X77536Y-99075I-800J0D01*
G01*
X91300Y-95500D02*
G03*
X91300Y-95500I-800J0D01*
G01*
X91626Y62984D02*
G03*
X91626Y62984I-800J0D01*
G01*
X86763D02*
G03*
X86763Y62984I-800J0D01*
G01*
X61283Y1072D02*
G03*
X61283Y1072I-800J0D01*
G01*
X73326Y-487D02*
G03*
X73326Y-487I-800J0D01*
G01*
X73830Y-3957D02*
G03*
X73830Y-3957I-800J0D01*
G01*
X64111Y-1954D02*
G03*
X64111Y-1954I-800J0D01*
G01*
X57798Y-2470D02*
G03*
X57798Y-2470I-800J0D01*
G01*
X84255Y28829D02*
G03*
X84255Y28829I-800J0D01*
G01*
X54800Y-4000D02*
G03*
X54800Y-4000I-800J0D01*
G01*
X76759Y605D02*
G03*
X76759Y605I-800J0D01*
G01*
X89533Y34323D02*
G03*
X89533Y34323I-800J0D01*
G01*
X86768Y31594D02*
G03*
X86768Y31594I-800J0D01*
G01*
X85432Y24764D02*
G03*
X85432Y24764I-800J0D01*
G01*
X88300Y27266D02*
G03*
X88300Y27266I-800J0D01*
G01*
X91300Y29500D02*
G03*
X91300Y29500I-800J0D01*
G01*
X93800Y32500D02*
G03*
X93800Y32500I-800J0D01*
G01*
X97300Y35500D02*
G03*
X97300Y35500I-800J0D01*
G01*
X128300Y3500D02*
G03*
X128300Y3500I-800J0D01*
G01*
X122800Y-35500D02*
G03*
X122800Y-35500I-800J0D01*
G01*
X117424Y-36154D02*
G03*
X117424Y-36154I-800J0D01*
G01*
X151354Y22253D02*
G03*
X151354Y22253I-800J0D01*
G01*
X148346Y26932D02*
G03*
X148346Y26932I-800J0D01*
G01*
X142800Y36500D02*
G03*
X142800Y36500I-800J0D01*
G01*
X145851Y31396D02*
G03*
X145851Y31396I-800J0D01*
G01*
X153857Y17539D02*
G03*
X153857Y17539I-800J0D01*
G01*
X65409Y61217D02*
G03*
X65409Y61217I-800J0D01*
G01*
X48183Y51400D02*
G03*
X48183Y51400I-800J0D01*
G01*
X58201Y59691D02*
G03*
X58201Y59691I-800J0D01*
G01*
X20181Y46998D02*
G03*
X20181Y46998I-800J0D01*
G01*
X24343Y51345D02*
G03*
X24343Y51345I-800J0D01*
G01*
X51351Y55000D02*
G03*
X51351Y55000I-800J0D01*
G01*
X50897Y58774D02*
G03*
X50897Y58774I-800J0D01*
G01*
X31314Y28863D02*
G03*
X31314Y28863I-800J0D01*
G01*
X63036Y63965D02*
G03*
X63036Y63965I-800J0D01*
G01*
X33300Y60000D02*
G03*
X33300Y60000I-800J0D01*
G01*
X13800Y-3021D02*
G03*
X13800Y-3021I-800J0D01*
G01*
X31632Y-19114D02*
G03*
X31632Y-19114I-800J0D01*
G01*
X6654Y-18828D02*
G03*
X6654Y-18828I-800J0D01*
G01*
X15800Y64000D02*
G03*
X15800Y64000I-800J0D01*
G01*
X42300Y-16500D02*
G03*
X42300Y-16500I-800J0D01*
G01*
X29748Y24341D02*
G03*
X29748Y24341I-800J0D01*
G01*
X-10200Y30000D02*
G03*
X-10200Y30000I-800J0D01*
G01*
X66300Y-31000D02*
G03*
X66300Y-31000I-800J0D01*
G01*
X51800D02*
G03*
X51800Y-31000I-800J0D01*
G01*
X123670Y-48606D02*
G03*
X123670Y-48606I-800J0D01*
G01*
X126816Y-53446D02*
G03*
X126816Y-53446I-800J0D01*
G01*
X127300Y-44000D02*
G03*
X127300Y-44000I-800J0D01*
G01*
X109899Y-60221D02*
G03*
X109899Y-60221I-800J0D01*
G01*
X114901Y-63475D02*
G03*
X114901Y-63475I-800J0D01*
G01*
X83300Y1000D02*
G03*
X83300Y1000I-800J0D01*
G01*
X86331Y-1469D02*
G03*
X86331Y-1469I-800J0D01*
G01*
X89481Y1181D02*
G03*
X89481Y1181I-800J0D01*
G01*
X80032Y-1268D02*
G03*
X80032Y-1268I-800J0D01*
G01*
X102300Y-49500D02*
G03*
X102300Y-49500I-800J0D01*
G01*
X96300Y-61500D02*
G03*
X96300Y-61500I-800J0D01*
G01*
X105300Y-78000D02*
G03*
X105300Y-78000I-800J0D01*
G01*
X124424Y-80129D02*
G03*
X124424Y-80129I-800J0D01*
G01*
X119800Y-78500D02*
G03*
X119800Y-78500I-800J0D01*
G01*
X100800Y-74500D02*
G03*
X100800Y-74500I-800J0D01*
G01*
X45387Y-3087D02*
G03*
X45387Y-3087I-800J0D01*
G01*
X39087Y-3213D02*
G03*
X39087Y-3213I-800J0D01*
G01*
X35869Y-3069D02*
G03*
X35869Y-3069I-800J0D01*
G01*
X32788Y-3012D02*
G03*
X32788Y-3012I-800J0D01*
G01*
X29719Y-3081D02*
G03*
X29719Y-3081I-800J0D01*
G01*
X26300Y-3000D02*
G03*
X26300Y-3000I-800J0D01*
G01*
X20199Y-23866D02*
G03*
X20199Y-23866I-800J0D01*
G01*
M02*
