G04*
G04 #@! TF.GenerationSoftware,Altium Limited,Altium Designer,22.1.2 (22)*
G04*
G04 Layer_Color=255*
%FSLAX25Y25*%
%MOIN*%
G70*
G04*
G04 #@! TF.SameCoordinates,691D6CEF-7681-4429-9CE0-D2776B591AA1*
G04*
G04*
G04 #@! TF.FilePolarity,Positive*
G04*
G01*
G75*
%ADD34C,0.06693*%
%ADD35R,0.06693X0.06693*%
%ADD36R,0.06693X0.06693*%
%ADD38R,0.01378X0.06693*%
D34*
X83500Y86000D02*
D03*
X141500Y-119000D02*
D03*
D35*
X53500Y86000D02*
D03*
D36*
X141500Y-149000D02*
D03*
D38*
X9941Y-134449D02*
D03*
X13091D02*
D03*
X16240Y-134449D02*
D03*
X19390D02*
D03*
X22539D02*
D03*
X25689Y-134449D02*
D03*
X28839D02*
D03*
X31988D02*
D03*
X35138D02*
D03*
X38287Y-134449D02*
D03*
X41437Y-134449D02*
D03*
X44587D02*
D03*
X47736D02*
D03*
X50886D02*
D03*
X54035D02*
D03*
X57185Y-134449D02*
D03*
X60335Y-134449D02*
D03*
X63484D02*
D03*
X66634D02*
D03*
X69784D02*
D03*
X72933D02*
D03*
X76083Y-134449D02*
D03*
X79232D02*
D03*
X82382Y-134449D02*
D03*
X85532D02*
D03*
X88681D02*
D03*
X91831Y-134449D02*
D03*
X94980D02*
D03*
X98130D02*
D03*
X101279Y-152953D02*
D03*
X98130D02*
D03*
X94980D02*
D03*
X91831D02*
D03*
X88681D02*
D03*
X85532D02*
D03*
X82382D02*
D03*
X79232D02*
D03*
X76083D02*
D03*
X72933D02*
D03*
X69784D02*
D03*
X66634D02*
D03*
X63484D02*
D03*
X60335D02*
D03*
X57185D02*
D03*
X54035D02*
D03*
X50886D02*
D03*
X47736D02*
D03*
X44587D02*
D03*
X41437D02*
D03*
X38287D02*
D03*
X35138D02*
D03*
X31988D02*
D03*
X28839D02*
D03*
X25689D02*
D03*
X22539D02*
D03*
X19390D02*
D03*
X16240D02*
D03*
X13091D02*
D03*
X9941D02*
D03*
X101279Y-134449D02*
D03*
X9941Y9252D02*
D03*
X13091D02*
D03*
X16240Y9252D02*
D03*
X19390D02*
D03*
X22539D02*
D03*
X25689Y9252D02*
D03*
X28839D02*
D03*
X31988D02*
D03*
X35138D02*
D03*
X38287Y9252D02*
D03*
X41437Y9252D02*
D03*
X44587D02*
D03*
X47736D02*
D03*
X50886D02*
D03*
X54035D02*
D03*
X57185Y9252D02*
D03*
X60335Y9252D02*
D03*
X63484D02*
D03*
X66634D02*
D03*
X69784D02*
D03*
X72933D02*
D03*
X76083Y9252D02*
D03*
X79232D02*
D03*
X82382Y9252D02*
D03*
X85532D02*
D03*
X88681D02*
D03*
X91831Y9252D02*
D03*
X94980D02*
D03*
X98130D02*
D03*
X101279Y-9252D02*
D03*
X98130D02*
D03*
X94980D02*
D03*
X91831D02*
D03*
X88681D02*
D03*
X85532D02*
D03*
X82382D02*
D03*
X79232D02*
D03*
X76083D02*
D03*
X72933D02*
D03*
X69784D02*
D03*
X66634D02*
D03*
X63484D02*
D03*
X60335D02*
D03*
X57185D02*
D03*
X54035D02*
D03*
X50886D02*
D03*
X47736D02*
D03*
X44587D02*
D03*
X41437D02*
D03*
X38287D02*
D03*
X35138D02*
D03*
X31988D02*
D03*
X28839D02*
D03*
X25689D02*
D03*
X22539D02*
D03*
X19390D02*
D03*
X16240D02*
D03*
X13091D02*
D03*
X9941D02*
D03*
X101279Y9252D02*
D03*
M02*
