G04*
G04 #@! TF.GenerationSoftware,Altium Limited,Altium Designer,22.1.2 (22)*
G04*
G04 Layer_Physical_Order=1*
G04 Layer_Color=255*
%FSLAX25Y25*%
%MOIN*%
G70*
G04*
G04 #@! TF.SameCoordinates,691D6CEF-7681-4429-9CE0-D2776B591AA1*
G04*
G04*
G04 #@! TF.FilePolarity,Positive*
G04*
G01*
G75*
%ADD11C,0.01000*%
%ADD17R,0.03858X0.03661*%
%ADD18R,0.03661X0.03858*%
%ADD19R,0.07874X0.02756*%
%ADD20R,0.02756X0.07874*%
%ADD21R,0.06693X0.02953*%
%ADD22R,0.06693X0.12205*%
%ADD32C,0.03000*%
%ADD33C,0.02000*%
%ADD34C,0.06693*%
%ADD35R,0.06693X0.06693*%
%ADD36R,0.06693X0.06693*%
%ADD37C,0.01968*%
G36*
X168971Y96367D02*
Y-182867D01*
X166867Y-184971D01*
X-93866D01*
X-95971Y-182867D01*
Y95867D01*
X-95367Y96471D01*
X59798D01*
X59949Y95971D01*
X59698Y95802D01*
X54242Y90346D01*
X49154D01*
Y81653D01*
X57846D01*
Y86742D01*
X62556Y91451D01*
X110925D01*
X111393Y91375D01*
Y85517D01*
X111675D01*
Y83429D01*
X111638D01*
Y77571D01*
X111675D01*
Y75187D01*
X107373D01*
Y79621D01*
X107179Y80596D01*
X106627Y81423D01*
X103748Y84302D01*
X102921Y84855D01*
X101945Y85049D01*
X88164D01*
X87844Y85418D01*
X87846Y85428D01*
Y86572D01*
X87550Y87678D01*
X86978Y88669D01*
X86169Y89478D01*
X85178Y90050D01*
X84072Y90346D01*
X82928D01*
X81822Y90050D01*
X80831Y89478D01*
X80022Y88669D01*
X79450Y87678D01*
X79154Y86572D01*
Y85428D01*
X79450Y84322D01*
X80022Y83331D01*
X80831Y82522D01*
X81822Y81950D01*
X82928Y81653D01*
X84072D01*
X84288Y81711D01*
X85301Y80698D01*
X86128Y80145D01*
X87104Y79951D01*
X100890D01*
X102275Y78565D01*
Y75187D01*
X11866D01*
Y82164D01*
X11749Y82749D01*
X11418Y83245D01*
X8081Y86581D01*
X7585Y86913D01*
X7000Y87029D01*
X-81500D01*
X-82085Y86913D01*
X-82581Y86581D01*
X-90581Y78581D01*
X-90913Y78085D01*
X-91029Y77500D01*
Y-123000D01*
X-90913Y-123585D01*
X-90581Y-124081D01*
X-81081Y-133581D01*
X-80585Y-133913D01*
X-80000Y-134029D01*
X-16000D01*
X-15415Y-133913D01*
X-14919Y-133581D01*
X-12610Y-131273D01*
X-12279Y-130777D01*
X-12162Y-130192D01*
Y-126491D01*
X-12009Y-126338D01*
X-11707Y-125609D01*
Y-124819D01*
X-12009Y-124090D01*
X-12568Y-123532D01*
X-13297Y-123230D01*
X-13526Y-122730D01*
X-13486Y-122529D01*
Y-120426D01*
X-13297D01*
X-12568Y-120124D01*
X-12009Y-119565D01*
X-11707Y-118836D01*
Y-118047D01*
X-12009Y-117317D01*
X-12568Y-116759D01*
X-13297Y-116457D01*
X-14086D01*
X-14816Y-116759D01*
X-15374Y-117317D01*
X-15557Y-117759D01*
X-16138Y-118015D01*
X-17128Y-117484D01*
X-17114Y-117174D01*
X-17047Y-116960D01*
X-16376Y-116682D01*
X-15818Y-116124D01*
X-15516Y-115395D01*
Y-114605D01*
X-15754Y-114029D01*
X-15511Y-113529D01*
X-14968D01*
X-14816Y-113682D01*
X-14086Y-113984D01*
X-13297D01*
X-12568Y-113682D01*
X-12009Y-113124D01*
X-11707Y-112395D01*
Y-111605D01*
X-12009Y-110876D01*
X-12568Y-110318D01*
X-13297Y-110016D01*
X-14086D01*
X-14816Y-110318D01*
X-14968Y-110471D01*
X-15957D01*
X-16164Y-109971D01*
X-15818Y-109624D01*
X-15516Y-108895D01*
Y-108105D01*
X-15818Y-107376D01*
X-16098Y-107096D01*
X-15891Y-106596D01*
X-14968D01*
X-14816Y-106749D01*
X-14086Y-107051D01*
X-13297D01*
X-12568Y-106749D01*
X-12009Y-106190D01*
X-11707Y-105461D01*
Y-104672D01*
X-12009Y-103942D01*
X-12568Y-103384D01*
X-13297Y-103082D01*
X-14086D01*
X-14816Y-103384D01*
X-14968Y-103537D01*
X-16026D01*
X-16231Y-103037D01*
X-15818Y-102624D01*
X-15516Y-101895D01*
Y-101105D01*
X-15818Y-100376D01*
X-16376Y-99818D01*
X-16490Y-99771D01*
Y-99229D01*
X-16376Y-99182D01*
X-15818Y-98624D01*
X-15516Y-97895D01*
Y-97105D01*
X-15818Y-96376D01*
X-16376Y-95818D01*
X-17105Y-95516D01*
X-17895D01*
X-18624Y-95818D01*
X-18777Y-95971D01*
X-52867D01*
X-60971Y-87866D01*
Y-6428D01*
X-60484Y-6395D01*
X-60182Y-7124D01*
X-59624Y-7682D01*
X-58895Y-7984D01*
X-58105D01*
X-57376Y-7682D01*
X-57280Y-7587D01*
X-28447D01*
Y-13216D01*
Y-17941D01*
Y-22665D01*
Y-28281D01*
X-29052D01*
X-29131Y-28202D01*
X-29860Y-27900D01*
X-30650D01*
X-31379Y-28202D01*
X-31937Y-28760D01*
X-32239Y-29490D01*
Y-30279D01*
X-31937Y-31008D01*
X-31379Y-31567D01*
X-30650Y-31869D01*
X-29860D01*
X-29131Y-31567D01*
X-28947Y-31382D01*
X-28447Y-31442D01*
Y-32951D01*
X-29259D01*
X-29392Y-32818D01*
X-30121Y-32516D01*
X-30910D01*
X-31640Y-32818D01*
X-32198Y-33376D01*
X-32500Y-34105D01*
Y-34895D01*
X-32198Y-35624D01*
X-31640Y-36182D01*
X-30910Y-36484D01*
X-30121D01*
X-29392Y-36182D01*
X-29219Y-36010D01*
X-28447D01*
Y-36747D01*
X-28709Y-37014D01*
X-28862Y-37116D01*
X-29105Y-37016D01*
X-29895D01*
X-30624Y-37318D01*
X-31182Y-37876D01*
X-31484Y-38605D01*
Y-39395D01*
X-31182Y-40124D01*
X-30624Y-40682D01*
X-29895Y-40984D01*
X-29105D01*
X-28862Y-40884D01*
X-28447Y-41161D01*
Y-47104D01*
X-29089D01*
X-29242Y-46952D01*
X-29972Y-46650D01*
X-30761D01*
X-31490Y-46952D01*
X-32048Y-47510D01*
X-32350Y-48239D01*
Y-49029D01*
X-32048Y-49758D01*
X-31490Y-50316D01*
X-30761Y-50618D01*
X-29972D01*
X-29242Y-50316D01*
X-29089Y-50163D01*
X-28447D01*
Y-56639D01*
X-29325D01*
X-29392Y-56572D01*
X-30121Y-56270D01*
X-30910D01*
X-31640Y-56572D01*
X-32198Y-57130D01*
X-32500Y-57859D01*
Y-58649D01*
X-32198Y-59378D01*
X-31640Y-59936D01*
X-30910Y-60238D01*
X-30121D01*
X-29392Y-59936D01*
X-29153Y-59698D01*
X-28447D01*
Y-60759D01*
X-28910D01*
X-29640Y-61061D01*
X-30198Y-61619D01*
X-30500Y-62348D01*
Y-63138D01*
X-30198Y-63867D01*
X-29640Y-64425D01*
X-28910Y-64727D01*
X-28447D01*
Y-70783D01*
X-36642D01*
X-36738Y-70687D01*
X-37467Y-70385D01*
X-38256D01*
X-38986Y-70687D01*
X-39544Y-71245D01*
X-39846Y-71975D01*
Y-72764D01*
X-39544Y-73493D01*
X-38986Y-74051D01*
X-38256Y-74354D01*
X-37467D01*
X-36738Y-74051D01*
X-36528Y-73842D01*
X-28447D01*
Y-75505D01*
X-36703D01*
X-36802Y-75406D01*
X-37531Y-75103D01*
X-38321D01*
X-39050Y-75406D01*
X-39608Y-75964D01*
X-39910Y-76693D01*
Y-77482D01*
X-39608Y-78212D01*
X-39050Y-78770D01*
X-38321Y-79072D01*
X-37531D01*
X-36802Y-78770D01*
X-36595Y-78563D01*
X-28447D01*
Y-79358D01*
X-18573D01*
Y-74634D01*
Y-69909D01*
Y-65185D01*
Y-60461D01*
Y-54958D01*
X28571D01*
X29156Y-54842D01*
X29652Y-54511D01*
X51179Y-32984D01*
X51395D01*
X52124Y-32682D01*
X52682Y-32124D01*
X52984Y-31395D01*
Y-30605D01*
X52682Y-29876D01*
X52124Y-29318D01*
X51395Y-29016D01*
X50605D01*
X49876Y-29318D01*
X49318Y-29876D01*
X49016Y-30605D01*
Y-30821D01*
X27937Y-51900D01*
X-18573D01*
Y-46287D01*
Y-41563D01*
Y-36839D01*
Y-32114D01*
Y-27390D01*
Y-21923D01*
X-17383D01*
X-17124Y-22182D01*
X-16395Y-22484D01*
X-15605D01*
X-14876Y-22182D01*
X-14318Y-21624D01*
X-14016Y-20895D01*
Y-20105D01*
X-14318Y-19376D01*
X-14876Y-18818D01*
X-15605Y-18516D01*
X-16395D01*
X-17124Y-18818D01*
X-17170Y-18864D01*
X-18573D01*
Y-17061D01*
X-16245D01*
X-16124Y-17182D01*
X-15395Y-17484D01*
X-14605D01*
X-13876Y-17182D01*
X-13318Y-16624D01*
X-13016Y-15895D01*
Y-15105D01*
X-13318Y-14376D01*
X-13876Y-13818D01*
X-14605Y-13516D01*
X-15395D01*
X-16124Y-13818D01*
X-16308Y-14002D01*
X-18573D01*
Y-8492D01*
Y-3768D01*
Y957D01*
Y5681D01*
Y10406D01*
Y15130D01*
Y19854D01*
Y24579D01*
Y30152D01*
X-13466D01*
X-12984Y29670D01*
Y29605D01*
X-12682Y28876D01*
X-12124Y28318D01*
X-11395Y28016D01*
X-10605D01*
X-9876Y28318D01*
X-9318Y28876D01*
X-9016Y29605D01*
Y30395D01*
X-9318Y31124D01*
X-9876Y31682D01*
X-10605Y31984D01*
X-10972D01*
X-11751Y32763D01*
X-12247Y33094D01*
X-12832Y33211D01*
X-18573D01*
Y38752D01*
Y43476D01*
Y48201D01*
Y52925D01*
Y57650D01*
Y62406D01*
X-28447D01*
Y61557D01*
X-31251D01*
X-31376Y61682D01*
X-32105Y61984D01*
X-32895D01*
X-33624Y61682D01*
X-34182Y61124D01*
X-34484Y60395D01*
Y59605D01*
X-34182Y58876D01*
X-33624Y58318D01*
X-32895Y58016D01*
X-32105D01*
X-31376Y58318D01*
X-31196Y58498D01*
X-28447D01*
Y56833D01*
X-74197D01*
X-74782Y56716D01*
X-75278Y56385D01*
X-78471Y53192D01*
X-78908Y53329D01*
X-78971Y53377D01*
Y64867D01*
X-75116Y68721D01*
X-15664D01*
Y65313D01*
X-6183D01*
Y75187D01*
X-7032D01*
Y76561D01*
X-7148Y77147D01*
X-7480Y77643D01*
X-8919Y79081D01*
X-9415Y79413D01*
X-10000Y79529D01*
X-82500D01*
X-83085Y79413D01*
X-83581Y79081D01*
X-87471Y75192D01*
X-87908Y75329D01*
X-87971Y75377D01*
Y76867D01*
X-80866Y83971D01*
X6367D01*
X8807Y81530D01*
Y75187D01*
X2529D01*
Y75723D01*
X2682Y75876D01*
X2984Y76605D01*
Y77395D01*
X2682Y78124D01*
X2124Y78682D01*
X1395Y78984D01*
X605D01*
X-124Y78682D01*
X-682Y78124D01*
X-984Y77395D01*
Y76605D01*
X-682Y75876D01*
X-529Y75723D01*
Y75187D01*
X-1491D01*
Y65313D01*
X12855D01*
X13189Y64813D01*
X13016Y64395D01*
Y63605D01*
X13318Y62876D01*
X13876Y62318D01*
X14605Y62016D01*
X15395D01*
X16124Y62318D01*
X16682Y62876D01*
X16984Y63605D01*
Y64395D01*
X16811Y64813D01*
X17145Y65313D01*
X18256D01*
Y61418D01*
X4773Y47936D01*
X4441Y47439D01*
X4325Y46854D01*
Y-17551D01*
X4172Y-17704D01*
X3870Y-18433D01*
Y-19223D01*
X4172Y-19952D01*
X4730Y-20510D01*
X5460Y-20812D01*
X6249D01*
X6978Y-20510D01*
X7536Y-19952D01*
X7838Y-19223D01*
Y-18433D01*
X7536Y-17704D01*
X7384Y-17551D01*
Y46221D01*
X20866Y59704D01*
X21198Y60200D01*
X21314Y60785D01*
Y65313D01*
X22975D01*
Y60108D01*
X18299Y55432D01*
X17968Y54936D01*
X17851Y54350D01*
Y48275D01*
X17698Y48122D01*
X17396Y47393D01*
Y46604D01*
X17698Y45874D01*
X18257Y45316D01*
X18986Y45014D01*
X19138D01*
X19345Y44514D01*
X11919Y37087D01*
X11587Y36591D01*
X11471Y36006D01*
Y-1744D01*
X11318Y-1897D01*
X11016Y-2626D01*
Y-3416D01*
X11318Y-4145D01*
X11876Y-4703D01*
X12605Y-5005D01*
X13395D01*
X14124Y-4703D01*
X14682Y-4145D01*
X14984Y-3416D01*
Y-2837D01*
X15477Y-2610D01*
X16471Y-3517D01*
Y-22466D01*
X16587Y-23052D01*
X16919Y-23548D01*
X17415Y-24044D01*
Y-24260D01*
X17717Y-24990D01*
X18275Y-25548D01*
X19004Y-25850D01*
X19794D01*
X20523Y-25548D01*
X21081Y-24990D01*
X21383Y-24260D01*
Y-23471D01*
X21081Y-22742D01*
X20523Y-22183D01*
X19794Y-21881D01*
X19578D01*
X19529Y-21833D01*
Y35976D01*
X44488Y60935D01*
X44820Y61431D01*
X44936Y62016D01*
Y65313D01*
X46602D01*
Y61989D01*
X21419Y36805D01*
X21087Y36309D01*
X20971Y35724D01*
Y-17303D01*
X21087Y-17888D01*
X21419Y-18384D01*
X23229Y-20195D01*
X23726Y-20527D01*
X24311Y-20643D01*
X29556D01*
X29708Y-20796D01*
X30438Y-21098D01*
X31227D01*
X31956Y-20796D01*
X32515Y-20238D01*
X32817Y-19508D01*
Y-18719D01*
X32515Y-17990D01*
X31956Y-17432D01*
X31227Y-17130D01*
X30438D01*
X29708Y-17432D01*
X29556Y-17584D01*
X24944D01*
X24029Y-16669D01*
Y-4989D01*
X24529Y-4746D01*
X25105Y-4984D01*
X25895D01*
X26624Y-4682D01*
X26843Y-4464D01*
X27237Y-4205D01*
X27496Y-4464D01*
X27795Y-4763D01*
X28525Y-5065D01*
X29314D01*
X30043Y-4763D01*
X30488Y-4318D01*
X30864Y-4694D01*
X31593Y-4996D01*
X32383D01*
X33112Y-4694D01*
X33500Y-4306D01*
X33945Y-4751D01*
X34674Y-5053D01*
X35464D01*
X36193Y-4751D01*
X36606Y-4338D01*
X37163Y-4895D01*
X37893Y-5197D01*
X38682D01*
X39411Y-4895D01*
X39970Y-4337D01*
X40272Y-3607D01*
X42095D01*
X42476Y-3607D01*
X42805Y-3971D01*
X42904Y-4211D01*
X43463Y-4769D01*
X44192Y-5071D01*
X44981D01*
X45471Y-4868D01*
X45971Y-5162D01*
Y-12867D01*
X43867Y-14971D01*
X42777D01*
X42624Y-14818D01*
X41895Y-14516D01*
X41105D01*
X40376Y-14818D01*
X39818Y-15376D01*
X39516Y-16105D01*
Y-16895D01*
X39818Y-17624D01*
X40376Y-18182D01*
X41105Y-18484D01*
X41895D01*
X42624Y-18182D01*
X42777Y-18029D01*
X44500D01*
X45085Y-17913D01*
X45581Y-17581D01*
X48581Y-14581D01*
X48913Y-14085D01*
X49029Y-13500D01*
Y-12346D01*
X49491Y-12154D01*
X51919Y-14581D01*
X52415Y-14913D01*
X53000Y-15029D01*
X63603D01*
X64188Y-14913D01*
X64684Y-14581D01*
X73324Y-5942D01*
X73425D01*
X74154Y-5640D01*
X74712Y-5081D01*
X75014Y-4352D01*
Y-3563D01*
X74712Y-2833D01*
X74154Y-2275D01*
X74138Y-2269D01*
X74041Y-1778D01*
X74209Y-1611D01*
X74341Y-1291D01*
X74835Y-1077D01*
X75564Y-1379D01*
X76354D01*
X76748Y-1216D01*
X77248Y-1550D01*
Y-1662D01*
X77550Y-2392D01*
X77703Y-2544D01*
Y-15732D01*
X77819Y-16318D01*
X78151Y-16814D01*
X107471Y-46134D01*
Y-52500D01*
X107587Y-53085D01*
X107919Y-53581D01*
X127673Y-73336D01*
X128169Y-73667D01*
X128754Y-73784D01*
X129049D01*
Y-74632D01*
X138923D01*
Y-69908D01*
Y-65184D01*
Y-60459D01*
Y-55735D01*
Y-51010D01*
Y-46286D01*
Y-41561D01*
Y-36837D01*
Y-32113D01*
Y-27388D01*
Y-22664D01*
Y-17939D01*
Y-13215D01*
Y-8491D01*
Y-3766D01*
Y958D01*
Y6466D01*
X157392D01*
X157610Y6247D01*
X158340Y5945D01*
X159129D01*
X159858Y6247D01*
X160417Y6805D01*
X160719Y7535D01*
Y8324D01*
X160417Y9053D01*
X159858Y9612D01*
X159129Y9914D01*
X158340D01*
X157610Y9612D01*
X157523Y9524D01*
X138923D01*
Y11179D01*
X154428D01*
X154657Y10950D01*
X155387Y10648D01*
X156176D01*
X156905Y10950D01*
X157464Y11508D01*
X157766Y12238D01*
Y13027D01*
X157464Y13756D01*
X156905Y14314D01*
X156176Y14616D01*
X155387D01*
X154657Y14314D01*
X154581Y14238D01*
X138923D01*
Y15995D01*
X151795D01*
X151933Y15857D01*
X152662Y15555D01*
X153451D01*
X154181Y15857D01*
X154739Y16415D01*
X155041Y17144D01*
Y17934D01*
X154739Y18663D01*
X154181Y19221D01*
X153451Y19523D01*
X152662D01*
X151933Y19221D01*
X151765Y19054D01*
X138923D01*
Y20714D01*
X149287D01*
X149430Y20571D01*
X150160Y20268D01*
X150949D01*
X151678Y20571D01*
X152236Y21129D01*
X152539Y21858D01*
Y22647D01*
X152236Y23377D01*
X151678Y23935D01*
X150949Y24237D01*
X150160D01*
X149430Y23935D01*
X149268Y23773D01*
X138923D01*
Y25416D01*
X146256D01*
X146422Y25250D01*
X147152Y24948D01*
X147941D01*
X148670Y25250D01*
X149228Y25808D01*
X149530Y26537D01*
Y27327D01*
X149228Y28056D01*
X148670Y28614D01*
X147941Y28916D01*
X147152D01*
X146422Y28614D01*
X146283Y28474D01*
X138923D01*
Y30010D01*
X143631D01*
X143927Y29714D01*
X144656Y29412D01*
X145446D01*
X146175Y29714D01*
X146733Y30272D01*
X147035Y31001D01*
Y31791D01*
X146733Y32520D01*
X146175Y33078D01*
X145446Y33380D01*
X144656D01*
X143927Y33078D01*
X143917Y33069D01*
X138923D01*
Y34924D01*
X140770D01*
X140876Y34818D01*
X141605Y34516D01*
X142395D01*
X143124Y34818D01*
X143682Y35376D01*
X143984Y36105D01*
Y36895D01*
X143682Y37624D01*
X143124Y38182D01*
X142395Y38484D01*
X141605D01*
X140876Y38182D01*
X140677Y37983D01*
X138923D01*
Y43478D01*
Y48202D01*
Y52927D01*
Y57651D01*
Y62407D01*
X129049D01*
Y56834D01*
X128305D01*
X127719Y56718D01*
X127223Y56386D01*
X125687Y54850D01*
X125226Y55097D01*
X125251Y55222D01*
Y65313D01*
X126100D01*
Y75187D01*
X116773D01*
Y77571D01*
X117299D01*
Y83429D01*
X116773D01*
Y85517D01*
X117055D01*
Y85897D01*
X149498D01*
X161434Y73961D01*
Y-146451D01*
X145846D01*
Y-144653D01*
X137153D01*
Y-153347D01*
X145846D01*
Y-151549D01*
X161434D01*
Y-162961D01*
X149461Y-174934D01*
X-44461D01*
X-47968Y-171427D01*
Y-160102D01*
X-45154D01*
Y-155549D01*
X-25500D01*
X-25135Y-155476D01*
X-21154D01*
Y-150524D01*
X-25135D01*
X-25500Y-150451D01*
X-45154D01*
Y-145898D01*
X-53847D01*
Y-160102D01*
X-53066D01*
Y-172483D01*
X-52872Y-173459D01*
X-52319Y-174285D01*
X-47319Y-179286D01*
X-46492Y-179838D01*
X-45517Y-180032D01*
X150517D01*
X151492Y-179838D01*
X152319Y-179286D01*
X165786Y-165819D01*
X166338Y-164992D01*
X166532Y-164017D01*
Y-150000D01*
Y75017D01*
X166338Y75992D01*
X165786Y76819D01*
X152357Y90248D01*
X151530Y90801D01*
X150554Y90995D01*
X117055D01*
Y91375D01*
X117049D01*
Y92243D01*
X116855Y93218D01*
X116302Y94045D01*
X114545Y95802D01*
X114293Y95971D01*
X114445Y96471D01*
X168867D01*
X168971Y96367D01*
D02*
G37*
%LPC*%
G36*
X0Y2929D02*
X-758Y2829D01*
X-1464Y2536D01*
X-2071Y2071D01*
X-2536Y1464D01*
X-2829Y758D01*
X-2929Y0D01*
X-2829Y-758D01*
X-2536Y-1464D01*
X-2071Y-2071D01*
X-1464Y-2536D01*
X-758Y-2829D01*
X0Y-2929D01*
X758Y-2829D01*
X1464Y-2536D01*
X2071Y-2071D01*
X2536Y-1464D01*
X2829Y-758D01*
X2929Y0D01*
X2829Y758D01*
X2536Y1464D01*
X2071Y2071D01*
X1464Y2536D01*
X758Y2829D01*
X0Y2929D01*
D02*
G37*
G36*
X65895Y-29016D02*
X65105D01*
X64376Y-29318D01*
X63818Y-29876D01*
X63516Y-30605D01*
Y-30821D01*
X37367Y-56971D01*
X-1000D01*
X-1585Y-57087D01*
X-2081Y-57419D01*
X-14352Y-69689D01*
X-14683Y-70185D01*
X-14800Y-70771D01*
Y-82270D01*
X-15649D01*
Y-92144D01*
X-10076D01*
Y-126454D01*
X-9959Y-127039D01*
X-9628Y-127535D01*
X27919Y-165081D01*
X28415Y-165413D01*
X29000Y-165529D01*
X50500D01*
X51085Y-165413D01*
X51581Y-165081D01*
X54179Y-162484D01*
X54395D01*
X55124Y-162182D01*
X55682Y-161624D01*
X55984Y-160895D01*
Y-156188D01*
X63002Y-149170D01*
X63792D01*
X64521Y-148868D01*
X65079Y-148310D01*
X65381Y-147580D01*
Y-147251D01*
X65881Y-147044D01*
X67202Y-148365D01*
X67699Y-148697D01*
X68284Y-148813D01*
X68567D01*
X68719Y-148966D01*
X69449Y-149268D01*
X70238D01*
X70967Y-148966D01*
X71526Y-148408D01*
X71828Y-147678D01*
Y-147515D01*
X72328Y-147247D01*
X72815Y-147344D01*
X74538D01*
X74876Y-147682D01*
X75605Y-147984D01*
X76395D01*
X77124Y-147682D01*
X77682Y-147124D01*
X77984Y-146395D01*
Y-145605D01*
X77870Y-145329D01*
X78266Y-144980D01*
X78838Y-145217D01*
X79627D01*
X80241Y-144962D01*
X80585Y-145217D01*
X80644Y-145295D01*
X80516Y-145605D01*
Y-146395D01*
X80818Y-147124D01*
X81376Y-147682D01*
X82105Y-147984D01*
X82895D01*
X83624Y-147682D01*
X84182Y-147124D01*
X84484Y-146395D01*
Y-145605D01*
X84316Y-145198D01*
X84698Y-144816D01*
X85105Y-144984D01*
X85895D01*
X86297Y-144818D01*
X86874Y-145085D01*
X86918Y-145252D01*
X86697Y-145786D01*
Y-146576D01*
X86999Y-147305D01*
X87557Y-147863D01*
X88286Y-148165D01*
X89076D01*
X89805Y-147863D01*
X90363Y-147305D01*
X90665Y-146576D01*
Y-145786D01*
X90363Y-145057D01*
X90210Y-144904D01*
Y-126181D01*
X90094Y-125596D01*
X89763Y-125100D01*
X86674Y-122011D01*
X86865Y-121549D01*
X137953D01*
X138022Y-121669D01*
X138831Y-122478D01*
X139822Y-123050D01*
X140928Y-123346D01*
X142072D01*
X143178Y-123050D01*
X144169Y-122478D01*
X144978Y-121669D01*
X145550Y-120678D01*
X145846Y-119572D01*
Y-118428D01*
X145550Y-117322D01*
X144978Y-116331D01*
X144169Y-115522D01*
X143178Y-114950D01*
X142072Y-114654D01*
X140928D01*
X139822Y-114950D01*
X138831Y-115522D01*
X138022Y-116331D01*
X137953Y-116451D01*
X78523D01*
X78246Y-116035D01*
X78297Y-115910D01*
Y-115121D01*
X77995Y-114392D01*
X77843Y-114239D01*
Y-113320D01*
X82299Y-108864D01*
X82631Y-108368D01*
X82747Y-107782D01*
Y-92144D01*
X84413D01*
Y-94914D01*
X84529Y-95499D01*
X84861Y-95996D01*
X85446Y-96581D01*
X85943Y-96913D01*
X86528Y-97029D01*
X89223D01*
X89376Y-97182D01*
X90105Y-97484D01*
X90895D01*
X91624Y-97182D01*
X92182Y-96624D01*
X92484Y-95895D01*
Y-95105D01*
X92182Y-94376D01*
X91624Y-93818D01*
X90895Y-93516D01*
X90105D01*
X89376Y-93818D01*
X89223Y-93971D01*
X87471D01*
Y-92144D01*
X126115D01*
Y-82270D01*
X125210D01*
Y-81349D01*
X125306Y-81253D01*
X125608Y-80523D01*
Y-79734D01*
X125306Y-79005D01*
X124748Y-78447D01*
X124018Y-78145D01*
X123229D01*
X122500Y-78447D01*
X121941Y-79005D01*
X121639Y-79734D01*
Y-80523D01*
X121941Y-81253D01*
X122151Y-81462D01*
Y-82270D01*
X120542D01*
Y-79764D01*
X120682Y-79624D01*
X120984Y-78895D01*
Y-78105D01*
X120682Y-77376D01*
X120124Y-76818D01*
X119395Y-76516D01*
X118605D01*
X117876Y-76818D01*
X117318Y-77376D01*
X117016Y-78105D01*
Y-78895D01*
X117318Y-79624D01*
X117483Y-79790D01*
Y-82270D01*
X115724D01*
Y-64658D01*
X115783Y-64599D01*
X116086Y-63869D01*
Y-63080D01*
X115783Y-62351D01*
X115225Y-61792D01*
X114496Y-61490D01*
X113707D01*
X112977Y-61792D01*
X112419Y-62351D01*
X112117Y-63080D01*
Y-63869D01*
X112419Y-64599D01*
X112665Y-64845D01*
Y-82270D01*
X111061D01*
Y-60916D01*
X111028Y-60749D01*
X111083Y-60615D01*
Y-59826D01*
X110781Y-59097D01*
X110223Y-58539D01*
X109494Y-58237D01*
X108704D01*
X107975Y-58539D01*
X107417Y-59097D01*
X107115Y-59826D01*
Y-60615D01*
X107417Y-61345D01*
X107975Y-61903D01*
X108003Y-61914D01*
Y-82270D01*
X106199D01*
Y-79083D01*
X106484Y-78395D01*
Y-77605D01*
X106182Y-76876D01*
X105624Y-76318D01*
X104895Y-76016D01*
X104105D01*
X103376Y-76318D01*
X102818Y-76876D01*
X102516Y-77605D01*
Y-78395D01*
X102818Y-79124D01*
X103140Y-79447D01*
Y-82270D01*
X101587D01*
Y-75719D01*
X101682Y-75624D01*
X101984Y-74895D01*
Y-74105D01*
X101682Y-73376D01*
X101124Y-72818D01*
X100395Y-72516D01*
X99605D01*
X98876Y-72818D01*
X98318Y-73376D01*
X98016Y-74105D01*
Y-74895D01*
X98318Y-75624D01*
X98528Y-75834D01*
Y-82270D01*
X96975D01*
Y-62831D01*
X97182Y-62624D01*
X97484Y-61895D01*
Y-61105D01*
X97182Y-60376D01*
X96624Y-59818D01*
X95895Y-59516D01*
X95105D01*
X94376Y-59818D01*
X93818Y-60376D01*
X93516Y-61105D01*
Y-61895D01*
X93818Y-62624D01*
X93916Y-62722D01*
Y-82270D01*
X92196D01*
Y-60967D01*
X101679Y-51484D01*
X101895D01*
X102624Y-51182D01*
X103182Y-50624D01*
X103484Y-49895D01*
Y-49105D01*
X103182Y-48376D01*
X102624Y-47818D01*
X101895Y-47516D01*
X101105D01*
X100376Y-47818D01*
X99818Y-48376D01*
X99516Y-49105D01*
Y-49321D01*
X89585Y-59252D01*
X89253Y-59748D01*
X89137Y-60334D01*
Y-82270D01*
X-11741D01*
Y-71404D01*
X-366Y-60029D01*
X38000D01*
X38585Y-59913D01*
X39081Y-59581D01*
X65679Y-32984D01*
X65895D01*
X66624Y-32682D01*
X67182Y-32124D01*
X67484Y-31395D01*
Y-30605D01*
X67182Y-29876D01*
X66624Y-29318D01*
X65895Y-29016D01*
D02*
G37*
G36*
X-9000Y-130451D02*
X-9975Y-130645D01*
X-10802Y-131198D01*
X-11355Y-132025D01*
X-11549Y-133000D01*
Y-141451D01*
X-13071D01*
Y-141169D01*
X-18929D01*
Y-141396D01*
X-25500D01*
X-25865Y-141469D01*
X-29846D01*
Y-146421D01*
X-25865D01*
X-25500Y-146494D01*
X-18929D01*
Y-146831D01*
X-13071D01*
Y-146549D01*
X-11429D01*
Y-146831D01*
X-5571D01*
Y-141169D01*
X-6451D01*
Y-133000D01*
X-6645Y-132025D01*
X-7198Y-131198D01*
X-8025Y-130645D01*
X-9000Y-130451D01*
D02*
G37*
G36*
X-0Y-140772D02*
X-758Y-140872D01*
X-1464Y-141165D01*
X-2071Y-141630D01*
X-2536Y-142236D01*
X-2829Y-142943D01*
X-2929Y-143701D01*
X-2829Y-144459D01*
X-2536Y-145165D01*
X-2071Y-145772D01*
X-1464Y-146237D01*
X-758Y-146530D01*
X-0Y-146629D01*
X758Y-146530D01*
X1464Y-146237D01*
X2071Y-145772D01*
X2536Y-145165D01*
X2829Y-144459D01*
X2929Y-143701D01*
X2829Y-142943D01*
X2536Y-142236D01*
X2071Y-141630D01*
X1464Y-141165D01*
X758Y-140872D01*
X-0Y-140772D01*
D02*
G37*
G36*
X111221Y-140040D02*
X110273Y-140164D01*
X109390Y-140530D01*
X108632Y-141112D01*
X108050Y-141870D01*
X107684Y-142753D01*
X107559Y-143701D01*
X107684Y-144648D01*
X108050Y-145531D01*
X108632Y-146290D01*
X109390Y-146872D01*
X110273Y-147237D01*
X111221Y-147362D01*
X112168Y-147237D01*
X113051Y-146872D01*
X113809Y-146290D01*
X114391Y-145531D01*
X114757Y-144648D01*
X114882Y-143701D01*
X114757Y-142753D01*
X114391Y-141870D01*
X113809Y-141112D01*
X113051Y-140530D01*
X112168Y-140164D01*
X111221Y-140040D01*
D02*
G37*
%LPD*%
D11*
X76933Y17067D02*
X79693Y14307D01*
X76933Y17067D02*
Y31933D01*
X79693Y14307D02*
X97195D01*
X79323Y34323D02*
X88733D01*
X76933Y31933D02*
X79323Y34323D01*
X49500Y-10000D02*
X53000Y-13500D01*
X63603D01*
X49500Y-10000D02*
Y34328D01*
X51500Y-6000D02*
X55000Y-9500D01*
X63507D01*
X51500Y-6000D02*
Y32500D01*
X56037Y37037D01*
X65537D01*
X80157Y31594D02*
X85968D01*
X78933Y30369D02*
X80157Y31594D01*
X76313Y-115516D02*
Y-112687D01*
X81218Y-107782D01*
X81000Y-124000D02*
X85500Y-128500D01*
X41500Y-124000D02*
X81000D01*
X78000Y-126000D02*
X82500Y-130500D01*
Y-146000D02*
Y-130500D01*
X45500Y-122000D02*
X84500D01*
X38000Y-126000D02*
X78000D01*
X84500Y-122000D02*
X88681Y-126181D01*
X-15016Y-122529D02*
Y-119766D01*
X-13692Y-118441D01*
X34500Y-128000D02*
X75000D01*
X79232Y-132232D01*
X52871Y-94871D02*
X53000Y-95000D01*
X52871Y-94871D02*
Y-87207D01*
X81218Y-107782D02*
Y-87207D01*
X-81500Y85500D02*
X7000D01*
X10336Y70250D02*
Y82164D01*
X7000Y85500D02*
X10336Y82164D01*
X-89500Y77500D02*
X-81500Y85500D01*
X-70475Y43025D02*
X-65475D01*
X-74500Y39000D02*
X-70475Y43025D01*
X-74500Y-105000D02*
Y39000D01*
X-77500Y52000D02*
X-74197Y55303D01*
X-23510D01*
X-77500Y-108500D02*
Y52000D01*
X-80500Y65500D02*
X-75750Y70250D01*
X-80500Y-115500D02*
Y65500D01*
X-75750Y70250D02*
X-13286D01*
X-78833Y74167D02*
X-47292D01*
X-83500Y-118000D02*
Y69500D01*
X-78833Y74167D01*
X158669Y7995D02*
X158734Y7929D01*
X134052Y7995D02*
X158669D01*
X133986Y8061D02*
X134052Y7995D01*
X133986Y12785D02*
X134063Y12709D01*
X155705D02*
X155781Y12632D01*
X134063Y12709D02*
X155705D01*
X-10000Y78000D02*
X-8561Y76561D01*
X-82500Y78000D02*
X-10000D01*
X-8561Y70250D02*
Y76561D01*
X1000Y70363D02*
Y77000D01*
X887Y70250D02*
X1000Y70363D01*
X-32500Y60000D02*
X-32472Y60028D01*
X-23510D01*
X-47000Y50500D02*
X-46921Y50579D01*
X-23510D01*
X-71500Y30000D02*
X-55646Y45854D01*
X-71500Y-100500D02*
Y30000D01*
X-55646Y45854D02*
X-23510D01*
X-68500Y-96000D02*
Y26500D01*
X-53870Y41130D02*
X-23510D01*
X-68500Y26500D02*
X-53870Y41130D01*
X-65500Y22500D02*
X-62867Y25133D01*
X-65500Y-92000D02*
Y22500D01*
X-86500Y-120500D02*
Y74000D01*
X-82500Y78000D01*
X-89500Y-123000D02*
Y77500D01*
X-53500Y-97500D02*
X-17500D01*
X-62500Y-88500D02*
Y17000D01*
Y-88500D02*
X-53500Y-97500D01*
X-56000Y-101500D02*
X-17500D01*
X-65500Y-92000D02*
X-56000Y-101500D01*
X-59434Y-105066D02*
X-13692D01*
X-68500Y-96000D02*
X-59434Y-105066D01*
X-63500Y-108500D02*
X-17500D01*
X-71500Y-100500D02*
X-63500Y-108500D01*
X-67500Y-112000D02*
X-13692D01*
X-74500Y-105000D02*
X-67500Y-112000D01*
X-71000Y-115000D02*
X-17500D01*
X-77500Y-108500D02*
X-71000Y-115000D01*
X-74500Y-121500D02*
X-17500D01*
X-80500Y-115500D02*
X-74500Y-121500D01*
X-77516Y-123984D02*
X-16471D01*
X-83500Y-118000D02*
X-77516Y-123984D01*
X-78000Y-129000D02*
X-17500D01*
X-86500Y-120500D02*
X-78000Y-129000D01*
X-80000Y-132500D02*
X-16000D01*
X-89500Y-123000D02*
X-80000Y-132500D01*
X-16000D02*
X-13692Y-130192D01*
Y-125214D01*
X-52543Y26957D02*
X-23510D01*
X-62500Y17000D02*
X-52543Y26957D01*
X-16471Y-123984D02*
X-15016Y-122529D01*
X-23528Y12765D02*
X-23510Y12784D01*
X-33954Y12746D02*
X-33936Y12765D01*
X-37474Y8077D02*
X-37466Y8068D01*
X-23518D02*
X-23510Y8059D01*
X-58500Y-6000D02*
X-58443Y-6057D01*
X-23567D02*
X-23510Y-6114D01*
X-58443Y-6057D02*
X-23567D01*
X-48945Y-1445D02*
X-23565D01*
X-23510Y-1390D01*
X-49000Y-1500D02*
X-48945Y-1445D01*
X-39500Y17500D02*
X-39496Y17504D01*
X-23514D02*
X-23510Y17508D01*
X-39496Y17504D02*
X-23514D01*
X-23592Y3417D02*
X-23510Y3335D01*
X-53417Y3417D02*
X-23592D01*
X-53500Y3500D02*
X-53417Y3417D01*
X-23643Y22366D02*
X-23510Y22232D01*
X-44866Y22366D02*
X-23643D01*
X-45000Y22500D02*
X-44866Y22366D01*
X-37872Y-77034D02*
X-23563D01*
X-37805Y-72313D02*
X-23566D01*
X-37862Y-72369D02*
X-37805Y-72313D01*
X-37926Y-77088D02*
X-37872Y-77034D01*
X-23563D02*
X-23510Y-76980D01*
X-28484Y-62775D02*
X-23542D01*
X-30516Y-58254D02*
X-30430Y-58168D01*
X-23595D01*
X-30516Y-34500D02*
X-30496Y-34480D01*
X-23529D01*
X-28516Y-62743D02*
X-28484Y-62775D01*
X-23566Y-72313D02*
X-23510Y-72256D01*
X-23595Y-58168D02*
X-23510Y-58083D01*
X-23542Y-62775D02*
X-23510Y-62807D01*
X33000Y-158500D02*
X41500D01*
X903Y-126403D02*
X33000Y-158500D01*
X45000Y-161500D02*
X47500Y-159000D01*
X-3822Y-126678D02*
X31000Y-161500D01*
X45000D01*
X50500Y-164000D02*
X53931Y-160569D01*
X-8546Y-126454D02*
X29000Y-164000D01*
X50500D01*
X-30366Y-48634D02*
X-23510D01*
X-23602Y-39092D02*
X-23510Y-39185D01*
X-29408Y-39092D02*
X-23602D01*
X-29500Y-39000D02*
X-29408Y-39092D01*
X-23529Y-34480D02*
X-23510Y-34461D01*
X71634Y-107866D02*
Y-87341D01*
X57548Y-98452D02*
Y-87255D01*
X57596Y-87207D01*
X57500Y-98500D02*
X57548Y-98452D01*
X62195Y-103579D02*
X62257Y-103517D01*
Y-87269D01*
X71500Y-108000D02*
X71634Y-107866D01*
X62257Y-87269D02*
X62320Y-87207D01*
X71634Y-87341D02*
X71769Y-87207D01*
X-23584Y-29810D02*
X-23510Y-29736D01*
X-30255Y-29884D02*
X-30181Y-29810D01*
X-23584D01*
X-23510Y-20287D02*
X-23403Y-20394D01*
X-16106D02*
X-16000Y-20500D01*
X-23403Y-20394D02*
X-16106D01*
X-15032Y-15531D02*
X-15000Y-15500D01*
X-23510Y-15563D02*
X-23478Y-15531D01*
X-15032D01*
X54386Y-138000D02*
X63397Y-147011D01*
X5627Y-125627D02*
X18000Y-138000D01*
X54386D01*
X57000Y-136000D02*
X68284Y-147284D01*
X10351Y-125852D02*
X20500Y-136000D01*
X57000D01*
X15076Y-125576D02*
X23500Y-134000D01*
X59996D01*
X66736Y-140740D01*
X67000Y-132000D02*
X69903Y-134904D01*
X26000Y-132000D02*
X67000D01*
X69903Y-142903D02*
Y-134904D01*
X19800Y-125800D02*
X26000Y-132000D01*
X70500Y-130000D02*
X73071Y-132571D01*
X30500Y-130000D02*
X70500D01*
X73071Y-140531D02*
Y-132571D01*
X24525Y-124025D02*
X30500Y-130000D01*
X29249Y-122749D02*
X34500Y-128000D01*
X33974Y-121974D02*
X38000Y-126000D01*
X38698Y-121198D02*
X41500Y-124000D01*
X43422Y-119922D02*
X45500Y-122000D01*
X43422Y-119922D02*
Y-87207D01*
X38698Y-121198D02*
Y-87207D01*
X33974Y-121974D02*
Y-87207D01*
X29249Y-122749D02*
Y-87207D01*
X24525Y-124025D02*
Y-87207D01*
X19800Y-125800D02*
Y-87207D01*
X15076Y-125576D02*
Y-87207D01*
X10351Y-125852D02*
Y-87207D01*
X5627Y-125627D02*
Y-87207D01*
X-8546Y-126454D02*
Y-87207D01*
X-3822Y-126678D02*
Y-87207D01*
X903Y-126403D02*
Y-87207D01*
X69903Y-142903D02*
X71000Y-144000D01*
X72815Y-145815D02*
X75815D01*
X71000Y-144000D02*
X72815Y-145815D01*
X71000Y-144000D02*
X71000D01*
X75815Y-145815D02*
X76000Y-146000D01*
X68284Y-147284D02*
X69843D01*
X63397Y-147186D02*
Y-147011D01*
X79232Y-143232D02*
Y-132232D01*
X85500Y-143000D02*
Y-128500D01*
X88681Y-146181D02*
Y-126181D01*
X67105Y-99897D02*
Y-87267D01*
X67044Y-87207D02*
X67105Y-87267D01*
Y-99897D02*
X67165Y-99957D01*
X76493Y-87207D02*
X76614Y-87328D01*
Y-98954D02*
Y-87328D01*
Y-98954D02*
X76736Y-99075D01*
X86528Y-95500D02*
X90500D01*
X85942Y-94914D02*
X86528Y-95500D01*
X85942Y-94914D02*
Y-87207D01*
X95376Y60376D02*
Y70250D01*
X92663Y57663D02*
X95376Y60376D01*
X76163Y57663D02*
X92663D01*
X100100Y59600D02*
Y70250D01*
X77348Y55348D02*
X95848D01*
X100100Y59600D01*
X78500Y53000D02*
X115000D01*
X118998Y56998D02*
Y70250D01*
X115000Y53000D02*
X118998Y56998D01*
X123722Y55222D02*
Y70250D01*
X119174Y50674D02*
X123722Y55222D01*
X79174Y50674D02*
X119174D01*
X128305Y55305D02*
X133986D01*
X121223Y48223D02*
X128305Y55305D01*
X80223Y48223D02*
X121223D01*
X124135Y46135D02*
X128580Y50580D01*
X81635Y46135D02*
X124135D01*
X128580Y50580D02*
X133986D01*
X82230Y43730D02*
X126230D01*
X128356Y45856D01*
X133986D01*
X61868Y43368D02*
X76163Y57663D01*
X63368Y41368D02*
X77348Y55348D01*
X64868Y39368D02*
X78500Y53000D01*
X65537Y37037D02*
X79174Y50674D01*
X67037Y35037D02*
X80223Y48223D01*
X59208Y35037D02*
X67037D01*
X67750Y32250D02*
X81635Y46135D01*
X71000Y32500D02*
X82230Y43730D01*
X90738Y63072D02*
X90826Y62984D01*
X90738Y63072D02*
Y70163D01*
X85945Y63003D02*
X85963Y62984D01*
X85945Y63003D02*
Y70232D01*
X85927Y70250D02*
X85945Y70232D01*
X47500Y37200D02*
X51668Y41368D01*
X63368D01*
X49196Y43368D02*
X61868D01*
X44587Y38758D02*
X49196Y43368D01*
X76478Y64478D02*
Y70250D01*
X60022Y48022D02*
X76478Y64478D01*
X80899Y69946D02*
X81202Y70250D01*
X60868Y45368D02*
X80899Y65399D01*
Y69946D01*
X71754Y63253D02*
Y70250D01*
X47383Y51400D02*
X59900D01*
X71754Y63253D01*
X43022Y48022D02*
X60022D01*
X44868Y45368D02*
X60868D01*
X54539Y39368D02*
X64868D01*
X38287Y38787D02*
X44868Y45368D01*
X67750Y16750D02*
Y32250D01*
X74000Y32500D02*
X82631Y41131D01*
X133986D01*
X74000Y4500D02*
Y32500D01*
X71000Y11589D02*
Y32500D01*
X57999Y6999D02*
X67750Y16750D01*
X57999Y43D02*
Y6999D01*
X60483Y1072D02*
X71000Y11589D01*
X63507Y-9500D02*
X72520Y-487D01*
X63211Y-6289D02*
X74000Y4500D01*
X58789Y-6289D02*
X63211D01*
X72520Y-487D02*
X72526D01*
X73030Y-4073D02*
Y-3957D01*
X63603Y-13500D02*
X73030Y-4073D01*
X61186Y-2139D02*
X63126D01*
X63311Y-1954D01*
X61183Y-2142D02*
X61186Y-2139D01*
X60183Y-2142D02*
X61183D01*
X57183Y-4683D02*
X58789Y-6289D01*
X57999Y43D02*
X60183Y-2142D01*
X57183Y-4683D02*
Y-2655D01*
X56998Y-2470D02*
X57183Y-2655D01*
X49500Y34328D02*
X54539Y39368D01*
X90651Y70250D02*
X90738Y70163D01*
X78933Y20027D02*
Y30369D01*
X54000Y-4000D02*
Y29828D01*
X83455Y28567D02*
Y28829D01*
X54000Y29828D02*
X59208Y35037D01*
X82000Y23448D02*
Y27112D01*
X83455Y28567D01*
X44587Y-3087D02*
Y38758D01*
X44500Y-16500D02*
X47500Y-13500D01*
Y37200D01*
X75959Y605D02*
X80354Y5000D01*
X92000D01*
X97195Y14307D02*
X102086Y9416D01*
X78933Y20027D02*
X79923Y19036D01*
X100464D01*
X82000Y23448D02*
X83447Y22000D01*
X102531D01*
X84650Y24781D02*
X109874D01*
X84632Y24764D02*
X84650Y24781D01*
X102531Y22000D02*
X107000Y17531D01*
X109874Y24781D02*
X115722Y18933D01*
X89487Y27000D02*
X113292D01*
X87500Y27266D02*
X87685Y27080D01*
X89407D02*
X89487Y27000D01*
X87685Y27080D02*
X89407D01*
X113292Y27000D02*
X117878Y22414D01*
X90657Y29657D02*
X116025D01*
X90500Y29500D02*
X90657Y29657D01*
X116025D02*
X120120Y25561D01*
X93000Y32500D02*
X118880D01*
X100464Y19036D02*
X104500Y15000D01*
X120279Y35500D02*
X124593Y31185D01*
X96500Y35500D02*
X120279D01*
X118880Y32500D02*
X122391Y28989D01*
X96000Y-9500D02*
Y1000D01*
X92000Y5000D02*
X96000Y1000D01*
Y-9500D02*
X122000Y-35500D01*
X127582Y3418D02*
X133905D01*
X127500Y3500D02*
X127582Y3418D01*
X133905D02*
X133986Y3336D01*
X119654Y-39184D02*
X133986D01*
X116624Y-36154D02*
X119654Y-39184D01*
X79232Y-15732D02*
Y-1268D01*
Y-15732D02*
X109000Y-45500D01*
X82500Y-15000D02*
X111000Y-43500D01*
X82500Y-15000D02*
Y1000D01*
X85532Y-13532D02*
X114067Y-42067D01*
X85532Y-13532D02*
Y-1469D01*
X88681Y-13181D02*
Y1181D01*
Y-13181D02*
X117963Y-42463D01*
Y-49962D02*
Y-42463D01*
X114067Y-51067D02*
Y-42067D01*
X111000Y-51000D02*
Y-43500D01*
X109000Y-52500D02*
Y-45500D01*
X35069Y40069D02*
X43022Y48022D01*
X38287Y-3213D02*
Y38787D01*
X35069Y-3069D02*
Y40069D01*
X133996Y22243D02*
X150545D01*
X133986Y22234D02*
X133996Y22243D01*
X150545D02*
X150554Y22253D01*
X133986Y26958D02*
X134000Y26945D01*
X147533D01*
X147546Y26932D01*
X134001Y17524D02*
X153042D01*
X153057Y17539D01*
X133986Y17509D02*
X134001Y17524D01*
X144908Y31539D02*
X145051Y31396D01*
X133986Y31683D02*
X134130Y31539D01*
X144908D01*
X134033Y36454D02*
X141954D01*
X133986Y36407D02*
X134033Y36454D01*
X141954D02*
X142000Y36500D01*
X64778Y61217D02*
X66804Y63243D01*
X64609Y61217D02*
X64778D01*
X66804Y63243D02*
Y70025D01*
X67029Y70250D01*
X25500Y34177D02*
X50097Y58774D01*
X25500Y-3000D02*
Y34177D01*
X57491Y70160D02*
X57580Y70250D01*
X57401Y59691D02*
X57491Y59781D01*
Y70160D01*
X19381Y46998D02*
Y54350D01*
X24505Y59474D01*
X23543Y51345D02*
X29117Y56918D01*
X50551Y55000D02*
X52856Y57305D01*
Y70250D01*
X102086Y-9401D02*
Y9416D01*
X104500Y-8503D02*
Y15000D01*
X107000Y-7847D02*
Y17531D01*
X115722Y-12885D02*
Y18933D01*
X117878Y-11378D02*
Y22414D01*
X120120Y-7120D02*
Y25561D01*
X122391Y-4805D02*
Y28989D01*
X124593Y259D02*
Y31185D01*
X102086Y-9401D02*
X127144Y-34459D01*
X104500Y-8503D02*
X125732Y-29735D01*
X127144Y-34459D02*
X133986D01*
X125732Y-29735D02*
X133986D01*
X107000Y-7847D02*
X124163Y-25010D01*
X133986D01*
X115722Y-12885D02*
X123123Y-20286D01*
X117878Y-11378D02*
X122000Y-15500D01*
X120120Y-7120D02*
X123837Y-10837D01*
X122391Y-4805D02*
X123698Y-6113D01*
X133986D01*
X124593Y259D02*
X126241Y-1388D01*
X133986D01*
X123123Y-20286D02*
X133986D01*
X122000Y-15500D02*
X133925D01*
X117963Y-49962D02*
X126000Y-58000D01*
X123837Y-10837D02*
X133986D01*
X133925Y-15500D02*
X133986Y-15562D01*
X30514Y26986D02*
Y28863D01*
Y26986D02*
X31988Y25512D01*
Y-3012D02*
Y25512D01*
X62270Y63999D02*
Y70215D01*
X62236Y63965D02*
X62270Y63999D01*
Y70215D02*
X62305Y70250D01*
X32500Y60000D02*
Y60262D01*
X34000Y61762D01*
Y70208D01*
X29117Y56918D02*
Y70133D01*
X24505Y59474D02*
Y70245D01*
X24509Y70250D01*
X5854Y46854D02*
X19785Y60785D01*
X5854Y-18828D02*
Y46854D01*
X19785Y60785D02*
Y70250D01*
X48131Y61356D02*
Y70250D01*
X22500Y35724D02*
X48131Y61356D01*
X22500Y-17303D02*
Y35724D01*
X18000Y-22466D02*
Y36609D01*
X43407Y62016D02*
Y70250D01*
X18000Y36609D02*
X43407Y62016D01*
X38683Y61689D02*
Y70250D01*
X13000Y-3021D02*
Y36006D01*
X38683Y61689D01*
X33958Y70250D02*
X34000Y70208D01*
X18000Y-22466D02*
X19399Y-23866D01*
X24311Y-19114D02*
X30832D01*
X22500Y-17303D02*
X24311Y-19114D01*
X15030Y64030D02*
Y70220D01*
X15000Y64000D02*
X15030Y64030D01*
Y70220D02*
X15061Y70250D01*
X29117Y70133D02*
X29234Y70250D01*
X41500Y-16500D02*
X44500D01*
X28919Y-3081D02*
X28934Y-3066D01*
Y24326D02*
X28948Y24341D01*
X28934Y-3066D02*
Y24326D01*
X-23510Y31681D02*
X-12832D01*
X-11151Y30000D01*
X-11000D01*
X38000Y-58500D02*
X65500Y-31000D01*
X-13271Y-70771D02*
X-1000Y-58500D01*
X38000D01*
X-13271Y-87207D02*
Y-70771D01*
X-23439Y-53429D02*
X28571D01*
X51000Y-31000D01*
X126500Y-44000D02*
X126546Y-43954D01*
X133940D02*
X133986Y-43908D01*
X126546Y-43954D02*
X133940D01*
X133973Y-48619D02*
X133986Y-48632D01*
X122883Y-48619D02*
X133973D01*
X122870Y-48606D02*
X122883Y-48619D01*
X133942Y-53401D02*
X133986Y-53357D01*
X126061Y-53401D02*
X133942D01*
X126016Y-53446D02*
X126061Y-53401D01*
X126000Y-58000D02*
X133905D01*
X133986Y-58081D01*
X125806Y-62806D02*
X133986D01*
X127530Y-67530D02*
X133986D01*
X128754Y-72254D02*
X133986D01*
X109000Y-52500D02*
X128754Y-72254D01*
X111000Y-51000D02*
X127530Y-67530D01*
X109532Y-87175D02*
Y-60916D01*
X109099Y-60483D02*
Y-60221D01*
Y-60483D02*
X109532Y-60916D01*
Y-87175D02*
X109564Y-87207D01*
X114195Y-87113D02*
Y-63568D01*
X114101Y-63475D02*
X114195Y-63568D01*
Y-87113D02*
X114288Y-87207D01*
X114067Y-51067D02*
X125806Y-62806D01*
X90666Y-87207D02*
Y-60334D01*
X101500Y-49500D01*
X95445Y-87152D02*
Y-61555D01*
X95391Y-87207D02*
X95445Y-87152D01*
Y-61555D02*
X95500Y-61500D01*
X104670Y-87037D02*
Y-78170D01*
Y-87037D02*
X104840Y-87207D01*
X104500Y-78000D02*
X104670Y-78170D01*
X123680Y-87150D02*
X123737Y-87207D01*
X123680Y-87150D02*
Y-80186D01*
X123624Y-80129D02*
X123680Y-80186D01*
X119000Y-78500D02*
X119013Y-78513D01*
Y-87207D02*
Y-78513D01*
X100058Y-87149D02*
X100115Y-87207D01*
X100000Y-74500D02*
X100058Y-74558D01*
Y-87149D02*
Y-74558D01*
X-23510Y-53358D02*
X-23439Y-53429D01*
D17*
X-8500Y-144000D02*
D03*
Y-150063D02*
D03*
X-16000Y-144000D02*
D03*
Y-150063D02*
D03*
D18*
X114224Y88446D02*
D03*
X108161D02*
D03*
X114469Y80500D02*
D03*
X120531D02*
D03*
D19*
X-23510Y-58083D02*
D03*
Y-53358D02*
D03*
Y-48634D02*
D03*
Y-43909D02*
D03*
Y-39185D02*
D03*
Y-34461D02*
D03*
Y-29736D02*
D03*
Y-25012D02*
D03*
Y-20287D02*
D03*
Y-10839D02*
D03*
Y-6114D02*
D03*
Y-15563D02*
D03*
Y-1390D02*
D03*
Y3335D02*
D03*
Y8059D02*
D03*
Y12784D02*
D03*
Y17508D02*
D03*
Y22232D02*
D03*
Y31681D02*
D03*
Y36406D02*
D03*
Y41130D02*
D03*
Y45854D02*
D03*
Y50579D02*
D03*
Y55303D02*
D03*
Y26957D02*
D03*
Y-72256D02*
D03*
Y-67532D02*
D03*
Y-62807D02*
D03*
Y-76980D02*
D03*
Y60028D02*
D03*
X133986Y-62806D02*
D03*
Y-58081D02*
D03*
Y-53357D02*
D03*
Y-48632D02*
D03*
Y-39184D02*
D03*
Y-34459D02*
D03*
Y-25010D02*
D03*
Y-20286D02*
D03*
Y-15562D02*
D03*
Y-10837D02*
D03*
Y-6113D02*
D03*
Y-29735D02*
D03*
Y-1388D02*
D03*
Y60029D02*
D03*
Y45856D02*
D03*
Y50580D02*
D03*
Y55305D02*
D03*
Y3336D02*
D03*
Y8061D02*
D03*
Y12785D02*
D03*
Y17509D02*
D03*
Y22234D02*
D03*
Y26958D02*
D03*
Y31683D02*
D03*
Y36407D02*
D03*
Y41131D02*
D03*
Y-43908D02*
D03*
Y-72254D02*
D03*
Y-67530D02*
D03*
Y-76979D02*
D03*
D20*
X104840Y-87207D02*
D03*
X100115D02*
D03*
X95391D02*
D03*
X90666D02*
D03*
X85942D02*
D03*
X81218D02*
D03*
X76493D02*
D03*
X71769D02*
D03*
X67044D02*
D03*
X57596D02*
D03*
X52871D02*
D03*
X62320D02*
D03*
X48147D02*
D03*
X43422D02*
D03*
X38698D02*
D03*
X33974D02*
D03*
X29249D02*
D03*
X24525D02*
D03*
X15076D02*
D03*
X10351D02*
D03*
X5627D02*
D03*
X903D02*
D03*
X-3822D02*
D03*
X-8546D02*
D03*
X19800D02*
D03*
X119013D02*
D03*
X114288D02*
D03*
X109564D02*
D03*
X123737D02*
D03*
X-13271D02*
D03*
X109549Y70250D02*
D03*
X104824D02*
D03*
X100100D02*
D03*
X95376D02*
D03*
X85927D02*
D03*
X81202D02*
D03*
X71754D02*
D03*
X67029D02*
D03*
X62305D02*
D03*
X57580D02*
D03*
X52856D02*
D03*
X76478D02*
D03*
X48131D02*
D03*
X-13286D02*
D03*
X887D02*
D03*
X-3837D02*
D03*
X-8561D02*
D03*
X43407D02*
D03*
X38683D02*
D03*
X33958D02*
D03*
X29234D02*
D03*
X24509D02*
D03*
X19785D02*
D03*
X15061D02*
D03*
X10336D02*
D03*
X5612D02*
D03*
X90651D02*
D03*
X118998D02*
D03*
X114273D02*
D03*
X123722D02*
D03*
D21*
X-25500Y-162055D02*
D03*
Y-153000D02*
D03*
Y-143945D02*
D03*
D22*
X-49500Y-153000D02*
D03*
D32*
X162983Y-149000D02*
X163983Y-150000D01*
X141500Y-149000D02*
X162983D01*
X163983Y-164017D02*
Y-150000D01*
X56500Y-119000D02*
X141500D01*
X48147Y-110647D02*
X56500Y-119000D01*
X48147Y-110647D02*
Y-87207D01*
X104824Y70250D02*
Y79621D01*
X87104Y82500D02*
X101945D01*
X104824Y79621D01*
X114224Y80367D02*
Y88446D01*
X53500Y86000D02*
X61500Y94000D01*
X114500Y88722D02*
Y92243D01*
X112743Y94000D02*
X114500Y92243D01*
X61500Y94000D02*
X112743D01*
X114224Y88446D02*
X114500Y88722D01*
X83500Y86000D02*
X83604D01*
X87104Y82500D01*
X-45517Y-177483D02*
X150517D01*
X163983Y-164017D01*
Y-150000D02*
Y75017D01*
X114224Y88446D02*
X150554D01*
X163983Y75017D01*
X114273Y70250D02*
Y72638D01*
X114224Y72687D02*
X114273Y72638D01*
X114224Y72687D02*
Y80269D01*
X-49500Y-153000D02*
X-25500D01*
X-50517Y-154017D02*
X-49500Y-153000D01*
X-50517Y-172483D02*
X-45517Y-177483D01*
X-50517Y-172483D02*
Y-154017D01*
X109549Y70250D02*
X114273D01*
X-9000Y-143500D02*
X-8500Y-144000D01*
X-9000Y-143500D02*
Y-133000D01*
X-16000Y-144000D02*
X-8500D01*
X-16055Y-143945D02*
X-16000Y-144000D01*
X-25500Y-143945D02*
X-16055D01*
D33*
X-33936Y12765D02*
X-23528D01*
X-37466Y8068D02*
X-23518D01*
D34*
X83500Y86000D02*
D03*
X141500Y-119000D02*
D03*
D35*
X53500Y86000D02*
D03*
D36*
X141500Y-149000D02*
D03*
D37*
X76313Y-115516D02*
D03*
X-13000Y-156000D02*
D03*
X-5000Y-155500D02*
D03*
X3000D02*
D03*
X52871Y-94871D02*
D03*
X-29500Y81500D02*
D03*
X-48000Y82000D02*
D03*
X-63000Y81500D02*
D03*
X-74500Y82000D02*
D03*
X158734Y7929D02*
D03*
X155781Y12632D02*
D03*
X-9000Y-133000D02*
D03*
X1000Y77000D02*
D03*
X-32500Y60000D02*
D03*
X-47000Y50500D02*
D03*
X-47292Y74167D02*
D03*
X-62867Y25133D02*
D03*
X-65475Y43025D02*
D03*
X-13692Y-118441D02*
D03*
Y-125214D02*
D03*
Y-112000D02*
D03*
Y-105066D02*
D03*
X-17500Y-129000D02*
D03*
Y-121500D02*
D03*
Y-97500D02*
D03*
Y-101500D02*
D03*
Y-115000D02*
D03*
Y-108500D02*
D03*
X-33954Y12746D02*
D03*
X-37474Y8077D02*
D03*
X-58500Y-6000D02*
D03*
X-53500Y3500D02*
D03*
X-49000Y-1500D02*
D03*
X-39500Y17500D02*
D03*
X-45000Y22500D02*
D03*
X-37926Y-77088D02*
D03*
X-37862Y-72369D02*
D03*
X-28516Y-62743D02*
D03*
X-30516Y-34500D02*
D03*
Y-58254D02*
D03*
X-23510Y-67532D02*
D03*
X41500Y-158500D02*
D03*
X47500Y-159000D02*
D03*
X54000Y-160500D02*
D03*
X-30366Y-48634D02*
D03*
X-29500Y-39000D02*
D03*
X-23510Y-43909D02*
D03*
X57500Y-98500D02*
D03*
X62195Y-103579D02*
D03*
X71500Y-108000D02*
D03*
X-30255Y-29884D02*
D03*
X-23510Y-25012D02*
D03*
Y-10839D02*
D03*
X-16000Y-20500D02*
D03*
X-15000Y-15500D02*
D03*
X66736Y-140740D02*
D03*
X73071Y-140531D02*
D03*
X69843Y-147284D02*
D03*
X63397Y-147186D02*
D03*
X79232Y-143232D02*
D03*
X82500Y-146000D02*
D03*
X88681Y-146181D02*
D03*
X76000Y-146000D02*
D03*
X85500Y-143000D02*
D03*
X67165Y-99957D02*
D03*
X76736Y-99075D02*
D03*
X90500Y-95500D02*
D03*
X90826Y62984D02*
D03*
X85963D02*
D03*
X60483Y1072D02*
D03*
X72526Y-487D02*
D03*
X73030Y-3957D02*
D03*
X63311Y-1954D02*
D03*
X56998Y-2470D02*
D03*
X83455Y28829D02*
D03*
X54000Y-4000D02*
D03*
X75959Y605D02*
D03*
X88733Y34323D02*
D03*
X85968Y31594D02*
D03*
X84632Y24764D02*
D03*
X87500Y27266D02*
D03*
X90500Y29500D02*
D03*
X93000Y32500D02*
D03*
X96500Y35500D02*
D03*
X127500Y3500D02*
D03*
X122000Y-35500D02*
D03*
X116624Y-36154D02*
D03*
X150554Y22253D02*
D03*
X147546Y26932D02*
D03*
X142000Y36500D02*
D03*
X145051Y31396D02*
D03*
X153057Y17539D02*
D03*
X64609Y61217D02*
D03*
X47383Y51400D02*
D03*
X57401Y59691D02*
D03*
X19381Y46998D02*
D03*
X23543Y51345D02*
D03*
X50551Y55000D02*
D03*
X50097Y58774D02*
D03*
X30514Y28863D02*
D03*
X62236Y63965D02*
D03*
X32500Y60000D02*
D03*
X13000Y-3021D02*
D03*
X30832Y-19114D02*
D03*
X5854Y-18828D02*
D03*
X15000Y64000D02*
D03*
X41500Y-16500D02*
D03*
X28948Y24341D02*
D03*
X-11000Y30000D02*
D03*
X65500Y-31000D02*
D03*
X51000D02*
D03*
X122870Y-48606D02*
D03*
X126016Y-53446D02*
D03*
X126500Y-44000D02*
D03*
X109099Y-60221D02*
D03*
X114101Y-63475D02*
D03*
X82500Y1000D02*
D03*
X85532Y-1469D02*
D03*
X88681Y1181D02*
D03*
X79232Y-1268D02*
D03*
X101500Y-49500D02*
D03*
X95500Y-61500D02*
D03*
X104500Y-78000D02*
D03*
X123624Y-80129D02*
D03*
X119000Y-78500D02*
D03*
X100000Y-74500D02*
D03*
X44587Y-3087D02*
D03*
X38287Y-3213D02*
D03*
X35069Y-3069D02*
D03*
X31988Y-3012D02*
D03*
X28919Y-3081D02*
D03*
X25500Y-3000D02*
D03*
X19399Y-23866D02*
D03*
M02*
