G04*
G04 #@! TF.GenerationSoftware,Altium Limited,Altium Designer,22.1.2 (22)*
G04*
G04 Layer_Color=255*
%FSLAX25Y25*%
%MOIN*%
G70*
G04*
G04 #@! TF.SameCoordinates,691D6CEF-7681-4429-9CE0-D2776B591AA1*
G04*
G04*
G04 #@! TF.FilePolarity,Positive*
G04*
G01*
G75*
%ADD17R,0.03858X0.03661*%
%ADD18R,0.03661X0.03858*%
%ADD19R,0.07874X0.02756*%
%ADD20R,0.02756X0.07874*%
%ADD21R,0.06693X0.02953*%
%ADD22R,0.06693X0.12205*%
%ADD34C,0.06693*%
%ADD35R,0.06693X0.06693*%
%ADD36R,0.06693X0.06693*%
D17*
X-8500Y-144000D02*
D03*
Y-150063D02*
D03*
X-16000Y-144000D02*
D03*
Y-150063D02*
D03*
D18*
X114224Y88446D02*
D03*
X108161D02*
D03*
X114469Y80500D02*
D03*
X120531D02*
D03*
D19*
X-23510Y-58083D02*
D03*
Y-53358D02*
D03*
Y-48634D02*
D03*
Y-43909D02*
D03*
Y-39185D02*
D03*
Y-34461D02*
D03*
Y-29736D02*
D03*
Y-25012D02*
D03*
Y-20287D02*
D03*
Y-10839D02*
D03*
Y-6114D02*
D03*
Y-15563D02*
D03*
Y-1390D02*
D03*
Y3335D02*
D03*
Y8059D02*
D03*
Y12784D02*
D03*
Y17508D02*
D03*
Y22232D02*
D03*
Y31681D02*
D03*
Y36406D02*
D03*
Y41130D02*
D03*
Y45854D02*
D03*
Y50579D02*
D03*
Y55303D02*
D03*
Y26957D02*
D03*
Y-72256D02*
D03*
Y-67532D02*
D03*
Y-62807D02*
D03*
Y-76980D02*
D03*
Y60028D02*
D03*
X133986Y-62806D02*
D03*
Y-58081D02*
D03*
Y-53357D02*
D03*
Y-48632D02*
D03*
Y-39184D02*
D03*
Y-34459D02*
D03*
Y-25010D02*
D03*
Y-20286D02*
D03*
Y-15562D02*
D03*
Y-10837D02*
D03*
Y-6113D02*
D03*
Y-29735D02*
D03*
Y-1388D02*
D03*
Y60029D02*
D03*
Y45856D02*
D03*
Y50580D02*
D03*
Y55305D02*
D03*
Y3336D02*
D03*
Y8061D02*
D03*
Y12785D02*
D03*
Y17509D02*
D03*
Y22234D02*
D03*
Y26958D02*
D03*
Y31683D02*
D03*
Y36407D02*
D03*
Y41131D02*
D03*
Y-43908D02*
D03*
Y-72254D02*
D03*
Y-67530D02*
D03*
Y-76979D02*
D03*
D20*
X104840Y-87207D02*
D03*
X100115D02*
D03*
X95391D02*
D03*
X90666D02*
D03*
X85942D02*
D03*
X81218D02*
D03*
X76493D02*
D03*
X71769D02*
D03*
X67044D02*
D03*
X57596D02*
D03*
X52871D02*
D03*
X62320D02*
D03*
X48147D02*
D03*
X43422D02*
D03*
X38698D02*
D03*
X33974D02*
D03*
X29249D02*
D03*
X24525D02*
D03*
X15076D02*
D03*
X10351D02*
D03*
X5627D02*
D03*
X903D02*
D03*
X-3822D02*
D03*
X-8546D02*
D03*
X19800D02*
D03*
X119013D02*
D03*
X114288D02*
D03*
X109564D02*
D03*
X123737D02*
D03*
X-13271D02*
D03*
X109549Y70250D02*
D03*
X104824D02*
D03*
X100100D02*
D03*
X95376D02*
D03*
X85927D02*
D03*
X81202D02*
D03*
X71754D02*
D03*
X67029D02*
D03*
X62305D02*
D03*
X57580D02*
D03*
X52856D02*
D03*
X76478D02*
D03*
X48131D02*
D03*
X-13286D02*
D03*
X887D02*
D03*
X-3837D02*
D03*
X-8561D02*
D03*
X43407D02*
D03*
X38683D02*
D03*
X33958D02*
D03*
X29234D02*
D03*
X24509D02*
D03*
X19785D02*
D03*
X15061D02*
D03*
X10336D02*
D03*
X5612D02*
D03*
X90651D02*
D03*
X118998D02*
D03*
X114273D02*
D03*
X123722D02*
D03*
D21*
X-25500Y-162055D02*
D03*
Y-153000D02*
D03*
Y-143945D02*
D03*
D22*
X-49500Y-153000D02*
D03*
D34*
X83500Y86000D02*
D03*
X141500Y-119000D02*
D03*
D35*
X53500Y86000D02*
D03*
D36*
X141500Y-149000D02*
D03*
M02*
