G04*
G04 #@! TF.GenerationSoftware,Altium Limited,Altium Designer,22.1.2 (22)*
G04*
G04 Layer_Physical_Order=2*
G04 Layer_Color=16711680*
%FSLAX25Y25*%
%MOIN*%
G70*
G04*
G04 #@! TF.SameCoordinates,691D6CEF-7681-4429-9CE0-D2776B591AA1*
G04*
G04*
G04 #@! TF.FilePolarity,Positive*
G04*
G01*
G75*
%ADD11C,0.01000*%
%ADD33C,0.02000*%
%ADD34C,0.06693*%
%ADD35R,0.06693X0.06693*%
%ADD36R,0.06693X0.06693*%
%ADD37C,0.01968*%
%ADD38R,0.01378X0.06693*%
G36*
X168971Y96367D02*
Y-182867D01*
X166867Y-184971D01*
X-93866D01*
X-95971Y-182867D01*
Y95867D01*
X-95367Y96471D01*
X168867D01*
X168971Y96367D01*
D02*
G37*
%LPC*%
G36*
X84072Y90346D02*
X82928D01*
X81822Y90050D01*
X80831Y89478D01*
X80022Y88669D01*
X79450Y87678D01*
X79154Y86572D01*
Y85428D01*
X79450Y84322D01*
X80022Y83331D01*
X80831Y82522D01*
X81822Y81950D01*
X82928Y81653D01*
X84072D01*
X85178Y81950D01*
X86169Y82522D01*
X86978Y83331D01*
X87550Y84322D01*
X87846Y85428D01*
Y86572D01*
X87550Y87678D01*
X86978Y88669D01*
X86169Y89478D01*
X85178Y90050D01*
X84072Y90346D01*
D02*
G37*
G36*
X57846D02*
X49154D01*
Y81653D01*
X57846D01*
Y90346D01*
D02*
G37*
G36*
X-46898Y76151D02*
X-47687D01*
X-48416Y75849D01*
X-48975Y75291D01*
X-49277Y74562D01*
Y73772D01*
X-48975Y73043D01*
X-48676Y72744D01*
Y51631D01*
X-48682Y51624D01*
X-48984Y50895D01*
Y50105D01*
X-48682Y49376D01*
X-48124Y48818D01*
X-47395Y48516D01*
X-46854D01*
X-46647Y48016D01*
X-50108Y44555D01*
X-64198D01*
X-64351Y44707D01*
X-65080Y45009D01*
X-65869D01*
X-66599Y44707D01*
X-67157Y44149D01*
X-67459Y43420D01*
Y42631D01*
X-67157Y41901D01*
X-66599Y41343D01*
X-65869Y41041D01*
X-65080D01*
X-64351Y41343D01*
X-64198Y41496D01*
X-49475D01*
X-48889Y41612D01*
X-48393Y41944D01*
X-32321Y58016D01*
X-32105D01*
X-31376Y58318D01*
X-30818Y58876D01*
X-30516Y59605D01*
Y60395D01*
X-30818Y61124D01*
X-31376Y61682D01*
X-32105Y61984D01*
X-32895D01*
X-33624Y61682D01*
X-34182Y61124D01*
X-34484Y60395D01*
Y60179D01*
X-44516Y50147D01*
X-45016Y50354D01*
Y50895D01*
X-45318Y51624D01*
X-45617Y51923D01*
Y73036D01*
X-45610Y73043D01*
X-45308Y73772D01*
Y74562D01*
X-45610Y75291D01*
X-46168Y75849D01*
X-46898Y76151D01*
D02*
G37*
G36*
X1395Y78984D02*
X605D01*
X-124Y78682D01*
X-682Y78124D01*
X-984Y77395D01*
Y77179D01*
X-51501Y26662D01*
X-61590D01*
X-61743Y26815D01*
X-62472Y27117D01*
X-63262D01*
X-63991Y26815D01*
X-64549Y26257D01*
X-64851Y25528D01*
Y24738D01*
X-64549Y24009D01*
X-63991Y23451D01*
X-63262Y23149D01*
X-62472D01*
X-61743Y23451D01*
X-61590Y23604D01*
X-50867D01*
X-50282Y23720D01*
X-49786Y24051D01*
X1179Y75016D01*
X1395D01*
X2124Y75318D01*
X2682Y75876D01*
X2984Y76605D01*
Y77395D01*
X2682Y78124D01*
X2124Y78682D01*
X1395Y78984D01*
D02*
G37*
G36*
X15395Y65984D02*
X14605D01*
X13876Y65682D01*
X13723Y65529D01*
X-3500D01*
X-4085Y65413D01*
X-4581Y65081D01*
X-7081Y62581D01*
X-7413Y62085D01*
X-7529Y61500D01*
Y29346D01*
X-7991Y29154D01*
X-9016Y30179D01*
Y30395D01*
X-9318Y31124D01*
X-9876Y31682D01*
X-10605Y31984D01*
X-11395D01*
X-12124Y31682D01*
X-12682Y31124D01*
X-12984Y30395D01*
Y29605D01*
X-12682Y28876D01*
X-12124Y28318D01*
X-11395Y28016D01*
X-11179D01*
X-10029Y26866D01*
Y-17623D01*
X-10092Y-17671D01*
X-10529Y-17808D01*
X-13016Y-15321D01*
Y-15105D01*
X-13318Y-14376D01*
X-13876Y-13818D01*
X-14605Y-13516D01*
X-15395D01*
X-16124Y-13818D01*
X-16682Y-14376D01*
X-16984Y-15105D01*
Y-15895D01*
X-16682Y-16624D01*
X-16124Y-17182D01*
X-15395Y-17484D01*
X-15179D01*
X-13029Y-19634D01*
Y-27500D01*
X-12913Y-28085D01*
X-12648Y-28482D01*
X-13036Y-28801D01*
X-14471Y-27367D01*
Y-21777D01*
X-14318Y-21624D01*
X-14016Y-20895D01*
Y-20105D01*
X-14318Y-19376D01*
X-14876Y-18818D01*
X-15605Y-18516D01*
X-16395D01*
X-17124Y-18818D01*
X-17471Y-19164D01*
X-17971Y-18957D01*
Y-14848D01*
X-18087Y-14263D01*
X-18419Y-13767D01*
X-21525Y-10660D01*
Y-10444D01*
X-21827Y-9715D01*
X-22386Y-9156D01*
X-23115Y-8854D01*
X-23904D01*
X-24634Y-9156D01*
X-25192Y-9715D01*
X-25494Y-10444D01*
Y-11233D01*
X-25192Y-11963D01*
X-24634Y-12521D01*
X-23904Y-12823D01*
X-23688D01*
X-21029Y-15482D01*
Y-24607D01*
X-21525Y-24617D01*
X-21827Y-23888D01*
X-22386Y-23330D01*
X-23115Y-23028D01*
X-23904D01*
X-24634Y-23330D01*
X-25192Y-23888D01*
X-25494Y-24617D01*
Y-25407D01*
X-25192Y-26136D01*
X-25039Y-26289D01*
Y-28198D01*
X-25530Y-28471D01*
X-26116Y-28355D01*
X-28978D01*
X-29131Y-28202D01*
X-29860Y-27900D01*
X-30650D01*
X-31379Y-28202D01*
X-31461Y-28284D01*
X-31961Y-28077D01*
Y12517D01*
X-31915Y12746D01*
X-31970Y13023D01*
Y13141D01*
X-32015Y13251D01*
X-32070Y13527D01*
X-32227Y13761D01*
X-32272Y13870D01*
X-32356Y13954D01*
X-32513Y14188D01*
X-32747Y14345D01*
X-32830Y14429D01*
X-32940Y14474D01*
X-33174Y14630D01*
X-33450Y14685D01*
X-33560Y14731D01*
X-33678D01*
X-33954Y14786D01*
X-34231Y14731D01*
X-34349D01*
X-34459Y14685D01*
X-34735Y14630D01*
X-34969Y14474D01*
X-35078Y14429D01*
X-35162Y14345D01*
X-35396Y14188D01*
X-35442Y14143D01*
X-35598Y13909D01*
X-35637Y13870D01*
X-35657Y13821D01*
X-35884Y13481D01*
X-36039Y12701D01*
Y10130D01*
X-36099Y10059D01*
X-36272Y9937D01*
X-36539Y9857D01*
X-36694Y9961D01*
X-36970Y10016D01*
X-37080Y10061D01*
X-37198D01*
X-37474Y10116D01*
X-37751Y10061D01*
X-37869D01*
X-37979Y10016D01*
X-38255Y9961D01*
X-38489Y9804D01*
X-38598Y9759D01*
X-38682Y9675D01*
X-38916Y9519D01*
X-39073Y9285D01*
X-39157Y9201D01*
X-39215Y9178D01*
X-39665Y9438D01*
Y14910D01*
X-39027Y15548D01*
X-38376Y15818D01*
X-37818Y16376D01*
X-37516Y17105D01*
Y17895D01*
X-37818Y18624D01*
X-38376Y19182D01*
X-39105Y19484D01*
X-39895D01*
X-40624Y19182D01*
X-41182Y18624D01*
X-41484Y17895D01*
Y17417D01*
X-42276Y16625D01*
X-42608Y16128D01*
X-42724Y15543D01*
Y-55561D01*
X-52081Y-64919D01*
X-52413Y-65415D01*
X-52471Y-65705D01*
X-52971Y-65655D01*
Y-64634D01*
X-43919Y-55581D01*
X-43587Y-55085D01*
X-43471Y-54500D01*
Y21223D01*
X-43318Y21376D01*
X-43016Y22105D01*
Y22895D01*
X-43318Y23624D01*
X-43876Y24182D01*
X-44605Y24484D01*
X-45395D01*
X-46124Y24182D01*
X-46682Y23624D01*
X-46984Y22895D01*
Y22105D01*
X-46682Y21376D01*
X-46529Y21223D01*
Y-1072D01*
X-47016Y-1105D01*
X-47318Y-376D01*
X-47876Y182D01*
X-48605Y484D01*
X-49395D01*
X-50124Y182D01*
X-50682Y-376D01*
X-50984Y-1105D01*
Y-1895D01*
X-50682Y-2624D01*
X-50529Y-2777D01*
Y-52367D01*
X-51964Y-53801D01*
X-52352Y-53482D01*
X-52087Y-53085D01*
X-51971Y-52500D01*
Y2223D01*
X-51818Y2376D01*
X-51516Y3105D01*
Y3895D01*
X-51818Y4624D01*
X-52376Y5182D01*
X-53105Y5484D01*
X-53895D01*
X-54624Y5182D01*
X-55182Y4624D01*
X-55484Y3895D01*
Y3105D01*
X-55182Y2376D01*
X-55029Y2223D01*
Y-51867D01*
X-56535Y-53372D01*
X-56996Y-53126D01*
X-56971Y-53000D01*
Y-7277D01*
X-56818Y-7124D01*
X-56516Y-6395D01*
Y-5605D01*
X-56818Y-4876D01*
X-57376Y-4318D01*
X-58105Y-4016D01*
X-58895D01*
X-59624Y-4318D01*
X-60182Y-4876D01*
X-60484Y-5605D01*
Y-6395D01*
X-60182Y-7124D01*
X-60029Y-7277D01*
Y-52367D01*
X-66081Y-58419D01*
X-66413Y-58915D01*
X-66529Y-59500D01*
Y-171500D01*
X-66413Y-172085D01*
X-66081Y-172581D01*
X-60081Y-178581D01*
X-59585Y-178913D01*
X-59000Y-179029D01*
X23500D01*
X24085Y-178913D01*
X24581Y-178581D01*
X39369Y-163794D01*
X39700Y-163298D01*
X39817Y-162713D01*
Y-160330D01*
X40317Y-160123D01*
X40376Y-160182D01*
X41105Y-160484D01*
X41895D01*
X42624Y-160182D01*
X43182Y-159624D01*
X43484Y-158895D01*
Y-158105D01*
X43358Y-157799D01*
X43692Y-157299D01*
X45687D01*
X45895Y-157799D01*
X45818Y-157876D01*
X45516Y-158605D01*
Y-159395D01*
X45818Y-160124D01*
X46376Y-160682D01*
X47105Y-160984D01*
X47895D01*
X48624Y-160682D01*
X49182Y-160124D01*
X49484Y-159395D01*
Y-158605D01*
X49182Y-157876D01*
X49147Y-157841D01*
Y-157299D01*
X52488D01*
Y-159205D01*
X52318Y-159376D01*
X52016Y-160105D01*
Y-160895D01*
X52318Y-161624D01*
X52876Y-162182D01*
X53605Y-162484D01*
X54395D01*
X55124Y-162182D01*
X55682Y-161624D01*
X55984Y-160895D01*
Y-160105D01*
X55682Y-159376D01*
X55547Y-159241D01*
Y-157299D01*
X102969D01*
Y-148606D01*
X90210D01*
Y-147458D01*
X90363Y-147305D01*
X90665Y-146576D01*
Y-145786D01*
X90363Y-145057D01*
X89805Y-144499D01*
X89076Y-144197D01*
X88286D01*
X87916Y-144350D01*
X87331Y-144072D01*
X87279Y-143891D01*
X87484Y-143395D01*
Y-142605D01*
X87182Y-141876D01*
X86624Y-141318D01*
X85895Y-141016D01*
X85105D01*
X84376Y-141318D01*
X83818Y-141876D01*
X83516Y-142605D01*
Y-143395D01*
X83684Y-143802D01*
X83302Y-144184D01*
X82895Y-144016D01*
X82105D01*
X81491Y-144270D01*
X81147Y-144015D01*
X81088Y-143937D01*
X81217Y-143627D01*
Y-142838D01*
X80914Y-142108D01*
X80356Y-141550D01*
X79627Y-141248D01*
X78838D01*
X78108Y-141550D01*
X77550Y-142108D01*
X77248Y-142838D01*
Y-143627D01*
X77362Y-143903D01*
X76966Y-144252D01*
X76395Y-144016D01*
X75605D01*
X75032Y-144253D01*
X74532Y-144009D01*
Y-141877D01*
X74754Y-141655D01*
X75056Y-140926D01*
Y-140137D01*
X74754Y-139407D01*
X74642Y-139295D01*
X74849Y-138795D01*
X80693D01*
Y-138795D01*
X90370D01*
Y-138795D01*
X99590D01*
Y-138795D01*
X102969D01*
Y-130102D01*
X102809D01*
Y-106280D01*
X102692Y-105694D01*
X102361Y-105198D01*
X102500Y-105059D01*
Y-79529D01*
X103223D01*
X103376Y-79682D01*
X104105Y-79984D01*
X104895D01*
X105624Y-79682D01*
X106182Y-79124D01*
X106484Y-78395D01*
Y-77605D01*
X106182Y-76876D01*
X105624Y-76318D01*
X104895Y-76016D01*
X104105D01*
X103376Y-76318D01*
X103223Y-76471D01*
X101543D01*
X101336Y-75971D01*
X101682Y-75624D01*
X101984Y-74895D01*
Y-74105D01*
X101682Y-73376D01*
X101124Y-72818D01*
X100395Y-72516D01*
X100428Y-72029D01*
X114866D01*
X117471Y-74634D01*
Y-77223D01*
X117318Y-77376D01*
X117016Y-78105D01*
Y-78895D01*
X117318Y-79624D01*
X117876Y-80182D01*
X118605Y-80484D01*
X119395D01*
X120124Y-80182D01*
X120682Y-79624D01*
X120984Y-78895D01*
Y-78105D01*
X120682Y-77376D01*
X120529Y-77223D01*
Y-74000D01*
X120413Y-73415D01*
X120081Y-72919D01*
X116692Y-69529D01*
X116829Y-69092D01*
X116877Y-69029D01*
X117867D01*
X122094Y-73257D01*
Y-78852D01*
X121941Y-79005D01*
X121639Y-79734D01*
Y-80523D01*
X121941Y-81253D01*
X122500Y-81811D01*
X123229Y-82113D01*
X124018D01*
X124748Y-81811D01*
X125306Y-81253D01*
X125608Y-80523D01*
Y-79734D01*
X125306Y-79005D01*
X125153Y-78852D01*
Y-72500D01*
X125037Y-71915D01*
X124705Y-71419D01*
X124332Y-71170D01*
X119581Y-66419D01*
X119380Y-66284D01*
X118998Y-66000D01*
X118998D01*
X117597Y-64599D01*
X116233D01*
X115956Y-64183D01*
X116086Y-63869D01*
Y-63080D01*
X115783Y-62351D01*
X115225Y-61792D01*
X114496Y-61490D01*
X113707D01*
X112977Y-61792D01*
X112824Y-61945D01*
X110888D01*
X110681Y-61445D01*
X110781Y-61345D01*
X111083Y-60615D01*
Y-59826D01*
X110781Y-59097D01*
X110223Y-58539D01*
X110130Y-58500D01*
X110229Y-58000D01*
X111000D01*
Y-55411D01*
X111180Y-54976D01*
X124739D01*
X124892Y-55128D01*
X125621Y-55431D01*
X126411D01*
X127140Y-55128D01*
X127698Y-54570D01*
X128000Y-53841D01*
Y-53052D01*
X127698Y-52322D01*
X127140Y-51764D01*
X126411Y-51462D01*
X125621D01*
X124892Y-51764D01*
X124739Y-51917D01*
X111198D01*
X108250Y-48969D01*
Y-47017D01*
X108712Y-46826D01*
X111449Y-49562D01*
X111945Y-49894D01*
X112531Y-50010D01*
X121468D01*
X121746Y-50288D01*
X122475Y-50590D01*
X123264D01*
X123994Y-50288D01*
X124552Y-49730D01*
X124854Y-49000D01*
Y-48211D01*
X124552Y-47482D01*
X123994Y-46924D01*
X123264Y-46622D01*
X122475D01*
X121746Y-46924D01*
X121718Y-46952D01*
X113164D01*
X110829Y-44616D01*
Y-43247D01*
X111329Y-43040D01*
X113371Y-45081D01*
X113867Y-45413D01*
X114452Y-45529D01*
X125223D01*
X125376Y-45682D01*
X126105Y-45984D01*
X126895D01*
X127624Y-45682D01*
X128182Y-45124D01*
X128484Y-44395D01*
Y-43605D01*
X128182Y-42876D01*
X127624Y-42318D01*
X126895Y-42016D01*
X126105D01*
X125376Y-42318D01*
X125223Y-42471D01*
X115085D01*
X113590Y-40975D01*
Y-6711D01*
X113473Y-6126D01*
X113142Y-5630D01*
X111624Y-4112D01*
X111804Y-3585D01*
X112168Y-3537D01*
X113051Y-3171D01*
X113809Y-2589D01*
X114391Y-1831D01*
X114595Y-1340D01*
X115095Y-1439D01*
Y-34877D01*
X114942Y-35030D01*
X114640Y-35759D01*
Y-36549D01*
X114942Y-37278D01*
X115500Y-37836D01*
X116229Y-38138D01*
X117019D01*
X117748Y-37836D01*
X118306Y-37278D01*
X118608Y-36549D01*
Y-35759D01*
X118306Y-35030D01*
X118153Y-34877D01*
Y1376D01*
X118037Y1961D01*
X117705Y2458D01*
X109829Y10333D01*
X109333Y10665D01*
X108748Y10781D01*
X102969D01*
Y13598D01*
X99819D01*
Y13598D01*
X95968D01*
X95761Y14098D01*
X97581Y15919D01*
X97913Y16415D01*
X98029Y17000D01*
Y34223D01*
X98182Y34376D01*
X98484Y35105D01*
Y35895D01*
X98182Y36624D01*
X97851Y36955D01*
X98058Y37455D01*
X136882D01*
X138919Y35419D01*
X139415Y35087D01*
X140000Y34971D01*
X140723D01*
X140876Y34818D01*
X141605Y34516D01*
X142395D01*
X143022Y34775D01*
X143521Y34562D01*
Y32673D01*
X143369Y32520D01*
X143067Y31791D01*
Y31001D01*
X143369Y30272D01*
X143927Y29714D01*
X144656Y29412D01*
X145446D01*
X145601Y29476D01*
X146017Y29198D01*
Y28209D01*
X145864Y28056D01*
X145562Y27327D01*
Y26537D01*
X145864Y25808D01*
X146422Y25250D01*
X147152Y24948D01*
X147941D01*
X148525Y25190D01*
X149025Y24951D01*
Y23529D01*
X148872Y23377D01*
X148570Y22647D01*
Y21858D01*
X148872Y21129D01*
X149430Y20571D01*
X150160Y20268D01*
X150949D01*
X151112Y20336D01*
X151527Y20058D01*
Y18816D01*
X151375Y18663D01*
X151073Y17934D01*
Y17144D01*
X151375Y16415D01*
X151933Y15857D01*
X152662Y15555D01*
X153451D01*
X153752Y15679D01*
X154252Y15345D01*
Y13909D01*
X154099Y13756D01*
X153797Y13027D01*
Y12238D01*
X154099Y11508D01*
X154657Y10950D01*
X155387Y10648D01*
X156176D01*
X156705Y10867D01*
X157205Y10596D01*
Y9206D01*
X157052Y9053D01*
X156750Y8324D01*
Y7535D01*
X157052Y6805D01*
X157610Y6247D01*
X158340Y5945D01*
X159129D01*
X159858Y6247D01*
X160417Y6805D01*
X160719Y7535D01*
Y8324D01*
X160417Y9053D01*
X160264Y9206D01*
Y49955D01*
X160147Y50540D01*
X159816Y51037D01*
X157271Y53581D01*
X156775Y53913D01*
X156189Y54029D01*
X67346D01*
X67154Y54491D01*
X69423Y56760D01*
X89789D01*
X90374Y56876D01*
X90871Y57208D01*
X92081Y58419D01*
X92413Y58915D01*
X92529Y59500D01*
Y61913D01*
X92810Y62590D01*
Y63379D01*
X92508Y64108D01*
X91950Y64666D01*
X91220Y64969D01*
X90431D01*
X89702Y64666D01*
X89143Y64108D01*
X88841Y63379D01*
Y62590D01*
X89143Y61860D01*
X89471Y61533D01*
Y60133D01*
X89156Y59819D01*
X69635D01*
X69443Y60281D01*
X70618Y61455D01*
X84687D01*
X84839Y61302D01*
X85569Y61000D01*
X86358D01*
X87087Y61302D01*
X87646Y61860D01*
X87948Y62590D01*
Y63379D01*
X87646Y64108D01*
X87087Y64666D01*
X86358Y64969D01*
X85569D01*
X84839Y64666D01*
X84687Y64514D01*
X69984D01*
X69399Y64397D01*
X68903Y64066D01*
X66869Y62032D01*
X66378Y62129D01*
X66291Y62341D01*
X65733Y62899D01*
X65003Y63201D01*
X64609D01*
X64220Y63570D01*
Y64359D01*
X63918Y65089D01*
X63360Y65647D01*
X62630Y65949D01*
X61841D01*
X61112Y65647D01*
X60994Y65529D01*
X27636D01*
X27051Y65413D01*
X26554Y65081D01*
X22002Y60529D01*
X824D01*
X239Y60413D01*
X-257Y60081D01*
X-4009Y56330D01*
X-4471Y56521D01*
Y60866D01*
X-2867Y62471D01*
X13723D01*
X13876Y62318D01*
X14605Y62016D01*
X15395D01*
X16124Y62318D01*
X16682Y62876D01*
X16984Y63605D01*
Y64395D01*
X16682Y65124D01*
X16124Y65682D01*
X15395Y65984D01*
D02*
G37*
G36*
X127895Y5484D02*
X127105D01*
X126376Y5182D01*
X126223Y5029D01*
X125500D01*
X124915Y4913D01*
X124419Y4581D01*
X120919Y1081D01*
X120587Y585D01*
X120471Y0D01*
Y-34223D01*
X120318Y-34376D01*
X120016Y-35105D01*
Y-35895D01*
X120318Y-36624D01*
X120876Y-37182D01*
X121605Y-37484D01*
X122395D01*
X123124Y-37182D01*
X123682Y-36624D01*
X123984Y-35895D01*
Y-35105D01*
X123682Y-34376D01*
X123529Y-34223D01*
Y-634D01*
X126134Y1971D01*
X126223D01*
X126376Y1818D01*
X127105Y1516D01*
X127895D01*
X128624Y1818D01*
X129182Y2376D01*
X129484Y3105D01*
Y3895D01*
X129182Y4624D01*
X128624Y5182D01*
X127895Y5484D01*
D02*
G37*
G36*
X142072Y-114654D02*
X140928D01*
X139822Y-114950D01*
X138831Y-115522D01*
X138022Y-116331D01*
X137450Y-117322D01*
X137153Y-118428D01*
Y-119572D01*
X137450Y-120678D01*
X138022Y-121669D01*
X138831Y-122478D01*
X139822Y-123050D01*
X140928Y-123346D01*
X142072D01*
X143178Y-123050D01*
X144169Y-122478D01*
X144978Y-121669D01*
X145550Y-120678D01*
X145846Y-119572D01*
Y-118428D01*
X145550Y-117322D01*
X144978Y-116331D01*
X144169Y-115522D01*
X143178Y-114950D01*
X142072Y-114654D01*
D02*
G37*
G36*
X111221Y-140040D02*
X110273Y-140164D01*
X109390Y-140530D01*
X108632Y-141112D01*
X108050Y-141870D01*
X107684Y-142753D01*
X107559Y-143701D01*
X107684Y-144648D01*
X108050Y-145531D01*
X108632Y-146290D01*
X109390Y-146872D01*
X110273Y-147237D01*
X111221Y-147362D01*
X112168Y-147237D01*
X113051Y-146872D01*
X113809Y-146290D01*
X114391Y-145531D01*
X114757Y-144648D01*
X114882Y-143701D01*
X114757Y-142753D01*
X114391Y-141870D01*
X113809Y-141112D01*
X113051Y-140530D01*
X112168Y-140164D01*
X111221Y-140040D01*
D02*
G37*
G36*
X145846Y-144653D02*
X137153D01*
Y-153347D01*
X145846D01*
Y-144653D01*
D02*
G37*
%LPD*%
G36*
X-38081Y-150581D02*
X-37585Y-150913D01*
X-37000Y-151029D01*
X5500D01*
X6085Y-150913D01*
X6581Y-150581D01*
X8134Y-149029D01*
X14551D01*
Y-151881D01*
X14356Y-152172D01*
X14201Y-152953D01*
Y-158415D01*
X13655Y-158961D01*
X-38155D01*
X-41961Y-155155D01*
Y-147355D01*
X-41499Y-147164D01*
X-38081Y-150581D01*
D02*
G37*
D11*
X-44500Y-166500D02*
X18000D01*
X22539Y-161961D01*
X-51000Y-160000D02*
X-44500Y-166500D01*
X20000Y-168500D02*
X25689Y-162811D01*
X-49000Y-168500D02*
X20000D01*
X-54500Y-163000D02*
X-49000Y-168500D01*
X14270Y-118441D02*
X25689Y-129861D01*
Y-134449D02*
Y-129861D01*
X13733Y-115000D02*
X28839Y-130105D01*
X-17500Y-115000D02*
X13733D01*
X28839Y-134449D02*
Y-130105D01*
X22539Y-134449D02*
Y-129539D01*
X14500Y-121500D02*
X22539Y-129539D01*
X-13692Y-118441D02*
X14270D01*
X-17500Y-121500D02*
X14500D01*
X68984Y-110484D02*
X80484D01*
X76499Y-115701D02*
X77483D01*
X62195Y-106695D02*
X68532Y-113031D01*
X78420D02*
X82382Y-116994D01*
X68532Y-113031D02*
X78420D01*
X76313Y-115516D02*
X76499Y-115701D01*
X80484Y-110484D02*
X85532Y-115532D01*
X77483Y-115701D02*
X79232Y-117450D01*
X67000Y-108500D02*
X68984Y-110484D01*
X71500Y-108000D02*
X83500D01*
X88681Y-113181D01*
X82382Y-134449D02*
Y-116994D01*
X52871Y-94871D02*
X84700D01*
X79232Y-134449D02*
Y-117450D01*
X158734Y7929D02*
Y49955D01*
X155781Y12632D02*
Y46878D01*
X14815Y-129000D02*
X16174Y-130359D01*
X-17500Y-129000D02*
X14815D01*
X-24000Y-138500D02*
X1000D01*
X5000Y-142500D01*
X55500D01*
X1500Y-136000D02*
X5500Y-140000D01*
X57500D01*
X-22000Y-136000D02*
X1500D01*
X-28516Y-129484D02*
X-22000Y-136000D01*
X-31000Y-131500D02*
X-24000Y-138500D01*
X-51000Y-160000D02*
Y-66000D01*
X-54500Y-163000D02*
Y-64000D01*
X-53500Y-171000D02*
X21500D01*
X-58000Y-166500D02*
Y-62000D01*
Y-166500D02*
X-53500Y-171000D01*
X-57000Y-174000D02*
X22500D01*
X-61500Y-169500D02*
X-57000Y-174000D01*
X-61500Y-169500D02*
Y-60500D01*
X-59000Y-177500D02*
X23500D01*
X-65000Y-171500D02*
Y-59500D01*
Y-171500D02*
X-59000Y-177500D01*
X-31000Y-131500D02*
Y-61714D01*
X-28516Y-129484D02*
Y-62743D01*
X-62867Y25133D02*
X-50867D01*
X1000Y77000D01*
X-65475Y43025D02*
X-49475D01*
X-32500Y60000D01*
X-47146Y50646D02*
X-47000Y50500D01*
X-47146Y50646D02*
Y74021D01*
X-47292Y74167D02*
X-47146Y74021D01*
X-17500Y-108500D02*
X14087D01*
X-18000D02*
X-17500D01*
X-13692Y-125214D02*
X14104D01*
X19286Y-130396D01*
X13983Y-105066D02*
X38287Y-129371D01*
X-13692Y-105066D02*
X13983D01*
X-13692Y-112000D02*
X13914D01*
X31988Y-130074D01*
X14087Y-108500D02*
X35138Y-129551D01*
X13791Y-101500D02*
X41437Y-129146D01*
X-17500Y-101500D02*
X13791D01*
X13165Y-97500D02*
X44587Y-128921D01*
X-17500Y-97500D02*
X13165D01*
X29222Y-107222D02*
X50886Y-128886D01*
X29222Y-107222D02*
Y-104222D01*
X-8168Y-66832D02*
X29222Y-104222D01*
X31920Y-106420D02*
X54035Y-128535D01*
X-21500Y-49000D02*
X31920Y-102420D01*
Y-106420D02*
Y-102420D01*
X34721Y-105721D02*
Y-99721D01*
Y-105721D02*
X57185Y-128185D01*
X-21025Y-43975D02*
X34721Y-99721D01*
X-26000Y-34500D02*
X37263Y-97763D01*
Y-104263D02*
X60335Y-127335D01*
X37263Y-104263D02*
Y-97763D01*
X39857Y-103189D02*
X63500Y-126833D01*
X-26116Y-29884D02*
X39857Y-95857D01*
Y-103189D02*
Y-95857D01*
X42502Y-100502D02*
Y-94502D01*
X-23510Y-28490D02*
X42502Y-94502D01*
Y-100502D02*
X66634Y-124634D01*
X-19500Y-28500D02*
X45252Y-93252D01*
Y-100252D02*
X69784Y-124784D01*
X45252Y-100252D02*
Y-93252D01*
X-16000Y-28000D02*
X47690Y-91690D01*
Y-99190D02*
X72933Y-124433D01*
X47690Y-99190D02*
Y-91690D01*
X50076Y-98576D02*
X76083Y-124583D01*
X-11500Y-27500D02*
X50076Y-89076D01*
Y-98576D02*
Y-89076D01*
X44587Y-134449D02*
Y-128921D01*
X41437Y-134449D02*
Y-129146D01*
X38287Y-134449D02*
Y-129371D01*
X-20541Y-70500D02*
X-10343D01*
X47736Y-128579D01*
X50886Y-134449D02*
Y-128886D01*
X47736Y-134449D02*
Y-128579D01*
X35138Y-134449D02*
Y-129551D01*
X31988Y-134449D02*
Y-130074D01*
X19286Y-134345D02*
X19390Y-134449D01*
X19286Y-134345D02*
Y-130396D01*
X16174Y-134382D02*
X16240Y-134449D01*
X16174Y-134382D02*
Y-130359D01*
X-51000Y-66000D02*
X-41195Y-56195D01*
Y15543D02*
X-39500Y17238D01*
X-41195Y-56195D02*
Y15543D01*
X-39500Y17238D02*
Y17500D01*
X-65000Y-59500D02*
X-58500Y-53000D01*
X-61500Y-60500D02*
X-53500Y-52500D01*
X-58000Y-62000D02*
X-49000Y-53000D01*
X-54500Y-64000D02*
X-45000Y-54500D01*
X23500Y-177500D02*
X38287Y-162713D01*
Y-152953D01*
X22500Y-174000D02*
X31988Y-164512D01*
Y-152953D01*
X21500Y-171000D02*
X28839Y-163661D01*
Y-152953D01*
X25689Y-162811D02*
Y-152953D01*
X22539Y-161961D02*
Y-152953D01*
X-58500Y-53000D02*
Y-6000D01*
X-53500Y-52500D02*
Y3500D01*
X-49000Y-53000D02*
Y-1500D01*
X-45000Y-54500D02*
Y22500D01*
X-37926Y-142574D02*
Y-77088D01*
X-41500Y-145000D02*
Y-76008D01*
X-37862Y-72369D01*
X-41500Y-145000D02*
X-37000Y-149500D01*
X-31000Y-61714D02*
X-30516Y-61230D01*
Y-58254D01*
Y-34500D02*
X-26000D01*
X-33396Y-147104D02*
X4896D01*
X7500Y-147500D02*
X44001D01*
X5500Y-149500D02*
X7500Y-147500D01*
X-37000Y-149500D02*
X5500D01*
X-37926Y-142574D02*
X-33396Y-147104D01*
X4896D02*
X7000Y-145000D01*
X49000D01*
X-23510Y-67532D02*
X-20541Y-70500D01*
X-30366Y-48634D02*
X-12168Y-66832D01*
X-8168D01*
X55500Y-142500D02*
X57185Y-144185D01*
X57500Y-140000D02*
X60335Y-142835D01*
X49000Y-145000D02*
X50886Y-146886D01*
Y-152953D02*
Y-146886D01*
X44587Y-152953D02*
Y-148086D01*
X44001Y-147500D02*
X44587Y-148086D01*
X41469Y-158468D02*
Y-152984D01*
X41437Y-152953D02*
X41469Y-152984D01*
Y-158468D02*
X41500Y-158500D01*
X47618Y-153071D02*
X47736Y-152953D01*
X47500Y-159000D02*
X47618Y-158882D01*
Y-153071D01*
X54018Y-160482D02*
Y-152971D01*
X54000Y-160500D02*
X54018Y-160482D01*
Y-152971D02*
X54035Y-152953D01*
X57185D02*
Y-144185D01*
X60335Y-152953D02*
Y-142835D01*
X-29500Y-43500D02*
X-24000Y-49000D01*
X-21500D01*
X-29500Y-43500D02*
Y-39000D01*
X-23510Y-43909D02*
X-23444Y-43975D01*
X-21025D01*
X57185Y-134449D02*
Y-128185D01*
X54035Y-134449D02*
Y-128535D01*
X69784Y-134449D02*
Y-124784D01*
X60335Y-134449D02*
Y-127335D01*
X76083Y-134449D02*
Y-124583D01*
X66634Y-134449D02*
Y-124634D01*
X63500Y-134433D02*
Y-126833D01*
X72933Y-134449D02*
Y-124433D01*
X-30255Y-29884D02*
X-26116D01*
X-8500Y-26000D02*
Y27500D01*
Y-26000D02*
X2500Y-37000D01*
X-16000Y-28000D02*
Y-20500D01*
X-11500Y-27500D02*
Y-19000D01*
X-19500Y-28500D02*
Y-14848D01*
X2500Y-37000D02*
X72500D01*
X-23510Y-28490D02*
Y-25012D01*
X-6000Y-25000D02*
Y61500D01*
Y-25000D02*
X-3000Y-28000D01*
X45000D01*
X57500Y-98500D02*
X61000D01*
X62195Y-106695D02*
Y-103579D01*
X61000Y-98500D02*
X67000Y-104500D01*
Y-108500D02*
Y-104500D01*
X84700Y-94871D02*
X98130Y-108301D01*
X-23510Y-10839D02*
X-19500Y-14848D01*
X-15000Y-15500D02*
X-11500Y-19000D01*
X72500Y-37000D02*
X76083Y-33417D01*
X-11000Y30000D02*
X-8500Y27500D01*
X-6000Y61500D02*
X-3500Y64000D01*
X63484Y-134449D02*
X63500Y-134433D01*
X66685Y-140791D02*
X66736Y-140740D01*
X66685Y-152902D02*
Y-140791D01*
X73002Y-152884D02*
Y-140601D01*
X73071Y-140531D01*
X72933Y-152953D02*
X73002Y-152884D01*
X69784Y-152953D02*
X69814Y-152923D01*
Y-147314D02*
X69843Y-147284D01*
X69814Y-152923D02*
Y-147314D01*
X66634Y-152953D02*
X66685Y-152902D01*
X63441Y-152909D02*
X63484Y-152953D01*
X63397Y-147186D02*
X63441Y-147229D01*
Y-152909D02*
Y-147229D01*
X79232Y-152953D02*
Y-143232D01*
X76083Y-152953D02*
Y-146083D01*
X76000Y-146000D02*
X76083Y-146083D01*
X82500Y-152835D02*
Y-146000D01*
X82382Y-152953D02*
X82500Y-152835D01*
X85532Y-152953D02*
Y-143032D01*
X85500Y-143000D02*
X85532Y-143032D01*
X88681Y-152953D02*
Y-146181D01*
X85532Y-134449D02*
Y-115532D01*
X88681Y-134449D02*
Y-113181D01*
X101279Y-134449D02*
Y-106280D01*
X90500Y-95500D02*
X101279Y-106280D01*
X98130Y-134449D02*
Y-108301D01*
X71340Y-104132D02*
X84132D01*
X91831Y-134449D02*
Y-111831D01*
X84132Y-104132D02*
X91831Y-111831D01*
X67165Y-99957D02*
X71340Y-104132D01*
X94980Y-134449D02*
Y-110480D01*
X76736Y-99075D02*
X83575D01*
X94980Y-110480D01*
X90826Y62984D02*
X91000Y62810D01*
Y59500D02*
Y62810D01*
X69984Y62984D02*
X85963D01*
X28839Y4586D02*
Y9252D01*
X29424Y4000D02*
X72564D01*
X75959Y605D01*
X28839Y4586D02*
X29424Y4000D01*
X60409Y-9178D02*
Y998D01*
X60483Y1072D01*
X69836Y-3177D02*
X72526Y-487D01*
X69836Y-9199D02*
Y-3177D01*
X72981Y-9204D02*
Y-4006D01*
X73030Y-3957D01*
X69784Y-9252D02*
X69836Y-9199D01*
X72933Y-9252D02*
X72981Y-9204D01*
X63398Y-9166D02*
X63484Y-9252D01*
X63398Y-9166D02*
Y-2040D01*
X63311Y-1954D02*
X63398Y-2040D01*
X57091Y-9158D02*
Y-2564D01*
X56998Y-2470D02*
X57091Y-2564D01*
Y-9158D02*
X57185Y-9252D01*
X60335D02*
X60409Y-9178D01*
X35862Y28863D02*
X69984Y62984D01*
X73829Y28829D02*
X83389D01*
X54035Y-9252D02*
Y-4035D01*
X54000Y-4000D02*
X54035Y-4035D01*
X57185Y15832D02*
X72947Y31594D01*
X57185Y9252D02*
Y15832D01*
X60335Y9252D02*
Y15335D01*
X73829Y28829D01*
X54035Y9252D02*
Y16067D01*
X72291Y34323D02*
X88733D01*
X54035Y16067D02*
X72291Y34323D01*
X72947Y31594D02*
X85968D01*
X73252Y24764D02*
X84632D01*
X63484Y14996D02*
X73252Y24764D01*
X63484Y9252D02*
Y14996D01*
X72966Y14966D02*
X75500Y17500D01*
X72966Y9285D02*
Y14966D01*
X75500Y17500D02*
X92414D01*
X69784Y9252D02*
Y14784D01*
X71000Y16000D01*
X74500Y19500D02*
X88543D01*
X71000Y16000D02*
Y16000D01*
X74500Y19500D01*
X66634Y9252D02*
Y14634D01*
X69000Y17000D01*
Y17000D02*
X73500Y21500D01*
X85883D01*
X69000Y17000D02*
Y17000D01*
X71665Y38984D02*
X137516D01*
X140000Y36500D01*
X50886Y18205D02*
X71665Y38984D01*
X70823Y41045D02*
X143731D01*
X145051Y39725D01*
X47736Y17958D02*
X70823Y41045D01*
X76083Y9252D02*
Y13927D01*
X77155Y15000D01*
X72933Y9252D02*
X72966Y9285D01*
X77155Y15000D02*
X94500D01*
X87500Y23117D02*
Y27266D01*
X85883Y21500D02*
X87500Y23117D01*
X90500Y21457D02*
Y29500D01*
X88543Y19500D02*
X90500Y21457D01*
X92414Y17500D02*
X93000Y18086D01*
Y32500D01*
X96500Y17000D02*
Y35500D01*
X94500Y15000D02*
X96500Y17000D01*
X38287Y18287D02*
X67835Y47835D01*
X44587Y18087D02*
X69660Y43160D01*
X68442Y45442D02*
X148691D01*
X150554Y43579D01*
X67835Y47835D02*
X150353D01*
X69660Y43160D02*
X146347D01*
X147546Y41960D01*
X41437Y18437D02*
X68442Y45442D01*
X150353Y47835D02*
X153057Y45131D01*
X125500Y3500D02*
X127500D01*
X122000Y0D02*
X125500Y3500D01*
X122000Y-35500D02*
Y0D01*
X101279Y9252D02*
X108748D01*
X116624Y-36154D02*
Y1376D01*
X108748Y9252D02*
X116624Y1376D01*
X94980Y2148D02*
X96452Y676D01*
X101501D01*
X109300Y-7122D01*
X94980Y2148D02*
Y9252D01*
X95000Y-2000D02*
X100941D01*
X106721Y-7780D01*
Y-49602D02*
Y-7780D01*
X109300Y-45250D02*
Y-7122D01*
X112060Y-41608D02*
Y-6711D01*
X99000Y3000D02*
X102349D01*
X112060Y-6711D01*
X114452Y-44000D02*
X126500D01*
X112060Y-41608D02*
X114452Y-44000D01*
X112531Y-48481D02*
X122745D01*
X109300Y-45250D02*
X112531Y-48481D01*
X110565Y-53446D02*
X126016D01*
X106721Y-49602D02*
X110565Y-53446D01*
X150554Y22253D02*
Y43579D01*
X147546Y26932D02*
Y41960D01*
X152487Y50172D02*
X155781Y46878D01*
X156189Y52500D02*
X158734Y49955D01*
X140000Y36500D02*
X142000D01*
X145051Y31396D02*
Y39725D01*
X153057Y17539D02*
Y45131D01*
X66672Y50172D02*
X152487D01*
X66000Y52500D02*
X156189D01*
X30514Y28863D02*
X35862D01*
X34841Y24341D02*
X68789Y58289D01*
X28948Y24341D02*
X34841D01*
X31988Y9252D02*
Y18488D01*
X66000Y52500D01*
X35138Y9252D02*
Y18638D01*
X66672Y50172D01*
X50886Y9252D02*
Y18205D01*
X47736Y9252D02*
Y17958D01*
X68789Y58289D02*
X89789D01*
X64609Y61109D02*
Y61217D01*
X48500Y45000D02*
X64609Y61109D01*
X34249Y45000D02*
X48500D01*
X48250Y47750D02*
X57459Y56959D01*
X33656Y47750D02*
X48250D01*
X57459Y56959D02*
Y59633D01*
X44587Y9252D02*
Y18087D01*
X41437Y9252D02*
Y18437D01*
X38287Y9252D02*
Y18287D01*
X16240Y30334D02*
X33656Y47750D01*
X22539Y33290D02*
X34249Y45000D01*
X33198Y51400D02*
X47383D01*
X13091Y31292D02*
X33198Y51400D01*
X32739Y55000D02*
X50551D01*
X9941Y32202D02*
X32739Y55000D01*
X89789Y58289D02*
X91000Y59500D01*
X9941Y9252D02*
Y32202D01*
X13091Y9252D02*
Y31292D01*
X16240Y9252D02*
Y30334D01*
X22539Y9252D02*
Y33290D01*
X57401Y59691D02*
X57459Y59633D01*
X7998Y46998D02*
X19381D01*
X6000Y45000D02*
X7998Y46998D01*
X1858Y51345D02*
X23543D01*
X0Y49487D02*
X1858Y51345D01*
X33570Y58774D02*
X50097D01*
X32500Y59844D02*
Y60000D01*
Y59844D02*
X33570Y58774D01*
X27636Y64000D02*
X62201D01*
X22636Y59000D02*
X27636Y64000D01*
X824Y59000D02*
X22636D01*
X-3500Y-7500D02*
Y54676D01*
X824Y59000D01*
X62201Y64000D02*
X62236Y63965D01*
X0Y6500D02*
Y49487D01*
X6000Y5000D02*
Y45000D01*
X19390Y4390D02*
Y9252D01*
X6000Y5000D02*
X8000Y3000D01*
X18000D01*
X19390Y4390D01*
X0Y6500D02*
X6000Y500D01*
X-3500Y-7500D02*
X-1748Y-9252D01*
X9941D01*
X13045Y-9207D02*
Y-3066D01*
X13000Y-3021D02*
X13045Y-3066D01*
Y-9207D02*
X13091Y-9252D01*
X22539Y-18528D02*
X23125Y-19114D01*
X22539Y-18528D02*
Y-9252D01*
X23125Y-19114D02*
X30832D01*
X16240Y-16760D02*
Y-9252D01*
X14172Y-18828D02*
X16240Y-16760D01*
X5854Y-18828D02*
X14172D01*
X6000Y500D02*
X22500D01*
X25689Y3689D02*
Y9252D01*
X22500Y500D02*
X25689Y3689D01*
X-3500Y64000D02*
X15000D01*
X41469Y-16468D02*
Y-9284D01*
Y-16468D02*
X41500Y-16500D01*
X41437Y-9252D02*
X41469Y-9284D01*
X28919Y-3081D02*
X29000Y-3000D01*
X28839Y-3161D02*
X28919Y-3081D01*
X76083Y-33417D02*
Y-9252D01*
X65500Y-31000D02*
Y-30738D01*
X66634Y-29604D02*
Y-9252D01*
X65500Y-30738D02*
X66634Y-29604D01*
X50886Y-9252D02*
X50943Y-9309D01*
Y-30943D02*
X51000Y-31000D01*
X50943Y-30943D02*
Y-9309D01*
X122745Y-48481D02*
X122870Y-48606D01*
X98130Y-52630D02*
X105721Y-60221D01*
X109099D01*
X103975Y-63475D02*
X114101D01*
X94980Y-54480D02*
X103975Y-63475D01*
X85532Y-1469D02*
Y9252D01*
X79000Y-1500D02*
X79232Y-1268D01*
Y9252D01*
X82382Y1118D02*
X82500Y1000D01*
X82382Y1118D02*
Y9252D01*
X88681Y1181D02*
Y9252D01*
X91831Y1169D02*
X95000Y-2000D01*
X91831Y1169D02*
Y9252D01*
X98130Y3870D02*
Y9252D01*
Y3870D02*
X99000Y3000D01*
X98130Y-52630D02*
Y-9252D01*
X94980Y-54480D02*
Y-9252D01*
X101390Y-49390D02*
Y-9362D01*
X101279Y-9252D02*
X101390Y-9362D01*
Y-49390D02*
X101500Y-49500D01*
X91831Y-57831D02*
Y-9252D01*
Y-57831D02*
X95500Y-61500D01*
X123624Y-80129D02*
Y-72500D01*
X88681Y-61181D02*
Y-9252D01*
Y-61181D02*
X95000Y-67500D01*
X118500D01*
X123500Y-72500D01*
X123624D01*
X92000Y-70500D02*
X115500D01*
X85532Y-64031D02*
X92000Y-70500D01*
X115500D02*
X119000Y-74000D01*
Y-78500D02*
Y-74000D01*
X85532Y-64031D02*
Y-9252D01*
X89500Y-74500D02*
X100000D01*
X82382Y-67382D02*
Y-9252D01*
Y-67382D02*
X89500Y-74500D01*
X85500Y-78000D02*
X104500D01*
X79232Y-71732D02*
Y-9252D01*
Y-71732D02*
X85500Y-78000D01*
X47736Y-25264D02*
Y-9252D01*
X45000Y-28000D02*
X47736Y-25264D01*
X35069Y-3069D02*
X35138Y-3138D01*
X35000Y-3000D02*
X35069Y-3069D01*
X44587Y-9252D02*
Y-3087D01*
X44500Y-3000D02*
X44587Y-3087D01*
X38287Y-3213D02*
X38500Y-3000D01*
X38287Y-9252D02*
Y-3213D01*
X35138Y-9252D02*
Y-3138D01*
X31988Y-3012D02*
X32000Y-3000D01*
X31988Y-9252D02*
Y-3012D01*
X28839Y-9252D02*
Y-3161D01*
X25689Y-9252D02*
Y-3189D01*
X25500Y-3000D02*
X25689Y-3189D01*
X19395Y-23861D02*
X19399Y-23866D01*
X19390Y-9252D02*
X19395Y-9257D01*
Y-23861D02*
Y-9257D01*
D33*
X-47500Y-158000D02*
X-41500Y-164000D01*
X16000D01*
X19390Y-160610D01*
X-9000Y-133000D02*
X5000D01*
X6449Y-134449D02*
X9941D01*
X5000Y-133000D02*
X6449Y-134449D01*
X9941D02*
X13091D01*
X-39000Y-161000D02*
X14500D01*
X-44000Y-156000D02*
Y-69500D01*
Y-156000D02*
X-39000Y-161000D01*
X-47500Y-158000D02*
Y-68500D01*
X-34000Y12701D02*
X-33954Y12746D01*
X-34000Y-59500D02*
Y12701D01*
X-37474Y8077D02*
X-37419Y8021D01*
Y-58419D02*
Y8021D01*
X-47500Y-68500D02*
X-37419Y-58419D01*
X-44000Y-69500D02*
X-34000Y-59500D01*
X19390Y-160610D02*
Y-152953D01*
X14500Y-161000D02*
X16240Y-159260D01*
Y-152953D01*
D34*
X83500Y86000D02*
D03*
X141500Y-119000D02*
D03*
D35*
X53500Y86000D02*
D03*
D36*
X141500Y-149000D02*
D03*
D37*
X76313Y-115516D02*
D03*
X-13000Y-156000D02*
D03*
X-5000Y-155500D02*
D03*
X3000D02*
D03*
X52871Y-94871D02*
D03*
X-29500Y81500D02*
D03*
X-48000Y82000D02*
D03*
X-63000Y81500D02*
D03*
X-74500Y82000D02*
D03*
X158734Y7929D02*
D03*
X155781Y12632D02*
D03*
X-9000Y-133000D02*
D03*
X1000Y77000D02*
D03*
X-32500Y60000D02*
D03*
X-47000Y50500D02*
D03*
X-47292Y74167D02*
D03*
X-62867Y25133D02*
D03*
X-65475Y43025D02*
D03*
X-13692Y-118441D02*
D03*
Y-125214D02*
D03*
Y-112000D02*
D03*
Y-105066D02*
D03*
X-17500Y-129000D02*
D03*
Y-121500D02*
D03*
Y-97500D02*
D03*
Y-101500D02*
D03*
Y-115000D02*
D03*
Y-108500D02*
D03*
X-33954Y12746D02*
D03*
X-37474Y8077D02*
D03*
X-58500Y-6000D02*
D03*
X-53500Y3500D02*
D03*
X-49000Y-1500D02*
D03*
X-39500Y17500D02*
D03*
X-45000Y22500D02*
D03*
X-37926Y-77088D02*
D03*
X-37862Y-72369D02*
D03*
X-28516Y-62743D02*
D03*
X-30516Y-34500D02*
D03*
Y-58254D02*
D03*
X-23510Y-67532D02*
D03*
X41500Y-158500D02*
D03*
X47500Y-159000D02*
D03*
X54000Y-160500D02*
D03*
X-30366Y-48634D02*
D03*
X-29500Y-39000D02*
D03*
X-23510Y-43909D02*
D03*
X57500Y-98500D02*
D03*
X62195Y-103579D02*
D03*
X71500Y-108000D02*
D03*
X-30255Y-29884D02*
D03*
X-23510Y-25012D02*
D03*
Y-10839D02*
D03*
X-16000Y-20500D02*
D03*
X-15000Y-15500D02*
D03*
X66736Y-140740D02*
D03*
X73071Y-140531D02*
D03*
X69843Y-147284D02*
D03*
X63397Y-147186D02*
D03*
X79232Y-143232D02*
D03*
X82500Y-146000D02*
D03*
X88681Y-146181D02*
D03*
X76000Y-146000D02*
D03*
X85500Y-143000D02*
D03*
X67165Y-99957D02*
D03*
X76736Y-99075D02*
D03*
X90500Y-95500D02*
D03*
X90826Y62984D02*
D03*
X85963D02*
D03*
X60483Y1072D02*
D03*
X72526Y-487D02*
D03*
X73030Y-3957D02*
D03*
X63311Y-1954D02*
D03*
X56998Y-2470D02*
D03*
X83455Y28829D02*
D03*
X54000Y-4000D02*
D03*
X75959Y605D02*
D03*
X88733Y34323D02*
D03*
X85968Y31594D02*
D03*
X84632Y24764D02*
D03*
X87500Y27266D02*
D03*
X90500Y29500D02*
D03*
X93000Y32500D02*
D03*
X96500Y35500D02*
D03*
X127500Y3500D02*
D03*
X122000Y-35500D02*
D03*
X116624Y-36154D02*
D03*
X150554Y22253D02*
D03*
X147546Y26932D02*
D03*
X142000Y36500D02*
D03*
X145051Y31396D02*
D03*
X153057Y17539D02*
D03*
X64609Y61217D02*
D03*
X47383Y51400D02*
D03*
X57401Y59691D02*
D03*
X19381Y46998D02*
D03*
X23543Y51345D02*
D03*
X50551Y55000D02*
D03*
X50097Y58774D02*
D03*
X30514Y28863D02*
D03*
X62236Y63965D02*
D03*
X32500Y60000D02*
D03*
X13000Y-3021D02*
D03*
X30832Y-19114D02*
D03*
X5854Y-18828D02*
D03*
X15000Y64000D02*
D03*
X41500Y-16500D02*
D03*
X28948Y24341D02*
D03*
X-11000Y30000D02*
D03*
X65500Y-31000D02*
D03*
X51000D02*
D03*
X122870Y-48606D02*
D03*
X126016Y-53446D02*
D03*
X126500Y-44000D02*
D03*
X109099Y-60221D02*
D03*
X114101Y-63475D02*
D03*
X82500Y1000D02*
D03*
X85532Y-1469D02*
D03*
X88681Y1181D02*
D03*
X79232Y-1268D02*
D03*
X101500Y-49500D02*
D03*
X95500Y-61500D02*
D03*
X104500Y-78000D02*
D03*
X123624Y-80129D02*
D03*
X119000Y-78500D02*
D03*
X100000Y-74500D02*
D03*
X44587Y-3087D02*
D03*
X38287Y-3213D02*
D03*
X35069Y-3069D02*
D03*
X31988Y-3012D02*
D03*
X28919Y-3081D02*
D03*
X25500Y-3000D02*
D03*
X19399Y-23866D02*
D03*
D38*
X9941Y-134449D02*
D03*
X13091D02*
D03*
X16240Y-134449D02*
D03*
X19390D02*
D03*
X22539D02*
D03*
X25689Y-134449D02*
D03*
X28839D02*
D03*
X31988D02*
D03*
X35138D02*
D03*
X38287Y-134449D02*
D03*
X41437Y-134449D02*
D03*
X44587D02*
D03*
X47736D02*
D03*
X50886D02*
D03*
X54035D02*
D03*
X57185Y-134449D02*
D03*
X60335Y-134449D02*
D03*
X63484D02*
D03*
X66634D02*
D03*
X69784D02*
D03*
X72933D02*
D03*
X76083Y-134449D02*
D03*
X79232D02*
D03*
X82382Y-134449D02*
D03*
X85532D02*
D03*
X88681D02*
D03*
X91831Y-134449D02*
D03*
X94980D02*
D03*
X98130D02*
D03*
X101279Y-152953D02*
D03*
X98130D02*
D03*
X94980D02*
D03*
X91831D02*
D03*
X88681D02*
D03*
X85532D02*
D03*
X82382D02*
D03*
X79232D02*
D03*
X76083D02*
D03*
X72933D02*
D03*
X69784D02*
D03*
X66634D02*
D03*
X63484D02*
D03*
X60335D02*
D03*
X57185D02*
D03*
X54035D02*
D03*
X50886D02*
D03*
X47736D02*
D03*
X44587D02*
D03*
X41437D02*
D03*
X38287D02*
D03*
X35138D02*
D03*
X31988D02*
D03*
X28839D02*
D03*
X25689D02*
D03*
X22539D02*
D03*
X19390D02*
D03*
X16240D02*
D03*
X13091D02*
D03*
X9941D02*
D03*
X101279Y-134449D02*
D03*
X9941Y9252D02*
D03*
X13091D02*
D03*
X16240Y9252D02*
D03*
X19390D02*
D03*
X22539D02*
D03*
X25689Y9252D02*
D03*
X28839D02*
D03*
X31988D02*
D03*
X35138D02*
D03*
X38287Y9252D02*
D03*
X41437Y9252D02*
D03*
X44587D02*
D03*
X47736D02*
D03*
X50886D02*
D03*
X54035D02*
D03*
X57185Y9252D02*
D03*
X60335Y9252D02*
D03*
X63484D02*
D03*
X66634D02*
D03*
X69784D02*
D03*
X72933D02*
D03*
X76083Y9252D02*
D03*
X79232D02*
D03*
X82382Y9252D02*
D03*
X85532D02*
D03*
X88681D02*
D03*
X91831Y9252D02*
D03*
X94980D02*
D03*
X98130D02*
D03*
X101279Y-9252D02*
D03*
X98130D02*
D03*
X94980D02*
D03*
X91831D02*
D03*
X88681D02*
D03*
X85532D02*
D03*
X82382D02*
D03*
X79232D02*
D03*
X76083D02*
D03*
X72933D02*
D03*
X69784D02*
D03*
X66634D02*
D03*
X63484D02*
D03*
X60335D02*
D03*
X57185D02*
D03*
X54035D02*
D03*
X50886D02*
D03*
X47736D02*
D03*
X44587D02*
D03*
X41437D02*
D03*
X38287D02*
D03*
X35138D02*
D03*
X31988D02*
D03*
X28839D02*
D03*
X25689D02*
D03*
X22539D02*
D03*
X19390D02*
D03*
X16240D02*
D03*
X13091D02*
D03*
X9941D02*
D03*
X101279Y9252D02*
D03*
M02*
