G04*
G04 #@! TF.GenerationSoftware,Altium Limited,Altium Designer,22.1.2 (22)*
G04*
G04 Layer_Color=65535*
%FSLAX25Y25*%
%MOIN*%
G70*
G04*
G04 #@! TF.SameCoordinates,691D6CEF-7681-4429-9CE0-D2776B591AA1*
G04*
G04*
G04 #@! TF.FilePolarity,Positive*
G04*
G01*
G75*
%ADD10C,0.00787*%
%ADD11C,0.01000*%
%ADD12C,0.01968*%
%ADD13C,0.00500*%
%ADD14C,0.00984*%
%ADD15R,0.06000X0.04000*%
%ADD16R,0.04000X0.06000*%
G36*
X-37219Y-172202D02*
X-37571Y-172452D01*
Y-172461D01*
Y-172470D01*
Y-172526D01*
Y-172618D01*
Y-172730D01*
Y-172878D01*
Y-173035D01*
Y-173211D01*
X-37562Y-173386D01*
Y-173775D01*
Y-173960D01*
X-37552Y-174145D01*
Y-174320D01*
X-37543Y-174469D01*
Y-174607D01*
X-37534Y-174718D01*
X-38024Y-174894D01*
Y-174542D01*
X-39208D01*
Y-175801D01*
X-37395D01*
X-36970Y-175384D01*
X-36341Y-176004D01*
X-38792D01*
Y-176013D01*
X-38783Y-176032D01*
X-38764Y-176069D01*
X-38746Y-176115D01*
X-38718Y-176180D01*
X-38681Y-176254D01*
X-38635Y-176337D01*
X-38588Y-176429D01*
X-38468Y-176642D01*
X-38320Y-176883D01*
X-38144Y-177151D01*
X-37932Y-177428D01*
X-37922Y-177438D01*
X-37904Y-177465D01*
X-37867Y-177503D01*
X-37821Y-177549D01*
X-37765Y-177613D01*
X-37691Y-177678D01*
X-37608Y-177761D01*
X-37506Y-177845D01*
X-37404Y-177928D01*
X-37284Y-178021D01*
X-37155Y-178104D01*
X-37016Y-178196D01*
X-36868Y-178279D01*
X-36711Y-178354D01*
X-36553Y-178428D01*
X-36378Y-178492D01*
Y-178594D01*
X-36396D01*
X-36452Y-178603D01*
X-36535Y-178622D01*
X-36637Y-178649D01*
X-36748Y-178696D01*
X-36868Y-178751D01*
X-36979Y-178834D01*
X-37081Y-178936D01*
X-37090Y-178927D01*
X-37118Y-178909D01*
X-37164Y-178872D01*
X-37219Y-178816D01*
X-37284Y-178751D01*
X-37367Y-178677D01*
X-37451Y-178594D01*
X-37552Y-178492D01*
X-37756Y-178270D01*
X-37959Y-178030D01*
X-38163Y-177761D01*
X-38255Y-177613D01*
X-38339Y-177475D01*
Y-177465D01*
X-38357Y-177438D01*
X-38376Y-177401D01*
X-38403Y-177345D01*
X-38440Y-177271D01*
X-38477Y-177197D01*
X-38524Y-177105D01*
X-38570Y-177003D01*
X-38672Y-176781D01*
X-38783Y-176531D01*
X-38875Y-176272D01*
X-38968Y-176004D01*
X-39208D01*
Y-176013D01*
Y-176032D01*
Y-176069D01*
Y-176124D01*
Y-176189D01*
Y-176263D01*
Y-176346D01*
Y-176439D01*
Y-176652D01*
Y-176901D01*
Y-177170D01*
X-39199Y-177447D01*
Y-178021D01*
Y-178298D01*
X-39190Y-178566D01*
Y-178816D01*
X-39180Y-179029D01*
Y-179130D01*
Y-179214D01*
X-39171Y-179288D01*
Y-179352D01*
X-39698Y-179602D01*
Y-179593D01*
Y-179556D01*
Y-179510D01*
X-39689Y-179427D01*
Y-179325D01*
Y-179195D01*
X-39680Y-179047D01*
Y-178862D01*
Y-178649D01*
X-39671Y-178409D01*
Y-178141D01*
Y-177836D01*
X-39661Y-177503D01*
Y-177132D01*
Y-176725D01*
Y-176291D01*
X-39671Y-176300D01*
X-39689Y-176337D01*
X-39717Y-176392D01*
X-39763Y-176467D01*
X-39809Y-176559D01*
X-39874Y-176661D01*
X-39948Y-176781D01*
X-40031Y-176901D01*
X-40216Y-177188D01*
X-40429Y-177484D01*
X-40660Y-177780D01*
X-40910Y-178067D01*
X-40919Y-178076D01*
X-40938Y-178094D01*
X-40975Y-178141D01*
X-41030Y-178187D01*
X-41095Y-178252D01*
X-41169Y-178326D01*
X-41262Y-178409D01*
X-41354Y-178492D01*
X-41465Y-178585D01*
X-41585Y-178686D01*
X-41854Y-178890D01*
X-42140Y-179094D01*
X-42464Y-179288D01*
X-42529Y-179177D01*
X-42520Y-179167D01*
X-42492Y-179149D01*
X-42446Y-179112D01*
X-42390Y-179066D01*
X-42316Y-179010D01*
X-42224Y-178936D01*
X-42131Y-178853D01*
X-42020Y-178761D01*
X-41909Y-178649D01*
X-41780Y-178529D01*
X-41659Y-178400D01*
X-41530Y-178261D01*
X-41391Y-178104D01*
X-41262Y-177946D01*
X-41123Y-177771D01*
X-40993Y-177586D01*
X-40984Y-177576D01*
X-40966Y-177540D01*
X-40929Y-177484D01*
X-40882Y-177419D01*
X-40827Y-177336D01*
X-40762Y-177234D01*
X-40688Y-177123D01*
X-40614Y-177003D01*
X-40466Y-176753D01*
X-40318Y-176485D01*
X-40179Y-176235D01*
X-40133Y-176115D01*
X-40087Y-176004D01*
X-41724D01*
X-42177Y-176078D01*
X-42464Y-175801D01*
X-39661D01*
Y-174542D01*
X-40781D01*
Y-174857D01*
X-41308Y-175033D01*
Y-175023D01*
Y-175005D01*
Y-174959D01*
X-41299Y-174913D01*
Y-174848D01*
Y-174765D01*
X-41289Y-174681D01*
Y-174580D01*
Y-174469D01*
X-41280Y-174348D01*
Y-174089D01*
X-41271Y-173802D01*
Y-173497D01*
Y-173488D01*
Y-173460D01*
Y-173414D01*
Y-173349D01*
Y-173275D01*
Y-173183D01*
Y-173081D01*
Y-172970D01*
X-41280Y-172850D01*
Y-172720D01*
X-41289Y-172433D01*
X-41299Y-172137D01*
X-41308Y-171823D01*
X-40744Y-172100D01*
X-38089D01*
X-37747Y-171749D01*
X-37219Y-172202D01*
D02*
G37*
G36*
X13489Y-172239D02*
X13295D01*
X13193Y-172248D01*
X13091Y-172258D01*
X12860Y-172276D01*
X12842D01*
X12823Y-172285D01*
X12786D01*
X12740Y-172295D01*
X12675Y-172304D01*
X12601Y-172322D01*
X12499Y-172332D01*
X12388Y-172350D01*
X12250Y-172369D01*
X12092Y-172397D01*
X11917Y-172424D01*
X11713Y-172452D01*
X11482Y-172480D01*
X11223Y-172517D01*
X10936Y-172554D01*
Y-174580D01*
X12758D01*
X13175Y-174163D01*
X13804Y-174783D01*
X12684D01*
Y-177789D01*
Y-177808D01*
Y-177836D01*
Y-177863D01*
Y-177910D01*
Y-177965D01*
Y-178030D01*
X12694Y-178113D01*
Y-178206D01*
Y-178307D01*
Y-178428D01*
X12703Y-178557D01*
Y-178696D01*
X12712Y-178853D01*
Y-179029D01*
X12721Y-179214D01*
X12194Y-179464D01*
Y-179454D01*
Y-179436D01*
Y-179408D01*
Y-179371D01*
Y-179325D01*
Y-179260D01*
X12203Y-179195D01*
Y-179112D01*
Y-179019D01*
Y-178918D01*
Y-178807D01*
Y-178696D01*
X12213Y-178428D01*
Y-178131D01*
Y-177808D01*
X12222Y-177447D01*
Y-177058D01*
Y-176652D01*
X12231Y-176217D01*
Y-175754D01*
Y-175283D01*
Y-174783D01*
X10936D01*
Y-174792D01*
Y-174811D01*
Y-174838D01*
Y-174875D01*
Y-174931D01*
Y-174996D01*
Y-175144D01*
Y-175320D01*
Y-175532D01*
X10927Y-175754D01*
X10918Y-176004D01*
X10899Y-176254D01*
X10871Y-176522D01*
X10797Y-177040D01*
X10751Y-177290D01*
X10696Y-177521D01*
X10622Y-177734D01*
X10538Y-177928D01*
X10529Y-177937D01*
X10520Y-177965D01*
X10492Y-178021D01*
X10446Y-178085D01*
X10400Y-178168D01*
X10335Y-178261D01*
X10252Y-178372D01*
X10168Y-178492D01*
X10067Y-178622D01*
X9956Y-178761D01*
X9826Y-178899D01*
X9687Y-179047D01*
X9530Y-179195D01*
X9364Y-179343D01*
X9179Y-179491D01*
X8984Y-179639D01*
X8873Y-179528D01*
X8883Y-179519D01*
X8910Y-179500D01*
X8947Y-179464D01*
X8994Y-179417D01*
X9058Y-179352D01*
X9123Y-179288D01*
X9206Y-179204D01*
X9290Y-179121D01*
X9465Y-178918D01*
X9641Y-178705D01*
X9808Y-178474D01*
X9891Y-178363D01*
X9956Y-178243D01*
Y-178233D01*
X9974Y-178215D01*
X9993Y-178178D01*
X10011Y-178131D01*
X10039Y-178076D01*
X10076Y-178002D01*
X10104Y-177919D01*
X10141Y-177836D01*
X10215Y-177623D01*
X10289Y-177392D01*
X10344Y-177123D01*
X10390Y-176846D01*
Y-176837D01*
Y-176809D01*
X10400Y-176762D01*
X10409Y-176707D01*
Y-176624D01*
X10418Y-176531D01*
X10427Y-176411D01*
X10437Y-176281D01*
X10446Y-176134D01*
X10455Y-175976D01*
X10464Y-175801D01*
Y-175597D01*
X10474Y-175393D01*
X10483Y-175162D01*
Y-174922D01*
Y-174663D01*
Y-174644D01*
Y-174598D01*
Y-174524D01*
Y-174422D01*
Y-174302D01*
Y-174154D01*
Y-173987D01*
Y-173812D01*
X10474Y-173617D01*
Y-173414D01*
X10464Y-172988D01*
X10455Y-172535D01*
X10446Y-172100D01*
X10899Y-172378D01*
X10908D01*
X10936Y-172369D01*
X10973Y-172360D01*
X11019Y-172350D01*
X11084Y-172341D01*
X11158Y-172322D01*
X11334Y-172285D01*
X11528Y-172239D01*
X11732Y-172184D01*
X11944Y-172128D01*
X12139Y-172064D01*
X12148D01*
X12157Y-172054D01*
X12185Y-172045D01*
X12222Y-172036D01*
X12314Y-171999D01*
X12425Y-171943D01*
X12555Y-171888D01*
X12694Y-171814D01*
X12814Y-171730D01*
X12934Y-171647D01*
X13489Y-172239D01*
D02*
G37*
G36*
X141777Y-171444D02*
X141805Y-171453D01*
X141851Y-171472D01*
X141962Y-171509D01*
X142092Y-171564D01*
X142240Y-171629D01*
X142379Y-171694D01*
X142517Y-171767D01*
X142619Y-171842D01*
X142628Y-171851D01*
X142656Y-171879D01*
X142693Y-171915D01*
X142739Y-171971D01*
X142776Y-172027D01*
X142804Y-172100D01*
X142823Y-172184D01*
X142813Y-172267D01*
Y-172276D01*
X142804Y-172304D01*
X142786Y-172341D01*
X142767Y-172387D01*
X142702Y-172498D01*
X142656Y-172545D01*
X142601Y-172591D01*
X142591D01*
X142573Y-172600D01*
X142545D01*
X142508Y-172591D01*
X142462Y-172563D01*
X142406Y-172517D01*
X142388Y-172480D01*
X142360Y-172433D01*
X142332Y-172378D01*
X142305Y-172313D01*
X142295Y-172295D01*
X142268Y-172248D01*
X142221Y-172175D01*
X142157Y-172073D01*
X142073Y-171952D01*
X141962Y-171823D01*
X141833Y-171684D01*
X141676Y-171546D01*
X141750Y-171434D01*
X141759D01*
X141777Y-171444D01*
D02*
G37*
G36*
X145875Y-172868D02*
X139474D01*
Y-172887D01*
Y-172933D01*
Y-172998D01*
Y-173100D01*
Y-173220D01*
Y-173359D01*
Y-173516D01*
Y-173682D01*
X139465Y-173867D01*
Y-174062D01*
X139456Y-174469D01*
X139446Y-174894D01*
X139437Y-175301D01*
Y-175310D01*
Y-175347D01*
Y-175403D01*
X139428Y-175486D01*
X139419Y-175578D01*
X139409Y-175689D01*
X139400Y-175819D01*
X139382Y-175958D01*
X139363Y-176115D01*
X139345Y-176281D01*
X139289Y-176633D01*
X139206Y-177012D01*
X139104Y-177401D01*
Y-177410D01*
X139086Y-177447D01*
X139067Y-177503D01*
X139049Y-177576D01*
X139012Y-177669D01*
X138965Y-177780D01*
X138910Y-177910D01*
X138854Y-178048D01*
X138780Y-178206D01*
X138697Y-178372D01*
X138605Y-178548D01*
X138503Y-178733D01*
X138392Y-178927D01*
X138262Y-179130D01*
X138124Y-179334D01*
X137976Y-179537D01*
X137874Y-179464D01*
X137883Y-179445D01*
X137902Y-179408D01*
X137939Y-179343D01*
X137985Y-179260D01*
X138040Y-179149D01*
X138105Y-179029D01*
X138170Y-178881D01*
X138244Y-178733D01*
X138318Y-178557D01*
X138392Y-178381D01*
X138540Y-178011D01*
X138669Y-177613D01*
X138716Y-177419D01*
X138762Y-177225D01*
Y-177216D01*
X138771Y-177179D01*
X138780Y-177123D01*
X138790Y-177040D01*
X138808Y-176947D01*
X138827Y-176837D01*
X138845Y-176707D01*
X138864Y-176559D01*
X138882Y-176392D01*
X138901Y-176226D01*
X138910Y-176041D01*
X138928Y-175847D01*
X138956Y-175431D01*
X138965Y-174987D01*
Y-174968D01*
Y-174931D01*
Y-174866D01*
Y-174774D01*
Y-174663D01*
X138975Y-174533D01*
Y-174376D01*
Y-174209D01*
Y-174015D01*
Y-173812D01*
Y-173599D01*
X138965Y-173368D01*
Y-173127D01*
Y-172878D01*
X138956Y-172350D01*
X139474Y-172665D01*
X144617D01*
X145135Y-172137D01*
X145875Y-172868D01*
D02*
G37*
G36*
X132093Y-172831D02*
X131815Y-173081D01*
Y-175949D01*
Y-175967D01*
Y-176023D01*
Y-176106D01*
Y-176217D01*
Y-176356D01*
Y-176504D01*
Y-176670D01*
X131824Y-176846D01*
Y-177216D01*
Y-177392D01*
X131834Y-177567D01*
Y-177734D01*
X131843Y-177882D01*
Y-178011D01*
X131852Y-178113D01*
X131325Y-178391D01*
Y-177688D01*
X129891D01*
Y-178428D01*
X129373Y-178705D01*
Y-178696D01*
Y-178649D01*
Y-178585D01*
X129382Y-178492D01*
Y-178381D01*
Y-178233D01*
Y-178058D01*
X129392Y-177863D01*
Y-177641D01*
Y-177392D01*
Y-177114D01*
X129401Y-176818D01*
Y-176485D01*
Y-176134D01*
Y-175754D01*
Y-175347D01*
Y-175338D01*
Y-175320D01*
Y-175292D01*
Y-175245D01*
Y-175199D01*
Y-175135D01*
Y-174987D01*
Y-174811D01*
Y-174607D01*
Y-174385D01*
Y-174145D01*
X129392Y-173654D01*
Y-173414D01*
Y-173183D01*
X129382Y-172961D01*
Y-172766D01*
Y-172591D01*
X129373Y-172517D01*
Y-172452D01*
X129928Y-172730D01*
X131260D01*
X131538Y-172378D01*
X132093Y-172831D01*
D02*
G37*
G36*
X69831Y-171472D02*
X69859Y-171490D01*
X69896Y-171509D01*
X69997Y-171564D01*
X70127Y-171629D01*
X70256Y-171712D01*
X70386Y-171795D01*
X70506Y-171879D01*
X70599Y-171962D01*
X70608Y-171971D01*
X70636Y-171999D01*
X70663Y-172036D01*
X70710Y-172082D01*
X70747Y-172147D01*
X70774Y-172212D01*
X70802Y-172276D01*
X70811Y-172341D01*
Y-172350D01*
Y-172369D01*
X70802Y-172406D01*
X70793Y-172452D01*
X70774Y-172517D01*
X70756Y-172582D01*
X70719Y-172655D01*
X70673Y-172730D01*
X70663Y-172739D01*
X70654Y-172757D01*
X70626Y-172794D01*
X70599Y-172831D01*
X70562Y-172868D01*
X70525Y-172905D01*
X70497Y-172924D01*
X70469Y-172933D01*
X73300D01*
X73577Y-172582D01*
X74206Y-173173D01*
X74178D01*
X74151Y-173183D01*
X74114Y-173201D01*
X74067Y-173211D01*
X74012Y-173238D01*
X73947Y-173275D01*
X73873Y-173312D01*
X73799Y-173359D01*
X73707Y-173423D01*
X73623Y-173488D01*
X73531Y-173571D01*
X73429Y-173673D01*
X73327Y-173784D01*
X73226Y-173914D01*
X73124Y-174052D01*
X73013Y-173978D01*
X73364Y-173136D01*
X67565D01*
Y-173146D01*
X67574Y-173183D01*
X67592Y-173229D01*
X67602Y-173294D01*
X67629Y-173423D01*
X67639Y-173479D01*
Y-173525D01*
Y-173534D01*
Y-173562D01*
X67629Y-173599D01*
X67620Y-173654D01*
X67592Y-173719D01*
X67565Y-173784D01*
X67518Y-173858D01*
X67463Y-173932D01*
X67454Y-173941D01*
X67435Y-173960D01*
X67398Y-173987D01*
X67343Y-174024D01*
X67278Y-174052D01*
X67213Y-174080D01*
X67130Y-174089D01*
X67028D01*
X67000Y-174080D01*
X66963Y-174071D01*
X66917Y-174062D01*
X66871Y-174043D01*
X66834Y-174024D01*
X66806Y-174006D01*
X66797Y-173978D01*
Y-173969D01*
Y-173960D01*
X66806Y-173914D01*
X66825Y-173858D01*
X66862Y-173802D01*
X66871Y-173793D01*
X66889Y-173766D01*
X66926Y-173719D01*
X66963Y-173664D01*
X67010Y-173590D01*
X67065Y-173497D01*
X67111Y-173396D01*
X67158Y-173284D01*
X67167Y-173266D01*
X67176Y-173229D01*
X67204Y-173164D01*
X67232Y-173072D01*
X67259Y-172961D01*
X67296Y-172822D01*
X67324Y-172674D01*
X67352Y-172508D01*
X67528D01*
X67565Y-172933D01*
X70469D01*
X70451Y-172924D01*
X70432Y-172915D01*
X70404Y-172887D01*
X70377Y-172850D01*
X70349Y-172785D01*
X70321Y-172702D01*
X70293Y-172582D01*
Y-172572D01*
X70284Y-172563D01*
X70275Y-172535D01*
X70266Y-172498D01*
X70229Y-172397D01*
X70173Y-172267D01*
X70099Y-172110D01*
X69997Y-171934D01*
X69877Y-171740D01*
X69729Y-171536D01*
X69803Y-171462D01*
X69812D01*
X69831Y-171472D01*
D02*
G37*
G36*
X-60215Y-171518D02*
X-60178Y-171536D01*
X-60132Y-171564D01*
X-60067Y-171601D01*
X-59984Y-171657D01*
X-59900Y-171712D01*
X-59715Y-171842D01*
X-59521Y-171990D01*
X-59429Y-172064D01*
X-59345Y-172137D01*
X-59271Y-172212D01*
X-59216Y-172276D01*
X-59170Y-172341D01*
X-59151Y-172406D01*
Y-172415D01*
X-59142Y-172452D01*
X-59133Y-172508D01*
Y-172582D01*
X-59142Y-172655D01*
X-59160Y-172739D01*
X-59197Y-172822D01*
X-59253Y-172896D01*
X-59262Y-172905D01*
X-59281Y-172924D01*
X-59308Y-172951D01*
X-59345Y-172988D01*
X-59429Y-173053D01*
X-59466Y-173072D01*
X-59493Y-173081D01*
X-59512Y-173072D01*
X-59530Y-173063D01*
X-59558Y-173035D01*
X-59586Y-172998D01*
X-59623Y-172933D01*
X-59669Y-172850D01*
X-59706Y-172730D01*
Y-172720D01*
X-59715Y-172711D01*
X-59725Y-172683D01*
X-59734Y-172646D01*
X-59752Y-172600D01*
X-59780Y-172535D01*
X-59836Y-172406D01*
X-59919Y-172230D01*
X-60030Y-172036D01*
X-60169Y-171823D01*
X-60335Y-171582D01*
X-60224Y-171509D01*
X-60215Y-171518D01*
D02*
G37*
G36*
X80949Y-171666D02*
X80986Y-171684D01*
X81042Y-171712D01*
X81097Y-171749D01*
X81162Y-171795D01*
X81319Y-171888D01*
X81477Y-171990D01*
X81643Y-172091D01*
X81782Y-172202D01*
X81847Y-172248D01*
X81893Y-172295D01*
X81902Y-172304D01*
X81930Y-172332D01*
X81967Y-172378D01*
X82013Y-172433D01*
X82050Y-172498D01*
X82078Y-172582D01*
X82096Y-172665D01*
X82087Y-172748D01*
Y-172757D01*
X82078Y-172785D01*
X82069Y-172822D01*
X82050Y-172878D01*
X81985Y-172979D01*
X81948Y-173035D01*
X81902Y-173072D01*
X81893D01*
X81884Y-173081D01*
X81828Y-173109D01*
X81773Y-173146D01*
X81745Y-173155D01*
X81717D01*
X81708Y-173146D01*
X81680Y-173136D01*
X81652Y-173118D01*
X81615Y-173081D01*
X81578Y-173035D01*
X81541Y-172961D01*
X81514Y-172868D01*
X81504Y-172850D01*
X81486Y-172794D01*
X81449Y-172711D01*
X81393Y-172582D01*
X81301Y-172424D01*
X81181Y-172239D01*
X81107Y-172128D01*
X81023Y-172008D01*
X80922Y-171888D01*
X80820Y-171749D01*
X80922Y-171647D01*
X80931D01*
X80949Y-171666D01*
D02*
G37*
G36*
X124434Y-171823D02*
X124156Y-172073D01*
Y-173294D01*
X126284D01*
X126635Y-172942D01*
X127125Y-173433D01*
X126811Y-173673D01*
Y-173682D01*
Y-173701D01*
Y-173738D01*
Y-173793D01*
Y-173858D01*
Y-173932D01*
Y-174024D01*
Y-174117D01*
Y-174339D01*
Y-174589D01*
Y-174866D01*
X126820Y-175153D01*
Y-175754D01*
Y-176041D01*
X126829Y-176319D01*
Y-176577D01*
X126839Y-176809D01*
Y-176910D01*
Y-177003D01*
X126848Y-177086D01*
Y-177160D01*
X126321Y-177410D01*
Y-176985D01*
X124156D01*
Y-178566D01*
Y-178585D01*
X124165Y-178622D01*
X124175Y-178686D01*
X124212Y-178751D01*
X124258Y-178816D01*
X124332Y-178881D01*
X124434Y-178918D01*
X124498Y-178936D01*
X126996D01*
X127033Y-178927D01*
X127088Y-178909D01*
X127144Y-178881D01*
X127209Y-178834D01*
X127264Y-178770D01*
X127310Y-178686D01*
X127329Y-178576D01*
Y-178557D01*
Y-178539D01*
X127338Y-178511D01*
Y-178464D01*
X127347Y-178418D01*
Y-178363D01*
X127357Y-178289D01*
Y-178206D01*
X127366Y-178104D01*
Y-177993D01*
X127375Y-177873D01*
X127384Y-177734D01*
X127394Y-177586D01*
Y-177419D01*
X127403Y-177234D01*
X127579D01*
Y-177243D01*
Y-177271D01*
Y-177318D01*
Y-177373D01*
Y-177447D01*
X127588Y-177521D01*
X127597Y-177706D01*
X127606Y-177900D01*
X127634Y-178085D01*
X127643Y-178178D01*
X127662Y-178261D01*
X127680Y-178326D01*
X127699Y-178391D01*
X127708Y-178400D01*
X127717Y-178437D01*
X127754Y-178483D01*
X127791Y-178548D01*
X127847Y-178622D01*
X127902Y-178696D01*
X127986Y-178770D01*
X128069Y-178834D01*
X128060Y-178844D01*
X128041Y-178881D01*
X128013Y-178927D01*
X127976Y-178992D01*
X127921Y-179057D01*
X127865Y-179121D01*
X127791Y-179177D01*
X127717Y-179232D01*
X127708Y-179242D01*
X127680Y-179251D01*
X127634Y-179269D01*
X127560Y-179297D01*
X127477Y-179325D01*
X127375Y-179343D01*
X127264Y-179352D01*
X127125Y-179362D01*
X124369D01*
X124332Y-179352D01*
X124286D01*
X124165Y-179325D01*
X124036Y-179279D01*
X123962Y-179242D01*
X123897Y-179195D01*
X123832Y-179140D01*
X123777Y-179066D01*
X123731Y-178992D01*
X123694Y-178899D01*
X123675Y-178788D01*
X123666Y-178668D01*
Y-176985D01*
X121566D01*
Y-177475D01*
X121048Y-177725D01*
Y-177706D01*
Y-177669D01*
Y-177604D01*
X121057Y-177521D01*
Y-177410D01*
Y-177280D01*
Y-177132D01*
X121067Y-176975D01*
Y-176790D01*
Y-176605D01*
Y-176402D01*
X121076Y-176189D01*
Y-175745D01*
Y-175283D01*
Y-175264D01*
Y-175227D01*
Y-175162D01*
Y-175070D01*
Y-174959D01*
Y-174829D01*
Y-174681D01*
Y-174524D01*
X121067Y-174348D01*
Y-174163D01*
Y-173784D01*
X121057Y-173377D01*
X121048Y-172979D01*
X121603Y-173294D01*
X123666D01*
Y-173284D01*
Y-173248D01*
Y-173192D01*
Y-173118D01*
Y-173035D01*
Y-172924D01*
Y-172813D01*
Y-172683D01*
X123657Y-172545D01*
Y-172397D01*
X123647Y-172082D01*
X123638Y-171758D01*
X123629Y-171434D01*
X124434Y-171823D01*
D02*
G37*
G36*
X97572D02*
X97294Y-172073D01*
Y-173294D01*
X99422D01*
X99773Y-172942D01*
X100263Y-173433D01*
X99949Y-173673D01*
Y-173682D01*
Y-173701D01*
Y-173738D01*
Y-173793D01*
Y-173858D01*
Y-173932D01*
Y-174024D01*
Y-174117D01*
Y-174339D01*
Y-174589D01*
Y-174866D01*
X99958Y-175153D01*
Y-175754D01*
Y-176041D01*
X99967Y-176319D01*
Y-176577D01*
X99977Y-176809D01*
Y-176910D01*
Y-177003D01*
X99986Y-177086D01*
Y-177160D01*
X99459Y-177410D01*
Y-176985D01*
X97294D01*
Y-178566D01*
Y-178585D01*
X97303Y-178622D01*
X97313Y-178686D01*
X97350Y-178751D01*
X97396Y-178816D01*
X97470Y-178881D01*
X97572Y-178918D01*
X97636Y-178936D01*
X100134D01*
X100171Y-178927D01*
X100226Y-178909D01*
X100282Y-178881D01*
X100347Y-178834D01*
X100402Y-178770D01*
X100448Y-178686D01*
X100467Y-178576D01*
Y-178557D01*
Y-178539D01*
X100476Y-178511D01*
Y-178464D01*
X100485Y-178418D01*
Y-178363D01*
X100495Y-178289D01*
Y-178206D01*
X100504Y-178104D01*
Y-177993D01*
X100513Y-177873D01*
X100522Y-177734D01*
X100532Y-177586D01*
Y-177419D01*
X100541Y-177234D01*
X100717D01*
Y-177243D01*
Y-177271D01*
Y-177318D01*
Y-177373D01*
Y-177447D01*
X100726Y-177521D01*
X100735Y-177706D01*
X100744Y-177900D01*
X100772Y-178085D01*
X100781Y-178178D01*
X100800Y-178261D01*
X100818Y-178326D01*
X100837Y-178391D01*
X100846Y-178400D01*
X100855Y-178437D01*
X100892Y-178483D01*
X100929Y-178548D01*
X100985Y-178622D01*
X101040Y-178696D01*
X101124Y-178770D01*
X101207Y-178834D01*
X101198Y-178844D01*
X101179Y-178881D01*
X101151Y-178927D01*
X101114Y-178992D01*
X101059Y-179057D01*
X101003Y-179121D01*
X100929Y-179177D01*
X100855Y-179232D01*
X100846Y-179242D01*
X100818Y-179251D01*
X100772Y-179269D01*
X100698Y-179297D01*
X100615Y-179325D01*
X100513Y-179343D01*
X100402Y-179352D01*
X100263Y-179362D01*
X97507D01*
X97470Y-179352D01*
X97424D01*
X97303Y-179325D01*
X97174Y-179279D01*
X97100Y-179242D01*
X97035Y-179195D01*
X96970Y-179140D01*
X96915Y-179066D01*
X96869Y-178992D01*
X96832Y-178899D01*
X96813Y-178788D01*
X96804Y-178668D01*
Y-176985D01*
X94704D01*
Y-177475D01*
X94186Y-177725D01*
Y-177706D01*
Y-177669D01*
Y-177604D01*
X94195Y-177521D01*
Y-177410D01*
Y-177280D01*
Y-177132D01*
X94205Y-176975D01*
Y-176790D01*
Y-176605D01*
Y-176402D01*
X94214Y-176189D01*
Y-175745D01*
Y-175283D01*
Y-175264D01*
Y-175227D01*
Y-175162D01*
Y-175070D01*
Y-174959D01*
Y-174829D01*
Y-174681D01*
Y-174524D01*
X94205Y-174348D01*
Y-174163D01*
Y-173784D01*
X94195Y-173377D01*
X94186Y-172979D01*
X94741Y-173294D01*
X96804D01*
Y-173284D01*
Y-173248D01*
Y-173192D01*
Y-173118D01*
Y-173035D01*
Y-172924D01*
Y-172813D01*
Y-172683D01*
X96795Y-172545D01*
Y-172397D01*
X96785Y-172082D01*
X96776Y-171758D01*
X96767Y-171434D01*
X97572Y-171823D01*
D02*
G37*
G36*
X-67051D02*
X-67328Y-172073D01*
Y-173294D01*
X-65201D01*
X-64849Y-172942D01*
X-64359Y-173433D01*
X-64673Y-173673D01*
Y-173682D01*
Y-173701D01*
Y-173738D01*
Y-173793D01*
Y-173858D01*
Y-173932D01*
Y-174024D01*
Y-174117D01*
Y-174339D01*
Y-174589D01*
Y-174866D01*
X-64664Y-175153D01*
Y-175754D01*
Y-176041D01*
X-64655Y-176319D01*
Y-176577D01*
X-64646Y-176809D01*
Y-176910D01*
Y-177003D01*
X-64636Y-177086D01*
Y-177160D01*
X-65164Y-177410D01*
Y-176985D01*
X-67328D01*
Y-178566D01*
Y-178585D01*
X-67319Y-178622D01*
X-67310Y-178686D01*
X-67273Y-178751D01*
X-67226Y-178816D01*
X-67152Y-178881D01*
X-67051Y-178918D01*
X-66986Y-178936D01*
X-64488D01*
X-64451Y-178927D01*
X-64396Y-178909D01*
X-64340Y-178881D01*
X-64276Y-178834D01*
X-64220Y-178770D01*
X-64174Y-178686D01*
X-64155Y-178576D01*
Y-178557D01*
Y-178539D01*
X-64146Y-178511D01*
Y-178464D01*
X-64137Y-178418D01*
Y-178363D01*
X-64128Y-178289D01*
Y-178206D01*
X-64118Y-178104D01*
Y-177993D01*
X-64109Y-177873D01*
X-64100Y-177734D01*
X-64091Y-177586D01*
Y-177419D01*
X-64081Y-177234D01*
X-63906D01*
Y-177243D01*
Y-177271D01*
Y-177318D01*
Y-177373D01*
Y-177447D01*
X-63896Y-177521D01*
X-63887Y-177706D01*
X-63878Y-177900D01*
X-63850Y-178085D01*
X-63841Y-178178D01*
X-63822Y-178261D01*
X-63804Y-178326D01*
X-63785Y-178391D01*
X-63776Y-178400D01*
X-63767Y-178437D01*
X-63730Y-178483D01*
X-63693Y-178548D01*
X-63637Y-178622D01*
X-63582Y-178696D01*
X-63499Y-178770D01*
X-63415Y-178834D01*
X-63425Y-178844D01*
X-63443Y-178881D01*
X-63471Y-178927D01*
X-63508Y-178992D01*
X-63563Y-179057D01*
X-63619Y-179121D01*
X-63693Y-179177D01*
X-63767Y-179232D01*
X-63776Y-179242D01*
X-63804Y-179251D01*
X-63850Y-179269D01*
X-63924Y-179297D01*
X-64007Y-179325D01*
X-64109Y-179343D01*
X-64220Y-179352D01*
X-64359Y-179362D01*
X-67115D01*
X-67152Y-179352D01*
X-67199D01*
X-67319Y-179325D01*
X-67448Y-179279D01*
X-67522Y-179242D01*
X-67587Y-179195D01*
X-67652Y-179140D01*
X-67707Y-179066D01*
X-67754Y-178992D01*
X-67791Y-178899D01*
X-67809Y-178788D01*
X-67818Y-178668D01*
Y-176985D01*
X-69918D01*
Y-177475D01*
X-70436Y-177725D01*
Y-177706D01*
Y-177669D01*
Y-177604D01*
X-70427Y-177521D01*
Y-177410D01*
Y-177280D01*
Y-177132D01*
X-70418Y-176975D01*
Y-176790D01*
Y-176605D01*
Y-176402D01*
X-70408Y-176189D01*
Y-175745D01*
Y-175283D01*
Y-175264D01*
Y-175227D01*
Y-175162D01*
Y-175070D01*
Y-174959D01*
Y-174829D01*
Y-174681D01*
Y-174524D01*
X-70418Y-174348D01*
Y-174163D01*
Y-173784D01*
X-70427Y-173377D01*
X-70436Y-172979D01*
X-69881Y-173294D01*
X-67818D01*
Y-173284D01*
Y-173248D01*
Y-173192D01*
Y-173118D01*
Y-173035D01*
Y-172924D01*
Y-172813D01*
Y-172683D01*
X-67828Y-172545D01*
Y-172397D01*
X-67837Y-172082D01*
X-67846Y-171758D01*
X-67855Y-171434D01*
X-67051Y-171823D01*
D02*
G37*
G36*
X80330Y-171888D02*
X80080Y-172175D01*
Y-172184D01*
Y-172202D01*
Y-172230D01*
Y-172276D01*
Y-172322D01*
Y-172387D01*
X80089Y-172461D01*
Y-172535D01*
X80098Y-172730D01*
X80108Y-172942D01*
X80126Y-173173D01*
X80154Y-173433D01*
X82078D01*
X82568Y-172942D01*
X83262Y-173636D01*
X80154D01*
Y-173645D01*
Y-173664D01*
X80163Y-173691D01*
Y-173738D01*
X80172Y-173793D01*
X80182Y-173858D01*
Y-173932D01*
X80200Y-174015D01*
X80219Y-174200D01*
X80246Y-174413D01*
X80283Y-174653D01*
X80330Y-174913D01*
X80376Y-175171D01*
X80422Y-175449D01*
X80487Y-175717D01*
X80552Y-175986D01*
X80626Y-176244D01*
X80709Y-176485D01*
X80792Y-176698D01*
X80885Y-176892D01*
Y-176883D01*
X80894Y-176874D01*
X80912Y-176846D01*
X80931Y-176818D01*
X80986Y-176725D01*
X81060Y-176596D01*
X81144Y-176439D01*
X81236Y-176254D01*
X81338Y-176041D01*
X81440Y-175810D01*
Y-175801D01*
X81449Y-175782D01*
X81467Y-175745D01*
X81486Y-175689D01*
X81514Y-175625D01*
X81541Y-175551D01*
X81578Y-175468D01*
X81615Y-175375D01*
X81662Y-175264D01*
X81708Y-175153D01*
X81800Y-174894D01*
X81902Y-174607D01*
X82004Y-174302D01*
X82735Y-174866D01*
X82420Y-175042D01*
X82411Y-175060D01*
X82392Y-175107D01*
X82365Y-175181D01*
X82318Y-175283D01*
X82263Y-175403D01*
X82198Y-175541D01*
X82124Y-175699D01*
X82050Y-175865D01*
X81958Y-176050D01*
X81865Y-176235D01*
X81652Y-176633D01*
X81430Y-177022D01*
X81319Y-177207D01*
X81199Y-177382D01*
X81208Y-177392D01*
X81236Y-177419D01*
X81273Y-177465D01*
X81329Y-177521D01*
X81393Y-177595D01*
X81477Y-177678D01*
X81569Y-177761D01*
X81671Y-177863D01*
X81782Y-177956D01*
X81902Y-178067D01*
X82161Y-178261D01*
X82439Y-178446D01*
X82587Y-178529D01*
X82735Y-178603D01*
X83160Y-177095D01*
X83299Y-177132D01*
Y-177142D01*
X83290Y-177179D01*
Y-177234D01*
X83280Y-177308D01*
X83271Y-177392D01*
X83253Y-177493D01*
X83243Y-177604D01*
X83234Y-177715D01*
X83206Y-177956D01*
X83179Y-178196D01*
X83169Y-178307D01*
Y-178400D01*
X83160Y-178492D01*
Y-178566D01*
Y-178585D01*
Y-178622D01*
X83169Y-178686D01*
X83179Y-178779D01*
X83206Y-178881D01*
X83234Y-178992D01*
X83280Y-179103D01*
X83336Y-179223D01*
Y-179232D01*
X83345Y-179242D01*
X83354Y-179288D01*
X83345Y-179315D01*
X83336Y-179343D01*
X83308Y-179352D01*
X83262Y-179362D01*
X83216D01*
X83151Y-179352D01*
X83058Y-179334D01*
X82938Y-179297D01*
X82781Y-179260D01*
X82688Y-179223D01*
X82587Y-179195D01*
X82476Y-179158D01*
X82355Y-179112D01*
X82346D01*
X82328Y-179103D01*
X82291Y-179084D01*
X82235Y-179057D01*
X82170Y-179019D01*
X82096Y-178982D01*
X82013Y-178927D01*
X81911Y-178853D01*
X81810Y-178779D01*
X81689Y-178686D01*
X81560Y-178576D01*
X81430Y-178455D01*
X81282Y-178316D01*
X81134Y-178159D01*
X80977Y-177993D01*
X80820Y-177798D01*
X80811Y-177808D01*
X80774Y-177845D01*
X80709Y-177900D01*
X80635Y-177983D01*
X80533Y-178076D01*
X80413Y-178178D01*
X80274Y-178298D01*
X80117Y-178418D01*
X79950Y-178557D01*
X79765Y-178696D01*
X79571Y-178834D01*
X79358Y-178973D01*
X79146Y-179103D01*
X78914Y-179232D01*
X78683Y-179352D01*
X78443Y-179464D01*
X78406Y-179325D01*
X78424Y-179315D01*
X78470Y-179288D01*
X78535Y-179232D01*
X78637Y-179167D01*
X78748Y-179084D01*
X78887Y-178982D01*
X79035Y-178872D01*
X79192Y-178751D01*
X79368Y-178612D01*
X79543Y-178464D01*
X79719Y-178307D01*
X79895Y-178141D01*
X80061Y-177965D01*
X80228Y-177780D01*
X80385Y-177595D01*
X80533Y-177410D01*
X80524Y-177392D01*
X80505Y-177345D01*
X80468Y-177271D01*
X80422Y-177170D01*
X80367Y-177040D01*
X80302Y-176874D01*
X80237Y-176679D01*
X80163Y-176457D01*
X80080Y-176207D01*
X80006Y-175921D01*
X79932Y-175616D01*
X79858Y-175273D01*
X79793Y-174913D01*
X79728Y-174515D01*
X79673Y-174089D01*
X79627Y-173636D01*
X76870D01*
X76833Y-175320D01*
X78443D01*
X78757Y-174968D01*
X79275Y-175458D01*
X78961Y-175699D01*
Y-175708D01*
Y-175726D01*
Y-175754D01*
Y-175791D01*
X78951Y-175838D01*
Y-175893D01*
X78942Y-176032D01*
X78933Y-176198D01*
X78924Y-176383D01*
X78905Y-176577D01*
X78887Y-176790D01*
X78850Y-177216D01*
X78822Y-177419D01*
X78803Y-177613D01*
X78776Y-177780D01*
X78748Y-177928D01*
X78711Y-178048D01*
X78702Y-178094D01*
X78683Y-178131D01*
X78674Y-178150D01*
X78646Y-178187D01*
X78600Y-178252D01*
X78535Y-178326D01*
X78443Y-178409D01*
X78332Y-178501D01*
X78184Y-178585D01*
X78017Y-178668D01*
Y-178659D01*
X78008Y-178649D01*
X77999Y-178622D01*
X77989Y-178585D01*
X77943Y-178501D01*
X77906Y-178446D01*
X77860Y-178391D01*
X77804Y-178326D01*
X77740Y-178261D01*
X77666Y-178196D01*
X77573Y-178131D01*
X77471Y-178067D01*
X77360Y-177993D01*
X77222Y-177937D01*
X77074Y-177873D01*
Y-177725D01*
X77101D01*
X77138Y-177734D01*
X77185Y-177743D01*
X77240Y-177752D01*
X77296Y-177761D01*
X77444Y-177780D01*
X77592Y-177808D01*
X77749Y-177836D01*
X77888Y-177854D01*
X77943Y-177863D01*
X77999Y-177873D01*
X78045D01*
X78091Y-177863D01*
X78137Y-177845D01*
X78202Y-177808D01*
X78248Y-177761D01*
X78295Y-177678D01*
X78332Y-177576D01*
Y-177558D01*
X78341Y-177530D01*
Y-177493D01*
X78350Y-177447D01*
X78359Y-177382D01*
X78369Y-177299D01*
X78378Y-177197D01*
X78387Y-177077D01*
X78396Y-176929D01*
X78415Y-176762D01*
X78424Y-176568D01*
X78443Y-176356D01*
X78452Y-176106D01*
X78470Y-175828D01*
X78480Y-175523D01*
X76833D01*
Y-175532D01*
Y-175560D01*
Y-175597D01*
X76824Y-175653D01*
Y-175717D01*
X76815Y-175801D01*
X76805Y-175893D01*
X76796Y-175995D01*
X76787Y-176106D01*
X76768Y-176235D01*
X76731Y-176504D01*
X76676Y-176799D01*
X76611Y-177114D01*
X76528Y-177447D01*
X76426Y-177789D01*
X76306Y-178122D01*
X76167Y-178455D01*
X76010Y-178779D01*
X75816Y-179075D01*
X75603Y-179343D01*
X75492Y-179464D01*
X75362Y-179575D01*
X75298Y-179464D01*
X75307Y-179445D01*
X75335Y-179408D01*
X75381Y-179334D01*
X75436Y-179242D01*
X75510Y-179121D01*
X75584Y-178982D01*
X75668Y-178816D01*
X75760Y-178631D01*
X75843Y-178437D01*
X75927Y-178224D01*
X76010Y-177993D01*
X76084Y-177752D01*
X76149Y-177503D01*
X76195Y-177243D01*
X76232Y-176975D01*
X76250Y-176698D01*
Y-176679D01*
Y-176633D01*
X76260Y-176559D01*
Y-176457D01*
Y-176328D01*
X76269Y-176189D01*
Y-176032D01*
X76278Y-175856D01*
X76287Y-175495D01*
X76297Y-175116D01*
Y-174931D01*
X76306Y-174755D01*
Y-174589D01*
Y-174441D01*
Y-174432D01*
Y-174404D01*
Y-174367D01*
Y-174311D01*
Y-174247D01*
Y-174172D01*
Y-174080D01*
Y-173987D01*
X76297Y-173784D01*
Y-173562D01*
X76287Y-173331D01*
X76278Y-173118D01*
X76907Y-173433D01*
X79590D01*
Y-173423D01*
Y-173377D01*
X79580Y-173321D01*
X79571Y-173238D01*
X79562Y-173146D01*
X79553Y-173026D01*
X79543Y-172896D01*
X79534Y-172757D01*
X79506Y-172461D01*
X79479Y-172147D01*
X79451Y-171832D01*
X79432Y-171675D01*
X79423Y-171536D01*
X80330Y-171888D01*
D02*
G37*
G36*
X-56311Y-171925D02*
X-56321Y-171934D01*
X-56358Y-171943D01*
X-56413Y-171980D01*
X-56487Y-172027D01*
X-56580Y-172091D01*
X-56681Y-172175D01*
X-56811Y-172276D01*
X-56950Y-172406D01*
X-56968Y-172424D01*
X-57014Y-172470D01*
X-57088Y-172545D01*
X-57181Y-172637D01*
X-57283Y-172748D01*
X-57403Y-172878D01*
X-57523Y-173007D01*
X-57643Y-173155D01*
X-55655D01*
X-55127Y-172628D01*
X-54397Y-173359D01*
X-61316D01*
X-61408Y-173368D01*
X-61519D01*
X-61649Y-173386D01*
X-61787Y-173405D01*
X-61935Y-173433D01*
X-62083Y-173469D01*
X-62398Y-173155D01*
X-57856D01*
Y-173146D01*
X-57838Y-173127D01*
X-57828Y-173100D01*
X-57801Y-173063D01*
X-57745Y-172970D01*
X-57671Y-172840D01*
X-57597Y-172702D01*
X-57505Y-172545D01*
X-57421Y-172387D01*
X-57347Y-172230D01*
Y-172221D01*
X-57338Y-172212D01*
X-57310Y-172156D01*
X-57283Y-172082D01*
X-57236Y-171980D01*
X-57181Y-171860D01*
X-57125Y-171721D01*
X-57014Y-171434D01*
X-56311Y-171925D01*
D02*
G37*
G36*
X37206Y-171860D02*
X36892Y-172036D01*
X36790Y-172628D01*
X39056D01*
X39546Y-172100D01*
X40175Y-172831D01*
X36753D01*
X36577Y-173747D01*
X38362D01*
X38603Y-173359D01*
X39167Y-173784D01*
X38880Y-174024D01*
Y-178797D01*
X39408D01*
X39963Y-178279D01*
X40629Y-179010D01*
X33571D01*
X33478Y-179001D01*
X33367D01*
X33238Y-179010D01*
X33099Y-179019D01*
X32951Y-179047D01*
X32803Y-179075D01*
X32526Y-178797D01*
X34274D01*
Y-178788D01*
Y-178751D01*
Y-178686D01*
Y-178603D01*
Y-178501D01*
Y-178381D01*
Y-178243D01*
Y-178085D01*
Y-177919D01*
Y-177734D01*
Y-177540D01*
Y-177336D01*
Y-176901D01*
Y-176448D01*
X34265Y-175986D01*
Y-175523D01*
Y-175070D01*
X34255Y-174635D01*
Y-174432D01*
Y-174247D01*
Y-174062D01*
X34246Y-173895D01*
Y-173747D01*
Y-173608D01*
X34237Y-173497D01*
Y-173396D01*
X34764Y-173747D01*
X36124D01*
X36263Y-172831D01*
X34061D01*
X33969Y-172840D01*
X33858D01*
X33728Y-172859D01*
X33589Y-172878D01*
X33441Y-172905D01*
X33293Y-172942D01*
X32979Y-172628D01*
X36300D01*
Y-172618D01*
Y-172600D01*
X36309Y-172563D01*
Y-172508D01*
X36318Y-172452D01*
Y-172378D01*
X36337Y-172212D01*
X36355Y-172027D01*
X36374Y-171823D01*
X36383Y-171629D01*
X36401Y-171434D01*
X37206Y-171860D01*
D02*
G37*
G36*
X7088Y-172609D02*
X7107Y-172628D01*
X7144Y-172655D01*
X7236Y-172720D01*
X7347Y-172813D01*
X7458Y-172905D01*
X7578Y-173007D01*
X7680Y-173109D01*
X7754Y-173201D01*
X7763Y-173211D01*
X7782Y-173238D01*
X7810Y-173275D01*
X7847Y-173331D01*
X7902Y-173451D01*
X7921Y-173506D01*
X7930Y-173562D01*
Y-173571D01*
Y-173590D01*
X7921Y-173627D01*
X7911Y-173673D01*
X7884Y-173784D01*
X7847Y-173849D01*
X7810Y-173914D01*
X7800Y-173923D01*
X7791Y-173941D01*
X7745Y-173997D01*
X7689Y-174052D01*
X7671Y-174071D01*
X7652Y-174080D01*
X7634Y-174071D01*
X7615Y-174062D01*
X7597Y-174043D01*
X7569Y-174006D01*
X7532Y-173951D01*
X7504Y-173877D01*
X7477Y-173775D01*
Y-173766D01*
X7467Y-173756D01*
Y-173729D01*
X7458Y-173691D01*
X7421Y-173599D01*
X7375Y-173460D01*
X7310Y-173303D01*
X7227Y-173109D01*
X7116Y-172896D01*
X6986Y-172655D01*
X7060Y-172591D01*
X7070D01*
X7088Y-172609D01*
D02*
G37*
G36*
X-11060Y-172230D02*
X-10996D01*
X-10820Y-172248D01*
X-10626Y-172276D01*
X-10422Y-172322D01*
X-10200Y-172378D01*
X-9997Y-172452D01*
X-9987D01*
X-9969Y-172461D01*
X-9941Y-172480D01*
X-9904Y-172498D01*
X-9812Y-172545D01*
X-9691Y-172628D01*
X-9553Y-172720D01*
X-9414Y-172840D01*
X-9284Y-172979D01*
X-9164Y-173136D01*
Y-173146D01*
X-9155Y-173155D01*
X-9136Y-173183D01*
X-9118Y-173211D01*
X-9072Y-173303D01*
X-9016Y-173423D01*
X-8951Y-173571D01*
X-8905Y-173747D01*
X-8859Y-173932D01*
X-8840Y-174135D01*
X-9654Y-174200D01*
Y-174191D01*
Y-174172D01*
X-9664Y-174145D01*
X-9673Y-174099D01*
X-9701Y-173997D01*
X-9738Y-173858D01*
X-9793Y-173710D01*
X-9876Y-173562D01*
X-9978Y-173423D01*
X-10108Y-173294D01*
X-10126Y-173284D01*
X-10172Y-173248D01*
X-10265Y-173192D01*
X-10385Y-173136D01*
X-10542Y-173081D01*
X-10727Y-173026D01*
X-10959Y-172988D01*
X-11218Y-172979D01*
X-11347D01*
X-11403Y-172988D01*
X-11477Y-172998D01*
X-11643Y-173016D01*
X-11828Y-173053D01*
X-12013Y-173100D01*
X-12189Y-173173D01*
X-12263Y-173220D01*
X-12337Y-173266D01*
X-12355Y-173275D01*
X-12392Y-173312D01*
X-12448Y-173377D01*
X-12503Y-173451D01*
X-12568Y-173553D01*
X-12624Y-173664D01*
X-12661Y-173793D01*
X-12679Y-173941D01*
Y-173960D01*
Y-173997D01*
X-12670Y-174062D01*
X-12651Y-174135D01*
X-12624Y-174228D01*
X-12577Y-174320D01*
X-12522Y-174413D01*
X-12439Y-174505D01*
X-12429Y-174515D01*
X-12383Y-174542D01*
X-12346Y-174570D01*
X-12309Y-174589D01*
X-12254Y-174617D01*
X-12189Y-174653D01*
X-12106Y-174681D01*
X-12013Y-174718D01*
X-11911Y-174755D01*
X-11791Y-174802D01*
X-11662Y-174838D01*
X-11514Y-174885D01*
X-11347Y-174922D01*
X-11162Y-174968D01*
X-11153D01*
X-11116Y-174977D01*
X-11060Y-174987D01*
X-10996Y-175005D01*
X-10912Y-175023D01*
X-10811Y-175051D01*
X-10709Y-175079D01*
X-10598Y-175107D01*
X-10357Y-175171D01*
X-10126Y-175236D01*
X-10015Y-175273D01*
X-9913Y-175310D01*
X-9821Y-175338D01*
X-9747Y-175375D01*
X-9738D01*
X-9719Y-175384D01*
X-9691Y-175403D01*
X-9654Y-175421D01*
X-9553Y-175477D01*
X-9432Y-175551D01*
X-9294Y-175653D01*
X-9155Y-175763D01*
X-9025Y-175893D01*
X-8914Y-176032D01*
X-8905Y-176050D01*
X-8868Y-176096D01*
X-8831Y-176180D01*
X-8776Y-176291D01*
X-8729Y-176420D01*
X-8683Y-176577D01*
X-8655Y-176753D01*
X-8646Y-176938D01*
Y-176947D01*
Y-176957D01*
Y-176985D01*
Y-177022D01*
X-8665Y-177123D01*
X-8683Y-177253D01*
X-8720Y-177401D01*
X-8766Y-177558D01*
X-8840Y-177725D01*
X-8942Y-177900D01*
Y-177910D01*
X-8951Y-177919D01*
X-8998Y-177974D01*
X-9062Y-178058D01*
X-9155Y-178150D01*
X-9275Y-178261D01*
X-9423Y-178381D01*
X-9590Y-178492D01*
X-9784Y-178594D01*
X-9793D01*
X-9812Y-178603D01*
X-9839Y-178612D01*
X-9876Y-178631D01*
X-9932Y-178649D01*
X-9997Y-178677D01*
X-10145Y-178714D01*
X-10320Y-178761D01*
X-10533Y-178807D01*
X-10764Y-178834D01*
X-11014Y-178844D01*
X-11162D01*
X-11236Y-178834D01*
X-11319D01*
X-11412Y-178825D01*
X-11523Y-178816D01*
X-11754Y-178779D01*
X-11995Y-178742D01*
X-12235Y-178677D01*
X-12466Y-178594D01*
X-12476D01*
X-12494Y-178585D01*
X-12522Y-178566D01*
X-12559Y-178548D01*
X-12670Y-178492D01*
X-12799Y-178409D01*
X-12947Y-178298D01*
X-13105Y-178168D01*
X-13253Y-178011D01*
X-13391Y-177836D01*
Y-177826D01*
X-13410Y-177808D01*
X-13419Y-177780D01*
X-13447Y-177743D01*
X-13465Y-177697D01*
X-13493Y-177641D01*
X-13558Y-177503D01*
X-13623Y-177327D01*
X-13678Y-177132D01*
X-13715Y-176910D01*
X-13734Y-176679D01*
X-12938Y-176605D01*
Y-176614D01*
Y-176624D01*
X-12929Y-176652D01*
Y-176689D01*
X-12910Y-176772D01*
X-12883Y-176892D01*
X-12846Y-177012D01*
X-12809Y-177151D01*
X-12744Y-177280D01*
X-12679Y-177401D01*
X-12670Y-177410D01*
X-12642Y-177447D01*
X-12596Y-177512D01*
X-12522Y-177576D01*
X-12429Y-177660D01*
X-12328Y-177743D01*
X-12189Y-177826D01*
X-12041Y-177900D01*
X-12032D01*
X-12022Y-177910D01*
X-11995Y-177919D01*
X-11967Y-177928D01*
X-11874Y-177956D01*
X-11754Y-177993D01*
X-11606Y-178030D01*
X-11440Y-178058D01*
X-11255Y-178076D01*
X-11051Y-178085D01*
X-10968D01*
X-10875Y-178076D01*
X-10764Y-178067D01*
X-10635Y-178048D01*
X-10487Y-178030D01*
X-10339Y-177993D01*
X-10200Y-177946D01*
X-10182Y-177937D01*
X-10135Y-177919D01*
X-10071Y-177882D01*
X-9987Y-177845D01*
X-9904Y-177780D01*
X-9812Y-177715D01*
X-9719Y-177641D01*
X-9645Y-177549D01*
X-9636Y-177540D01*
X-9617Y-177503D01*
X-9590Y-177456D01*
X-9553Y-177382D01*
X-9516Y-177308D01*
X-9488Y-177216D01*
X-9469Y-177114D01*
X-9460Y-177003D01*
Y-176994D01*
Y-176947D01*
X-9469Y-176892D01*
X-9479Y-176818D01*
X-9506Y-176744D01*
X-9534Y-176652D01*
X-9580Y-176559D01*
X-9645Y-176476D01*
X-9654Y-176467D01*
X-9682Y-176439D01*
X-9719Y-176402D01*
X-9784Y-176346D01*
X-9858Y-176291D01*
X-9960Y-176226D01*
X-10080Y-176161D01*
X-10219Y-176106D01*
X-10228Y-176096D01*
X-10274Y-176087D01*
X-10348Y-176059D01*
X-10394Y-176050D01*
X-10459Y-176032D01*
X-10524Y-176004D01*
X-10607Y-175986D01*
X-10700Y-175958D01*
X-10811Y-175930D01*
X-10922Y-175902D01*
X-11051Y-175865D01*
X-11199Y-175828D01*
X-11356Y-175791D01*
X-11366D01*
X-11393Y-175782D01*
X-11440Y-175773D01*
X-11495Y-175754D01*
X-11569Y-175736D01*
X-11652Y-175717D01*
X-11837Y-175662D01*
X-12041Y-175597D01*
X-12254Y-175532D01*
X-12439Y-175468D01*
X-12522Y-175431D01*
X-12596Y-175393D01*
X-12605D01*
X-12614Y-175384D01*
X-12670Y-175347D01*
X-12753Y-175301D01*
X-12846Y-175227D01*
X-12957Y-175144D01*
X-13068Y-175042D01*
X-13179Y-174922D01*
X-13271Y-174792D01*
X-13280Y-174774D01*
X-13308Y-174727D01*
X-13345Y-174653D01*
X-13382Y-174561D01*
X-13419Y-174441D01*
X-13456Y-174302D01*
X-13484Y-174154D01*
X-13493Y-173997D01*
Y-173987D01*
Y-173978D01*
Y-173951D01*
Y-173914D01*
X-13475Y-173821D01*
X-13456Y-173701D01*
X-13428Y-173562D01*
X-13382Y-173405D01*
X-13317Y-173248D01*
X-13225Y-173090D01*
Y-173081D01*
X-13216Y-173072D01*
X-13169Y-173016D01*
X-13105Y-172942D01*
X-13021Y-172850D01*
X-12910Y-172748D01*
X-12772Y-172637D01*
X-12605Y-172535D01*
X-12420Y-172443D01*
X-12411D01*
X-12392Y-172433D01*
X-12365Y-172424D01*
X-12328Y-172406D01*
X-12281Y-172387D01*
X-12217Y-172369D01*
X-12078Y-172332D01*
X-11902Y-172295D01*
X-11699Y-172258D01*
X-11486Y-172230D01*
X-11245Y-172221D01*
X-11125D01*
X-11060Y-172230D01*
D02*
G37*
G36*
X-32937D02*
X-32872D01*
X-32696Y-172248D01*
X-32502Y-172276D01*
X-32298Y-172322D01*
X-32076Y-172378D01*
X-31873Y-172452D01*
X-31864D01*
X-31845Y-172461D01*
X-31817Y-172480D01*
X-31780Y-172498D01*
X-31688Y-172545D01*
X-31568Y-172628D01*
X-31429Y-172720D01*
X-31290Y-172840D01*
X-31161Y-172979D01*
X-31040Y-173136D01*
Y-173146D01*
X-31031Y-173155D01*
X-31013Y-173183D01*
X-30994Y-173211D01*
X-30948Y-173303D01*
X-30892Y-173423D01*
X-30828Y-173571D01*
X-30781Y-173747D01*
X-30735Y-173932D01*
X-30717Y-174135D01*
X-31531Y-174200D01*
Y-174191D01*
Y-174172D01*
X-31540Y-174145D01*
X-31549Y-174099D01*
X-31577Y-173997D01*
X-31614Y-173858D01*
X-31669Y-173710D01*
X-31753Y-173562D01*
X-31854Y-173423D01*
X-31984Y-173294D01*
X-32002Y-173284D01*
X-32049Y-173248D01*
X-32141Y-173192D01*
X-32261Y-173136D01*
X-32419Y-173081D01*
X-32604Y-173026D01*
X-32835Y-172988D01*
X-33094Y-172979D01*
X-33223D01*
X-33279Y-172988D01*
X-33353Y-172998D01*
X-33519Y-173016D01*
X-33704Y-173053D01*
X-33889Y-173100D01*
X-34065Y-173173D01*
X-34139Y-173220D01*
X-34213Y-173266D01*
X-34232Y-173275D01*
X-34269Y-173312D01*
X-34324Y-173377D01*
X-34380Y-173451D01*
X-34444Y-173553D01*
X-34500Y-173664D01*
X-34537Y-173793D01*
X-34555Y-173941D01*
Y-173960D01*
Y-173997D01*
X-34546Y-174062D01*
X-34528Y-174135D01*
X-34500Y-174228D01*
X-34454Y-174320D01*
X-34398Y-174413D01*
X-34315Y-174505D01*
X-34306Y-174515D01*
X-34259Y-174542D01*
X-34222Y-174570D01*
X-34185Y-174589D01*
X-34130Y-174617D01*
X-34065Y-174653D01*
X-33982Y-174681D01*
X-33889Y-174718D01*
X-33788Y-174755D01*
X-33667Y-174802D01*
X-33538Y-174838D01*
X-33390Y-174885D01*
X-33223Y-174922D01*
X-33038Y-174968D01*
X-33029D01*
X-32992Y-174977D01*
X-32937Y-174987D01*
X-32872Y-175005D01*
X-32789Y-175023D01*
X-32687Y-175051D01*
X-32585Y-175079D01*
X-32474Y-175107D01*
X-32234Y-175171D01*
X-32002Y-175236D01*
X-31891Y-175273D01*
X-31790Y-175310D01*
X-31697Y-175338D01*
X-31623Y-175375D01*
X-31614D01*
X-31595Y-175384D01*
X-31568Y-175403D01*
X-31531Y-175421D01*
X-31429Y-175477D01*
X-31309Y-175551D01*
X-31170Y-175653D01*
X-31031Y-175763D01*
X-30902Y-175893D01*
X-30791Y-176032D01*
X-30781Y-176050D01*
X-30744Y-176096D01*
X-30707Y-176180D01*
X-30652Y-176291D01*
X-30606Y-176420D01*
X-30559Y-176577D01*
X-30532Y-176753D01*
X-30522Y-176938D01*
Y-176947D01*
Y-176957D01*
Y-176985D01*
Y-177022D01*
X-30541Y-177123D01*
X-30559Y-177253D01*
X-30596Y-177401D01*
X-30643Y-177558D01*
X-30717Y-177725D01*
X-30818Y-177900D01*
Y-177910D01*
X-30828Y-177919D01*
X-30874Y-177974D01*
X-30939Y-178058D01*
X-31031Y-178150D01*
X-31151Y-178261D01*
X-31299Y-178381D01*
X-31466Y-178492D01*
X-31660Y-178594D01*
X-31669D01*
X-31688Y-178603D01*
X-31716Y-178612D01*
X-31753Y-178631D01*
X-31808Y-178649D01*
X-31873Y-178677D01*
X-32021Y-178714D01*
X-32197Y-178761D01*
X-32409Y-178807D01*
X-32641Y-178834D01*
X-32890Y-178844D01*
X-33038D01*
X-33112Y-178834D01*
X-33196D01*
X-33288Y-178825D01*
X-33399Y-178816D01*
X-33630Y-178779D01*
X-33871Y-178742D01*
X-34111Y-178677D01*
X-34343Y-178594D01*
X-34352D01*
X-34370Y-178585D01*
X-34398Y-178566D01*
X-34435Y-178548D01*
X-34546Y-178492D01*
X-34676Y-178409D01*
X-34824Y-178298D01*
X-34981Y-178168D01*
X-35129Y-178011D01*
X-35268Y-177836D01*
Y-177826D01*
X-35286Y-177808D01*
X-35295Y-177780D01*
X-35323Y-177743D01*
X-35342Y-177697D01*
X-35369Y-177641D01*
X-35434Y-177503D01*
X-35499Y-177327D01*
X-35554Y-177132D01*
X-35591Y-176910D01*
X-35610Y-176679D01*
X-34814Y-176605D01*
Y-176614D01*
Y-176624D01*
X-34805Y-176652D01*
Y-176689D01*
X-34787Y-176772D01*
X-34759Y-176892D01*
X-34722Y-177012D01*
X-34685Y-177151D01*
X-34620Y-177280D01*
X-34555Y-177401D01*
X-34546Y-177410D01*
X-34518Y-177447D01*
X-34472Y-177512D01*
X-34398Y-177576D01*
X-34306Y-177660D01*
X-34204Y-177743D01*
X-34065Y-177826D01*
X-33917Y-177900D01*
X-33908D01*
X-33899Y-177910D01*
X-33871Y-177919D01*
X-33843Y-177928D01*
X-33751Y-177956D01*
X-33630Y-177993D01*
X-33482Y-178030D01*
X-33316Y-178058D01*
X-33131Y-178076D01*
X-32927Y-178085D01*
X-32844D01*
X-32752Y-178076D01*
X-32641Y-178067D01*
X-32511Y-178048D01*
X-32363Y-178030D01*
X-32215Y-177993D01*
X-32076Y-177946D01*
X-32058Y-177937D01*
X-32012Y-177919D01*
X-31947Y-177882D01*
X-31864Y-177845D01*
X-31780Y-177780D01*
X-31688Y-177715D01*
X-31595Y-177641D01*
X-31521Y-177549D01*
X-31512Y-177540D01*
X-31494Y-177503D01*
X-31466Y-177456D01*
X-31429Y-177382D01*
X-31392Y-177308D01*
X-31364Y-177216D01*
X-31346Y-177114D01*
X-31336Y-177003D01*
Y-176994D01*
Y-176947D01*
X-31346Y-176892D01*
X-31355Y-176818D01*
X-31383Y-176744D01*
X-31410Y-176652D01*
X-31457Y-176559D01*
X-31521Y-176476D01*
X-31531Y-176467D01*
X-31558Y-176439D01*
X-31595Y-176402D01*
X-31660Y-176346D01*
X-31734Y-176291D01*
X-31836Y-176226D01*
X-31956Y-176161D01*
X-32095Y-176106D01*
X-32104Y-176096D01*
X-32150Y-176087D01*
X-32224Y-176059D01*
X-32271Y-176050D01*
X-32335Y-176032D01*
X-32400Y-176004D01*
X-32483Y-175986D01*
X-32576Y-175958D01*
X-32687Y-175930D01*
X-32798Y-175902D01*
X-32927Y-175865D01*
X-33075Y-175828D01*
X-33233Y-175791D01*
X-33242D01*
X-33270Y-175782D01*
X-33316Y-175773D01*
X-33371Y-175754D01*
X-33445Y-175736D01*
X-33529Y-175717D01*
X-33714Y-175662D01*
X-33917Y-175597D01*
X-34130Y-175532D01*
X-34315Y-175468D01*
X-34398Y-175431D01*
X-34472Y-175393D01*
X-34481D01*
X-34491Y-175384D01*
X-34546Y-175347D01*
X-34629Y-175301D01*
X-34722Y-175227D01*
X-34833Y-175144D01*
X-34944Y-175042D01*
X-35055Y-174922D01*
X-35147Y-174792D01*
X-35157Y-174774D01*
X-35184Y-174727D01*
X-35221Y-174653D01*
X-35258Y-174561D01*
X-35295Y-174441D01*
X-35332Y-174302D01*
X-35360Y-174154D01*
X-35369Y-173997D01*
Y-173987D01*
Y-173978D01*
Y-173951D01*
Y-173914D01*
X-35351Y-173821D01*
X-35332Y-173701D01*
X-35305Y-173562D01*
X-35258Y-173405D01*
X-35194Y-173248D01*
X-35101Y-173090D01*
Y-173081D01*
X-35092Y-173072D01*
X-35046Y-173016D01*
X-34981Y-172942D01*
X-34898Y-172850D01*
X-34787Y-172748D01*
X-34648Y-172637D01*
X-34481Y-172535D01*
X-34296Y-172443D01*
X-34287D01*
X-34269Y-172433D01*
X-34241Y-172424D01*
X-34204Y-172406D01*
X-34158Y-172387D01*
X-34093Y-172369D01*
X-33954Y-172332D01*
X-33778Y-172295D01*
X-33575Y-172258D01*
X-33362Y-172230D01*
X-33122Y-172221D01*
X-33001D01*
X-32937Y-172230D01*
D02*
G37*
G36*
X10104Y-172868D02*
X10094D01*
X10067Y-172878D01*
X10030Y-172905D01*
X9974Y-172933D01*
X9919Y-172970D01*
X9854Y-173026D01*
X9780Y-173100D01*
X9715Y-173183D01*
X9706Y-173192D01*
X9678Y-173229D01*
X9632Y-173303D01*
X9595Y-173349D01*
X9558Y-173405D01*
X9512Y-173469D01*
X9456Y-173544D01*
X9401Y-173627D01*
X9336Y-173729D01*
X9262Y-173830D01*
X9179Y-173951D01*
X9086Y-174080D01*
X8984Y-174228D01*
X8873Y-174154D01*
X8883Y-174145D01*
X8892Y-174108D01*
X8920Y-174043D01*
X8957Y-173969D01*
X8994Y-173877D01*
X9031Y-173766D01*
X9086Y-173645D01*
X9132Y-173516D01*
X9234Y-173238D01*
X9336Y-172951D01*
X9419Y-172674D01*
X9447Y-172535D01*
X9475Y-172415D01*
X10104Y-172868D01*
D02*
G37*
G36*
X-58550Y-174302D02*
X-58827Y-174515D01*
Y-178705D01*
Y-178714D01*
Y-178733D01*
Y-178761D01*
X-58837Y-178797D01*
X-58855Y-178890D01*
X-58901Y-179010D01*
X-58975Y-179149D01*
X-59022Y-179214D01*
X-59077Y-179288D01*
X-59151Y-179352D01*
X-59234Y-179417D01*
X-59327Y-179482D01*
X-59429Y-179537D01*
Y-179528D01*
Y-179519D01*
X-59447Y-179464D01*
X-59484Y-179380D01*
X-59549Y-179288D01*
X-59595Y-179242D01*
X-59641Y-179186D01*
X-59706Y-179140D01*
X-59780Y-179084D01*
X-59863Y-179047D01*
X-59965Y-179001D01*
X-60076Y-178964D01*
X-60196Y-178936D01*
Y-178797D01*
X-60178D01*
X-60122Y-178807D01*
X-60048D01*
X-59956Y-178816D01*
X-59521D01*
X-59493Y-178807D01*
X-59447Y-178788D01*
X-59401Y-178761D01*
X-59364Y-178714D01*
X-59318Y-178640D01*
X-59290Y-178548D01*
X-59281Y-178428D01*
Y-177160D01*
X-60964D01*
Y-179325D01*
X-61454Y-179537D01*
Y-179528D01*
Y-179491D01*
Y-179445D01*
X-61445Y-179380D01*
Y-179297D01*
Y-179214D01*
X-61436Y-179010D01*
X-61427Y-178788D01*
Y-178566D01*
X-61417Y-178464D01*
Y-178372D01*
Y-178289D01*
Y-178215D01*
Y-175181D01*
Y-175171D01*
Y-175144D01*
Y-175107D01*
Y-175051D01*
Y-174987D01*
Y-174913D01*
Y-174737D01*
X-61427Y-174533D01*
X-61436Y-174330D01*
X-61445Y-174117D01*
X-61454Y-173923D01*
X-60964Y-174237D01*
X-59318D01*
X-59077Y-173886D01*
X-58550Y-174302D01*
D02*
G37*
G36*
X72634Y-174505D02*
X68702D01*
X68610Y-174515D01*
X68499D01*
X68379Y-174533D01*
X68240Y-174552D01*
X68110Y-174580D01*
X67981Y-174617D01*
X67666Y-174302D01*
X71579D01*
X72005Y-173886D01*
X72634Y-174505D01*
D02*
G37*
G36*
X63467Y-175375D02*
X65863Y-178733D01*
X64817D01*
X63199Y-176457D01*
X63189Y-176448D01*
X63171Y-176420D01*
X63152Y-176383D01*
X63115Y-176337D01*
X63032Y-176207D01*
X62940Y-176069D01*
X62930Y-176078D01*
X62903Y-176115D01*
X62866Y-176171D01*
X62819Y-176244D01*
X62718Y-176392D01*
X62671Y-176457D01*
X62634Y-176513D01*
X61016Y-178733D01*
X59998D01*
X62468Y-175421D01*
X60285Y-172332D01*
X61293D01*
X62459Y-173978D01*
Y-173987D01*
X62477Y-173997D01*
X62496Y-174024D01*
X62523Y-174062D01*
X62579Y-174154D01*
X62662Y-174265D01*
X62745Y-174395D01*
X62829Y-174524D01*
X62903Y-174644D01*
X62967Y-174755D01*
X62977Y-174737D01*
X63004Y-174700D01*
X63051Y-174626D01*
X63115Y-174533D01*
X63189Y-174432D01*
X63282Y-174302D01*
X63374Y-174172D01*
X63485Y-174034D01*
X64762Y-172332D01*
X65687D01*
X63467Y-175375D01*
D02*
G37*
G36*
X145209Y-173951D02*
X145144D01*
X145061Y-173960D01*
X144950Y-173978D01*
X144821Y-174006D01*
X144663Y-174052D01*
X144497Y-174108D01*
X144312Y-174182D01*
X144303D01*
X144293Y-174191D01*
X144256Y-174209D01*
X144219Y-174228D01*
X144173Y-174247D01*
X144108Y-174284D01*
X144034Y-174320D01*
X143960Y-174357D01*
X143868Y-174413D01*
X143766Y-174469D01*
X143655Y-174524D01*
X143535Y-174598D01*
X143267Y-174746D01*
X142971Y-174931D01*
X142980Y-174940D01*
X142998Y-174968D01*
X143026Y-175005D01*
X143054Y-175060D01*
X143082Y-175116D01*
X143100Y-175181D01*
X143119Y-175255D01*
X143109Y-175320D01*
Y-175329D01*
X143100Y-175347D01*
X143091Y-175384D01*
X143072Y-175431D01*
X143045Y-175486D01*
X143008Y-175541D01*
X142952Y-175606D01*
X142897Y-175671D01*
X144996D01*
X145311Y-175283D01*
X145977Y-175949D01*
X145949D01*
X145921Y-175958D01*
X145875D01*
X145820Y-175976D01*
X145755Y-175995D01*
X145681Y-176023D01*
X145598Y-176059D01*
X145505Y-176106D01*
X145403Y-176171D01*
X145292Y-176244D01*
X145181Y-176328D01*
X145061Y-176439D01*
X144941Y-176559D01*
X144811Y-176698D01*
X144682Y-176855D01*
X144543Y-176790D01*
X145033Y-175874D01*
X143008D01*
Y-178566D01*
Y-178576D01*
Y-178594D01*
Y-178631D01*
X142998Y-178677D01*
X142989Y-178733D01*
X142971Y-178797D01*
X142924Y-178955D01*
X142887Y-179038D01*
X142832Y-179121D01*
X142776Y-179204D01*
X142712Y-179288D01*
X142628Y-179362D01*
X142536Y-179445D01*
X142425Y-179510D01*
X142305Y-179575D01*
Y-179565D01*
X142295Y-179556D01*
X142277Y-179500D01*
X142221Y-179417D01*
X142184Y-179371D01*
X142138Y-179315D01*
X142083Y-179260D01*
X142018Y-179204D01*
X141935Y-179149D01*
X141833Y-179094D01*
X141722Y-179047D01*
X141602Y-178992D01*
X141454Y-178946D01*
X141296Y-178909D01*
Y-178733D01*
X141324D01*
X141352Y-178742D01*
X141398D01*
X141500Y-178751D01*
X141629Y-178761D01*
X141777Y-178779D01*
X141925Y-178788D01*
X142073Y-178797D01*
X142221D01*
X142249Y-178788D01*
X142305Y-178779D01*
X142369Y-178751D01*
X142425Y-178705D01*
X142480Y-178640D01*
X142527Y-178548D01*
X142554Y-178428D01*
Y-175874D01*
X140732D01*
X140640Y-175884D01*
X140529D01*
X140399Y-175902D01*
X140260Y-175921D01*
X140112Y-175949D01*
X139964Y-175986D01*
X139650Y-175671D01*
X142619D01*
Y-175662D01*
Y-175625D01*
X142601Y-175569D01*
X142582Y-175486D01*
X142545Y-175403D01*
X142490Y-175292D01*
X142406Y-175181D01*
X142305Y-175060D01*
X142286Y-175042D01*
X142249Y-175005D01*
X142184Y-174940D01*
X142101Y-174857D01*
X142009Y-174765D01*
X141888Y-174663D01*
X141768Y-174552D01*
X141639Y-174441D01*
X141713Y-174339D01*
X141722D01*
X141731Y-174348D01*
X141759Y-174357D01*
X141796Y-174367D01*
X141842Y-174385D01*
X141898Y-174404D01*
X142036Y-174450D01*
X142203Y-174515D01*
X142388Y-174607D01*
X142601Y-174709D01*
X142832Y-174829D01*
X144192Y-173775D01*
X141287D01*
X141195Y-173784D01*
X141084D01*
X140963Y-173802D01*
X140815Y-173821D01*
X140677Y-173849D01*
X140529Y-173886D01*
X140214Y-173571D01*
X144229D01*
X144617Y-173220D01*
X145209Y-173951D01*
D02*
G37*
G36*
X49231Y-172332D02*
X45605D01*
X45596Y-172341D01*
X45568Y-172369D01*
X45522Y-172424D01*
X45466Y-172489D01*
X45402Y-172563D01*
X45318Y-172655D01*
X45226Y-172757D01*
X45133Y-172859D01*
X44930Y-173090D01*
X44717Y-173321D01*
X44514Y-173534D01*
X44421Y-173636D01*
X44338Y-173719D01*
Y-173729D01*
X44319Y-173738D01*
X44292Y-173766D01*
X44264Y-173793D01*
X44218Y-173839D01*
X44162Y-173886D01*
X44097Y-173951D01*
X44033Y-174015D01*
X43949Y-174089D01*
X43857Y-174172D01*
X43755Y-174256D01*
X43644Y-174348D01*
X43533Y-174450D01*
X43404Y-174561D01*
X43117Y-174783D01*
X43172D01*
X43219Y-174774D01*
X43330D01*
X43404Y-174765D01*
X43589D01*
X43690Y-174755D01*
X43922Y-174746D01*
X44190Y-174727D01*
X44486Y-174718D01*
X44800Y-174700D01*
X45152Y-174681D01*
X45513Y-174663D01*
X45892Y-174635D01*
X46290Y-174617D01*
X46687Y-174589D01*
X47520Y-174542D01*
X47511Y-174533D01*
X47492Y-174515D01*
X47464Y-174478D01*
X47418Y-174432D01*
X47363Y-174376D01*
X47298Y-174302D01*
X47215Y-174228D01*
X47122Y-174135D01*
X47020Y-174043D01*
X46909Y-173941D01*
X46789Y-173830D01*
X46650Y-173719D01*
X46512Y-173590D01*
X46354Y-173469D01*
X46197Y-173340D01*
X46021Y-173211D01*
X46086Y-173109D01*
X46095D01*
X46105Y-173118D01*
X46160Y-173146D01*
X46234Y-173183D01*
X46345Y-173229D01*
X46475Y-173294D01*
X46613Y-173368D01*
X46771Y-173442D01*
X46937Y-173525D01*
X47279Y-173701D01*
X47446Y-173784D01*
X47603Y-173877D01*
X47751Y-173951D01*
X47881Y-174024D01*
X47992Y-174099D01*
X48075Y-174154D01*
X48093Y-174163D01*
X48140Y-174200D01*
X48204Y-174256D01*
X48278Y-174320D01*
X48352Y-174404D01*
X48426Y-174487D01*
X48491Y-174570D01*
X48528Y-174663D01*
Y-174672D01*
X48537Y-174700D01*
X48547Y-174746D01*
X48556Y-174811D01*
Y-174885D01*
X48547Y-174968D01*
X48528Y-175060D01*
X48500Y-175153D01*
Y-175162D01*
X48482Y-175190D01*
X48463Y-175236D01*
X48436Y-175283D01*
X48408Y-175329D01*
X48371Y-175375D01*
X48325Y-175403D01*
X48288Y-175412D01*
X48278D01*
X48251Y-175393D01*
X48223Y-175375D01*
X48204Y-175356D01*
X48177Y-175320D01*
X48149Y-175273D01*
X48140Y-175264D01*
X48112Y-175227D01*
X48075Y-175171D01*
X48019Y-175098D01*
X47945Y-175014D01*
X47871Y-174922D01*
X47696Y-174718D01*
X47686D01*
X47640Y-174727D01*
X47575D01*
X47492Y-174737D01*
X47390Y-174755D01*
X47270Y-174765D01*
X47141Y-174783D01*
X47002Y-174792D01*
X46687Y-174829D01*
X46373Y-174866D01*
X46058Y-174894D01*
X45910Y-174913D01*
X45772Y-174922D01*
Y-176605D01*
X47455D01*
X48010Y-176041D01*
X48713Y-176809D01*
X45772D01*
Y-178733D01*
X48223D01*
X48852Y-178150D01*
X49546Y-178946D01*
X42553D01*
X42460Y-178955D01*
X42349D01*
X42229Y-178973D01*
X42081Y-178992D01*
X41942Y-179010D01*
X41794Y-179047D01*
X41480Y-178733D01*
X45254D01*
Y-176809D01*
X43431D01*
X43339Y-176818D01*
X43228D01*
X43098Y-176837D01*
X42960Y-176855D01*
X42812Y-176883D01*
X42664Y-176920D01*
X42349Y-176605D01*
X45254D01*
Y-174959D01*
X45207D01*
X45152Y-174968D01*
X45078Y-174977D01*
X44995Y-174987D01*
X44893Y-174996D01*
X44773Y-175014D01*
X44652Y-175023D01*
X44393Y-175060D01*
X44125Y-175107D01*
X43857Y-175153D01*
X43737Y-175181D01*
X43626Y-175208D01*
X43616D01*
X43598Y-175218D01*
X43570D01*
X43533Y-175236D01*
X43431Y-175264D01*
X43311Y-175292D01*
X43172Y-175338D01*
X43034Y-175384D01*
X42913Y-175431D01*
X42802Y-175486D01*
X42386Y-174681D01*
X42405D01*
X42460Y-174672D01*
X42534Y-174653D01*
X42636Y-174635D01*
X42747Y-174598D01*
X42867Y-174552D01*
X42987Y-174496D01*
X43098Y-174422D01*
X43117Y-174413D01*
X43154Y-174376D01*
X43219Y-174320D01*
X43311Y-174237D01*
X43431Y-174135D01*
X43570Y-173997D01*
X43727Y-173839D01*
X43903Y-173654D01*
X43912Y-173645D01*
X43922Y-173627D01*
X43949Y-173599D01*
X43986Y-173553D01*
X44033Y-173506D01*
X44088Y-173442D01*
X44144Y-173368D01*
X44208Y-173284D01*
X44356Y-173090D01*
X44504Y-172868D01*
X44671Y-172609D01*
X44828Y-172332D01*
X42904D01*
X42812Y-172341D01*
X42701D01*
X42580Y-172360D01*
X42432Y-172378D01*
X42294Y-172406D01*
X42146Y-172443D01*
X41831Y-172128D01*
X47945D01*
X48500Y-171601D01*
X49231Y-172332D01*
D02*
G37*
G36*
X132629Y-174802D02*
X132657Y-174820D01*
X132703Y-174848D01*
X132768Y-174894D01*
X132833Y-174950D01*
X132916Y-175005D01*
X133092Y-175135D01*
X133277Y-175283D01*
X133452Y-175431D01*
X133526Y-175495D01*
X133591Y-175560D01*
X133647Y-175616D01*
X133684Y-175671D01*
X133693Y-175680D01*
X133711Y-175708D01*
X133730Y-175754D01*
X133767Y-175810D01*
X133813Y-175930D01*
X133832Y-175995D01*
X133841Y-176050D01*
Y-176059D01*
Y-176078D01*
X133832Y-176115D01*
X133822Y-176171D01*
X133804Y-176226D01*
X133776Y-176300D01*
X133739Y-176374D01*
X133684Y-176457D01*
X133674Y-176467D01*
X133656Y-176494D01*
X133628Y-176531D01*
X133600Y-176568D01*
X133563Y-176605D01*
X133526Y-176642D01*
X133489Y-176670D01*
X133462Y-176679D01*
X133452D01*
X133443Y-176670D01*
X133425Y-176661D01*
X133397Y-176624D01*
X133360Y-176577D01*
X133323Y-176504D01*
X133286Y-176402D01*
X133267Y-176337D01*
X133249Y-176263D01*
Y-176254D01*
X133240Y-176235D01*
X133230Y-176198D01*
X133212Y-176152D01*
X133193Y-176096D01*
X133166Y-176023D01*
X133129Y-175949D01*
X133092Y-175856D01*
X132990Y-175653D01*
X132870Y-175421D01*
X132712Y-175162D01*
X132518Y-174894D01*
X132620Y-174792D01*
X132629Y-174802D01*
D02*
G37*
G36*
X8947Y-171888D02*
X8670Y-172128D01*
Y-174505D01*
X9364D01*
X9715Y-174154D01*
X10270Y-174709D01*
X8670D01*
Y-175098D01*
X8679Y-175107D01*
X8707Y-175125D01*
X8753Y-175153D01*
X8818Y-175190D01*
X8883Y-175236D01*
X8966Y-175283D01*
X9151Y-175403D01*
X9345Y-175541D01*
X9530Y-175671D01*
X9613Y-175736D01*
X9687Y-175791D01*
X9752Y-175856D01*
X9798Y-175902D01*
X9808Y-175911D01*
X9835Y-175939D01*
X9872Y-175986D01*
X9919Y-176050D01*
X9956Y-176115D01*
X9993Y-176198D01*
X10020Y-176272D01*
X10030Y-176356D01*
Y-176365D01*
Y-176383D01*
Y-176420D01*
X10020Y-176467D01*
X9993Y-176577D01*
X9937Y-176707D01*
Y-176716D01*
X9928Y-176735D01*
X9891Y-176790D01*
X9835Y-176855D01*
X9817Y-176874D01*
X9789Y-176883D01*
X9780D01*
X9771Y-176874D01*
X9743Y-176864D01*
X9715Y-176827D01*
X9678Y-176781D01*
X9641Y-176707D01*
X9586Y-176596D01*
X9567Y-176531D01*
X9539Y-176457D01*
Y-176448D01*
X9530Y-176429D01*
X9512Y-176402D01*
X9493Y-176365D01*
X9465Y-176309D01*
X9428Y-176244D01*
X9345Y-176096D01*
X9225Y-175921D01*
X9068Y-175726D01*
X8892Y-175505D01*
X8670Y-175273D01*
Y-175283D01*
Y-175292D01*
Y-175320D01*
Y-175347D01*
Y-175440D01*
Y-175569D01*
Y-175717D01*
Y-175884D01*
Y-176069D01*
Y-176272D01*
X8679Y-176485D01*
Y-176707D01*
Y-177142D01*
X8688Y-177364D01*
Y-177567D01*
X8698Y-177752D01*
Y-177928D01*
X8180Y-178141D01*
Y-178131D01*
Y-178094D01*
Y-178039D01*
X8189Y-177965D01*
Y-177863D01*
Y-177743D01*
X8198Y-177604D01*
Y-177447D01*
Y-177271D01*
X8207Y-177077D01*
Y-176864D01*
Y-176633D01*
X8217Y-176383D01*
Y-176124D01*
Y-175847D01*
Y-175560D01*
X8198Y-175597D01*
X8170Y-175643D01*
X8143Y-175717D01*
X8096Y-175810D01*
X8041Y-175911D01*
X7976Y-176032D01*
X7902Y-176171D01*
X7819Y-176309D01*
X7717Y-176467D01*
X7615Y-176633D01*
X7495Y-176799D01*
X7356Y-176985D01*
X7218Y-177160D01*
X7051Y-177355D01*
X6885Y-177540D01*
X6783Y-177475D01*
X6792Y-177456D01*
X6820Y-177419D01*
X6866Y-177355D01*
X6922Y-177262D01*
X6996Y-177142D01*
X7079Y-177003D01*
X7162Y-176846D01*
X7264Y-176670D01*
X7366Y-176476D01*
X7467Y-176263D01*
X7569Y-176032D01*
X7662Y-175791D01*
X7763Y-175541D01*
X7847Y-175273D01*
X7930Y-174996D01*
X8004Y-174709D01*
X7338D01*
X7023Y-174783D01*
X6746Y-174505D01*
X8217D01*
Y-174496D01*
Y-174487D01*
Y-174459D01*
Y-174422D01*
Y-174330D01*
Y-174200D01*
Y-174052D01*
Y-173867D01*
Y-173664D01*
Y-173451D01*
X8207Y-173220D01*
Y-172970D01*
X8198Y-172470D01*
X8189Y-171971D01*
Y-171730D01*
X8180Y-171499D01*
X8947Y-171888D01*
D02*
G37*
G36*
X59277Y-178733D02*
X58463D01*
Y-173377D01*
X56594Y-178733D01*
X55836D01*
X53986Y-173284D01*
Y-178733D01*
X53172D01*
Y-172332D01*
X54439D01*
X55956Y-176874D01*
Y-176883D01*
X55965Y-176901D01*
X55974Y-176929D01*
X55993Y-176975D01*
X56030Y-177086D01*
X56076Y-177225D01*
X56122Y-177382D01*
X56178Y-177540D01*
X56224Y-177688D01*
X56261Y-177817D01*
X56270Y-177798D01*
X56280Y-177752D01*
X56307Y-177669D01*
X56344Y-177558D01*
X56391Y-177410D01*
X56455Y-177234D01*
X56520Y-177031D01*
X56603Y-176790D01*
X58139Y-172332D01*
X59277D01*
Y-178733D01*
D02*
G37*
G36*
X-1588D02*
X-2421D01*
X-3762Y-173858D01*
Y-173849D01*
X-3771Y-173830D01*
X-3781Y-173802D01*
X-3790Y-173756D01*
X-3818Y-173654D01*
X-3845Y-173534D01*
X-3882Y-173405D01*
X-3919Y-173284D01*
X-3947Y-173183D01*
X-3956Y-173136D01*
X-3966Y-173109D01*
Y-173118D01*
X-3975Y-173127D01*
X-3984Y-173183D01*
X-4003Y-173266D01*
X-4030Y-173368D01*
X-4058Y-173479D01*
X-4095Y-173608D01*
X-4123Y-173738D01*
X-4160Y-173858D01*
X-5510Y-178733D01*
X-6398D01*
X-8073Y-172332D01*
X-7194D01*
X-6241Y-176531D01*
Y-176541D01*
X-6232Y-176559D01*
X-6223Y-176596D01*
X-6213Y-176642D01*
X-6204Y-176707D01*
X-6186Y-176772D01*
X-6167Y-176855D01*
X-6149Y-176947D01*
X-6102Y-177142D01*
X-6056Y-177364D01*
X-6010Y-177604D01*
X-5964Y-177845D01*
Y-177836D01*
X-5954Y-177798D01*
X-5936Y-177752D01*
X-5927Y-177678D01*
X-5908Y-177604D01*
X-5880Y-177512D01*
X-5834Y-177308D01*
X-5779Y-177105D01*
X-5760Y-177003D01*
X-5732Y-176910D01*
X-5714Y-176827D01*
X-5695Y-176753D01*
X-5677Y-176698D01*
X-5668Y-176661D01*
X-4456Y-172332D01*
X-3429D01*
X-2523Y-175578D01*
Y-175588D01*
X-2504Y-175634D01*
X-2486Y-175699D01*
X-2467Y-175782D01*
X-2439Y-175893D01*
X-2402Y-176013D01*
X-2365Y-176152D01*
X-2328Y-176309D01*
X-2282Y-176485D01*
X-2245Y-176661D01*
X-2162Y-177040D01*
X-2079Y-177438D01*
X-2014Y-177845D01*
Y-177836D01*
X-2005Y-177817D01*
Y-177780D01*
X-1986Y-177734D01*
X-1977Y-177678D01*
X-1958Y-177613D01*
X-1949Y-177530D01*
X-1921Y-177438D01*
X-1875Y-177234D01*
X-1820Y-176994D01*
X-1764Y-176735D01*
X-1690Y-176448D01*
X-691Y-172332D01*
X169D01*
X-1588Y-178733D01*
D02*
G37*
G36*
X-23465D02*
X-24297D01*
X-25638Y-173858D01*
Y-173849D01*
X-25648Y-173830D01*
X-25657Y-173802D01*
X-25666Y-173756D01*
X-25694Y-173654D01*
X-25722Y-173534D01*
X-25759Y-173405D01*
X-25796Y-173284D01*
X-25823Y-173183D01*
X-25833Y-173136D01*
X-25842Y-173109D01*
Y-173118D01*
X-25851Y-173127D01*
X-25860Y-173183D01*
X-25879Y-173266D01*
X-25907Y-173368D01*
X-25934Y-173479D01*
X-25971Y-173608D01*
X-25999Y-173738D01*
X-26036Y-173858D01*
X-27387Y-178733D01*
X-28275D01*
X-29949Y-172332D01*
X-29070D01*
X-28117Y-176531D01*
Y-176541D01*
X-28108Y-176559D01*
X-28099Y-176596D01*
X-28090Y-176642D01*
X-28080Y-176707D01*
X-28062Y-176772D01*
X-28043Y-176855D01*
X-28025Y-176947D01*
X-27979Y-177142D01*
X-27932Y-177364D01*
X-27886Y-177604D01*
X-27840Y-177845D01*
Y-177836D01*
X-27831Y-177798D01*
X-27812Y-177752D01*
X-27803Y-177678D01*
X-27784Y-177604D01*
X-27757Y-177512D01*
X-27710Y-177308D01*
X-27655Y-177105D01*
X-27636Y-177003D01*
X-27609Y-176910D01*
X-27590Y-176827D01*
X-27572Y-176753D01*
X-27553Y-176698D01*
X-27544Y-176661D01*
X-26332Y-172332D01*
X-25305D01*
X-24399Y-175578D01*
Y-175588D01*
X-24380Y-175634D01*
X-24362Y-175699D01*
X-24343Y-175782D01*
X-24316Y-175893D01*
X-24279Y-176013D01*
X-24242Y-176152D01*
X-24205Y-176309D01*
X-24158Y-176485D01*
X-24121Y-176661D01*
X-24038Y-177040D01*
X-23955Y-177438D01*
X-23890Y-177845D01*
Y-177836D01*
X-23881Y-177817D01*
Y-177780D01*
X-23862Y-177734D01*
X-23853Y-177678D01*
X-23835Y-177613D01*
X-23825Y-177530D01*
X-23798Y-177438D01*
X-23751Y-177234D01*
X-23696Y-176994D01*
X-23640Y-176735D01*
X-23566Y-176448D01*
X-22567Y-172332D01*
X-21707D01*
X-23465Y-178733D01*
D02*
G37*
G36*
X-56876Y-174515D02*
X-57116Y-174765D01*
Y-176957D01*
Y-176966D01*
Y-176985D01*
Y-177012D01*
Y-177049D01*
Y-177105D01*
Y-177160D01*
X-57107Y-177299D01*
Y-177456D01*
X-57098Y-177632D01*
X-57079Y-178002D01*
X-57606Y-178252D01*
Y-178243D01*
Y-178215D01*
Y-178168D01*
X-57597Y-178113D01*
Y-178030D01*
Y-177937D01*
X-57588Y-177836D01*
Y-177706D01*
Y-177567D01*
X-57579Y-177410D01*
Y-177243D01*
Y-177058D01*
X-57569Y-176864D01*
Y-176652D01*
Y-176429D01*
Y-176198D01*
Y-176180D01*
Y-176143D01*
Y-176078D01*
Y-175986D01*
Y-175874D01*
Y-175754D01*
Y-175616D01*
Y-175458D01*
X-57579Y-175144D01*
X-57588Y-174811D01*
X-57597Y-174487D01*
Y-174339D01*
X-57606Y-174200D01*
X-56876Y-174515D01*
D02*
G37*
G36*
X-49910Y-172794D02*
X-51520D01*
Y-172803D01*
X-51538Y-172840D01*
X-51557Y-172896D01*
X-51585Y-172970D01*
X-51612Y-173063D01*
X-51649Y-173173D01*
X-51696Y-173294D01*
X-51742Y-173433D01*
X-51797Y-173581D01*
X-51853Y-173747D01*
X-51908Y-173914D01*
X-51973Y-174089D01*
X-52112Y-174469D01*
X-52251Y-174857D01*
X-51131D01*
X-50891Y-174542D01*
X-50364Y-174959D01*
X-50641Y-175171D01*
Y-175181D01*
Y-175190D01*
Y-175218D01*
Y-175255D01*
Y-175356D01*
Y-175486D01*
Y-175643D01*
Y-175819D01*
Y-176023D01*
Y-176244D01*
X-50632Y-176467D01*
Y-176707D01*
Y-177188D01*
X-50623Y-177428D01*
Y-177650D01*
X-50613Y-177863D01*
Y-178067D01*
X-51104Y-178279D01*
Y-177752D01*
X-52186D01*
Y-178696D01*
X-52639Y-178899D01*
Y-178890D01*
Y-178844D01*
Y-178779D01*
X-52630Y-178686D01*
Y-178576D01*
Y-178428D01*
X-52621Y-178261D01*
Y-178067D01*
Y-177845D01*
X-52611Y-177595D01*
Y-177318D01*
Y-177022D01*
X-52602Y-176698D01*
Y-176346D01*
Y-175967D01*
Y-175569D01*
X-52621Y-175588D01*
X-52639Y-175634D01*
X-52676Y-175680D01*
X-52713Y-175745D01*
X-52759Y-175819D01*
X-52870Y-175986D01*
X-53009Y-176180D01*
X-53157Y-176383D01*
X-53333Y-176587D01*
X-53509Y-176781D01*
X-53583Y-176707D01*
X-53573Y-176689D01*
X-53536Y-176633D01*
X-53490Y-176550D01*
X-53425Y-176429D01*
X-53342Y-176281D01*
X-53240Y-176096D01*
X-53139Y-175884D01*
X-53028Y-175643D01*
X-52907Y-175375D01*
X-52787Y-175079D01*
X-52658Y-174755D01*
X-52528Y-174404D01*
X-52408Y-174034D01*
X-52288Y-173645D01*
X-52177Y-173229D01*
X-52075Y-172794D01*
X-52362D01*
X-52454Y-172803D01*
X-52565D01*
X-52695Y-172822D01*
X-52833Y-172840D01*
X-52981Y-172868D01*
X-53129Y-172905D01*
X-53444Y-172591D01*
X-50928D01*
X-50475Y-172175D01*
X-49910Y-172794D01*
D02*
G37*
G36*
X-55229Y-174089D02*
X-55581Y-174367D01*
Y-178428D01*
Y-178437D01*
Y-178464D01*
Y-178501D01*
X-55590Y-178557D01*
X-55599Y-178631D01*
X-55618Y-178705D01*
X-55636Y-178788D01*
X-55673Y-178872D01*
X-55719Y-178964D01*
X-55766Y-179057D01*
X-55840Y-179149D01*
X-55923Y-179242D01*
X-56015Y-179325D01*
X-56136Y-179408D01*
X-56265Y-179482D01*
X-56422Y-179537D01*
Y-179528D01*
Y-179510D01*
X-56432Y-179491D01*
X-56441Y-179454D01*
X-56459Y-179408D01*
X-56487Y-179362D01*
X-56524Y-179306D01*
X-56570Y-179242D01*
X-56626Y-179177D01*
X-56700Y-179112D01*
X-56783Y-179047D01*
X-56894Y-178982D01*
X-57014Y-178927D01*
X-57153Y-178862D01*
X-57320Y-178807D01*
X-57505Y-178761D01*
Y-178631D01*
X-57468D01*
X-57412Y-178640D01*
X-57357D01*
X-57273Y-178649D01*
X-57190D01*
X-56996Y-178668D01*
X-56792Y-178677D01*
X-56589Y-178686D01*
X-56274D01*
X-56237Y-178677D01*
X-56191Y-178659D01*
X-56145Y-178622D01*
X-56099Y-178576D01*
X-56052Y-178492D01*
X-56034Y-178391D01*
Y-178326D01*
Y-178252D01*
Y-175107D01*
Y-175098D01*
Y-175070D01*
Y-175023D01*
Y-174959D01*
Y-174885D01*
Y-174802D01*
Y-174700D01*
Y-174589D01*
X-56043Y-174357D01*
X-56052Y-174117D01*
X-56062Y-173867D01*
X-56071Y-173636D01*
X-55229Y-174089D01*
D02*
G37*
G36*
X135728Y-171897D02*
X135376Y-172137D01*
Y-173710D01*
X135904D01*
X136357Y-173257D01*
X137023Y-173914D01*
X135376D01*
Y-178603D01*
Y-178612D01*
Y-178631D01*
X135367Y-178668D01*
Y-178705D01*
X135349Y-178761D01*
X135339Y-178825D01*
X135284Y-178964D01*
X135238Y-179038D01*
X135191Y-179112D01*
X135127Y-179195D01*
X135053Y-179269D01*
X134969Y-179343D01*
X134858Y-179417D01*
X134747Y-179482D01*
X134609Y-179537D01*
Y-179528D01*
Y-179510D01*
X134599Y-179491D01*
X134590Y-179454D01*
X134562Y-179408D01*
X134535Y-179362D01*
X134498Y-179306D01*
X134451Y-179242D01*
X134387Y-179177D01*
X134313Y-179112D01*
X134220Y-179047D01*
X134109Y-178982D01*
X133980Y-178927D01*
X133832Y-178862D01*
X133656Y-178807D01*
X133462Y-178761D01*
Y-178603D01*
X133471D01*
X133499Y-178612D01*
X133554D01*
X133610Y-178622D01*
X133684Y-178631D01*
X133776Y-178640D01*
X133961Y-178668D01*
X134165Y-178686D01*
X134359Y-178705D01*
X134655D01*
X134683Y-178696D01*
X134720Y-178677D01*
X134766Y-178640D01*
X134812Y-178585D01*
X134849Y-178511D01*
X134877Y-178418D01*
X134886Y-178289D01*
Y-173914D01*
X132999D01*
X132907Y-173923D01*
X132796D01*
X132666Y-173941D01*
X132527Y-173960D01*
X132379Y-173987D01*
X132231Y-174024D01*
X131917Y-173710D01*
X134886D01*
Y-173691D01*
Y-173645D01*
Y-173581D01*
Y-173479D01*
Y-173368D01*
Y-173229D01*
Y-173081D01*
Y-172915D01*
X134877Y-172739D01*
Y-172554D01*
Y-172175D01*
X134868Y-171795D01*
Y-171610D01*
X134858Y-171434D01*
X135728Y-171897D01*
D02*
G37*
G36*
X51701Y-178733D02*
X50850D01*
Y-172332D01*
X51701D01*
Y-178733D01*
D02*
G37*
G36*
X2916Y-172313D02*
X2990Y-172322D01*
X3083Y-172332D01*
X3185Y-172350D01*
X3286Y-172369D01*
X3527Y-172433D01*
X3767Y-172526D01*
X3888Y-172582D01*
X4008Y-172646D01*
X4119Y-172730D01*
X4221Y-172822D01*
X4230Y-172831D01*
X4248Y-172840D01*
X4267Y-172878D01*
X4304Y-172915D01*
X4350Y-172961D01*
X4396Y-173026D01*
X4443Y-173090D01*
X4498Y-173173D01*
X4591Y-173349D01*
X4683Y-173571D01*
X4720Y-173682D01*
X4739Y-173812D01*
X4757Y-173941D01*
X4766Y-174080D01*
Y-174099D01*
Y-174145D01*
X4757Y-174219D01*
X4748Y-174320D01*
X4729Y-174432D01*
X4692Y-174561D01*
X4655Y-174700D01*
X4600Y-174838D01*
X4591Y-174857D01*
X4572Y-174903D01*
X4535Y-174977D01*
X4480Y-175079D01*
X4406Y-175190D01*
X4313Y-175329D01*
X4202Y-175468D01*
X4073Y-175625D01*
X4054Y-175643D01*
X4008Y-175699D01*
X3962Y-175745D01*
X3915Y-175791D01*
X3860Y-175847D01*
X3786Y-175921D01*
X3712Y-175995D01*
X3619Y-176078D01*
X3527Y-176171D01*
X3416Y-176272D01*
X3296Y-176374D01*
X3166Y-176494D01*
X3018Y-176614D01*
X2870Y-176744D01*
X2861Y-176753D01*
X2842Y-176772D01*
X2805Y-176799D01*
X2759Y-176837D01*
X2704Y-176892D01*
X2639Y-176947D01*
X2491Y-177068D01*
X2334Y-177207D01*
X2186Y-177345D01*
X2056Y-177465D01*
X2001Y-177512D01*
X1954Y-177558D01*
X1945Y-177567D01*
X1917Y-177595D01*
X1880Y-177632D01*
X1834Y-177688D01*
X1788Y-177752D01*
X1732Y-177817D01*
X1621Y-177974D01*
X4776D01*
Y-178733D01*
X530D01*
Y-178724D01*
Y-178686D01*
Y-178631D01*
X539Y-178557D01*
X548Y-178474D01*
X567Y-178381D01*
X585Y-178289D01*
X622Y-178187D01*
Y-178178D01*
X632Y-178168D01*
X650Y-178113D01*
X687Y-178030D01*
X743Y-177919D01*
X817Y-177789D01*
X909Y-177641D01*
X1011Y-177493D01*
X1140Y-177336D01*
Y-177327D01*
X1159Y-177318D01*
X1205Y-177262D01*
X1288Y-177179D01*
X1409Y-177058D01*
X1547Y-176920D01*
X1723Y-176753D01*
X1936Y-176568D01*
X2167Y-176374D01*
X2176Y-176365D01*
X2213Y-176337D01*
X2269Y-176291D01*
X2334Y-176235D01*
X2417Y-176161D01*
X2519Y-176078D01*
X2620Y-175986D01*
X2741Y-175884D01*
X2972Y-175662D01*
X3203Y-175440D01*
X3314Y-175329D01*
X3416Y-175218D01*
X3508Y-175116D01*
X3582Y-175014D01*
Y-175005D01*
X3601Y-174996D01*
X3619Y-174968D01*
X3638Y-174931D01*
X3703Y-174829D01*
X3777Y-174709D01*
X3841Y-174561D01*
X3906Y-174404D01*
X3943Y-174228D01*
X3962Y-174062D01*
Y-174052D01*
Y-174043D01*
X3952Y-173987D01*
X3943Y-173895D01*
X3915Y-173793D01*
X3878Y-173664D01*
X3814Y-173534D01*
X3730Y-173405D01*
X3619Y-173275D01*
X3601Y-173257D01*
X3555Y-173220D01*
X3490Y-173173D01*
X3388Y-173109D01*
X3259Y-173053D01*
X3111Y-172998D01*
X2935Y-172961D01*
X2741Y-172951D01*
X2685D01*
X2648Y-172961D01*
X2537Y-172970D01*
X2408Y-172998D01*
X2269Y-173035D01*
X2112Y-173100D01*
X1964Y-173183D01*
X1825Y-173294D01*
X1806Y-173312D01*
X1769Y-173359D01*
X1714Y-173433D01*
X1658Y-173544D01*
X1594Y-173673D01*
X1538Y-173839D01*
X1501Y-174024D01*
X1483Y-174237D01*
X678Y-174154D01*
Y-174145D01*
X687Y-174117D01*
Y-174071D01*
X696Y-174006D01*
X715Y-173932D01*
X733Y-173849D01*
X761Y-173747D01*
X789Y-173645D01*
X863Y-173423D01*
X974Y-173201D01*
X1039Y-173090D01*
X1122Y-172979D01*
X1205Y-172878D01*
X1298Y-172785D01*
X1307Y-172776D01*
X1325Y-172766D01*
X1353Y-172739D01*
X1399Y-172711D01*
X1455Y-172674D01*
X1520Y-172637D01*
X1594Y-172591D01*
X1686Y-172545D01*
X1788Y-172498D01*
X1899Y-172452D01*
X2019Y-172415D01*
X2149Y-172378D01*
X2287Y-172350D01*
X2435Y-172322D01*
X2593Y-172313D01*
X2759Y-172304D01*
X2852D01*
X2916Y-172313D01*
D02*
G37*
G36*
X-18275Y-178733D02*
X-19062D01*
Y-173729D01*
X-19071Y-173738D01*
X-19117Y-173775D01*
X-19173Y-173830D01*
X-19265Y-173895D01*
X-19367Y-173978D01*
X-19496Y-174071D01*
X-19644Y-174172D01*
X-19811Y-174274D01*
X-19820D01*
X-19829Y-174284D01*
X-19885Y-174320D01*
X-19977Y-174367D01*
X-20088Y-174422D01*
X-20218Y-174487D01*
X-20357Y-174552D01*
X-20495Y-174617D01*
X-20634Y-174672D01*
Y-173914D01*
X-20625D01*
X-20606Y-173895D01*
X-20569Y-173886D01*
X-20523Y-173858D01*
X-20468Y-173830D01*
X-20403Y-173793D01*
X-20246Y-173701D01*
X-20061Y-173599D01*
X-19876Y-173469D01*
X-19681Y-173321D01*
X-19487Y-173164D01*
X-19478Y-173155D01*
X-19469Y-173146D01*
X-19441Y-173118D01*
X-19404Y-173090D01*
X-19321Y-172998D01*
X-19210Y-172887D01*
X-19099Y-172757D01*
X-18978Y-172609D01*
X-18877Y-172461D01*
X-18784Y-172304D01*
X-18275D01*
Y-178733D01*
D02*
G37*
G36*
X-48097Y-171851D02*
X-48412Y-171962D01*
X-48421Y-171971D01*
X-48440Y-172008D01*
X-48477Y-172054D01*
X-48523Y-172119D01*
X-48569Y-172202D01*
X-48634Y-172295D01*
X-48689Y-172406D01*
X-48754Y-172517D01*
X-47330D01*
X-47015Y-172165D01*
X-46414Y-172757D01*
X-46442D01*
X-46469Y-172766D01*
X-46506Y-172785D01*
X-46562Y-172803D01*
X-46627Y-172831D01*
X-46701Y-172878D01*
X-46784Y-172933D01*
X-46876Y-172998D01*
X-46978Y-173081D01*
X-47089Y-173183D01*
X-47209Y-173303D01*
X-47348Y-173451D01*
X-47478Y-173617D01*
X-47626Y-173812D01*
X-47783Y-174024D01*
X-46451D01*
X-46210Y-173673D01*
X-45683Y-174062D01*
X-45924Y-174302D01*
Y-178696D01*
Y-178705D01*
Y-178724D01*
Y-178751D01*
X-45933Y-178788D01*
X-45951Y-178890D01*
X-45988Y-179010D01*
X-46025Y-179075D01*
X-46062Y-179140D01*
X-46118Y-179214D01*
X-46173Y-179279D01*
X-46247Y-179352D01*
X-46340Y-179408D01*
X-46442Y-179473D01*
X-46553Y-179528D01*
Y-179519D01*
Y-179510D01*
X-46571Y-179454D01*
X-46608Y-179371D01*
X-46636Y-179325D01*
X-46673Y-179279D01*
X-46728Y-179232D01*
X-46784Y-179177D01*
X-46858Y-179121D01*
X-46941Y-179075D01*
X-47034Y-179019D01*
X-47154Y-178973D01*
X-47283Y-178936D01*
X-47431Y-178899D01*
Y-178761D01*
X-47413D01*
X-47357Y-178770D01*
X-47283D01*
X-47191Y-178779D01*
X-47080Y-178788D01*
X-46960D01*
X-46839Y-178797D01*
X-46664D01*
X-46627Y-178788D01*
X-46543Y-178779D01*
X-46469Y-178761D01*
X-46460Y-178751D01*
X-46442Y-178742D01*
X-46423Y-178724D01*
X-46414Y-178686D01*
X-46395Y-178649D01*
X-46386Y-178594D01*
Y-178520D01*
Y-177049D01*
X-47607D01*
Y-179103D01*
X-48023Y-179352D01*
Y-177049D01*
X-49281D01*
Y-177058D01*
X-49291Y-177086D01*
Y-177123D01*
X-49300Y-177188D01*
X-49318Y-177253D01*
X-49337Y-177336D01*
X-49355Y-177428D01*
X-49383Y-177530D01*
X-49448Y-177752D01*
X-49540Y-177993D01*
X-49651Y-178243D01*
X-49790Y-178483D01*
Y-178492D01*
X-49809Y-178511D01*
X-49827Y-178548D01*
X-49864Y-178585D01*
X-49901Y-178640D01*
X-49957Y-178705D01*
X-50077Y-178862D01*
X-50243Y-179029D01*
X-50438Y-179223D01*
X-50669Y-179417D01*
X-50928Y-179602D01*
X-50993Y-179528D01*
X-50983Y-179519D01*
X-50965Y-179500D01*
X-50928Y-179464D01*
X-50882Y-179408D01*
X-50826Y-179352D01*
X-50761Y-179279D01*
X-50697Y-179195D01*
X-50623Y-179103D01*
X-50456Y-178899D01*
X-50299Y-178659D01*
X-50142Y-178409D01*
X-50012Y-178141D01*
Y-178131D01*
X-50003Y-178104D01*
X-49984Y-178067D01*
X-49966Y-178002D01*
X-49938Y-177928D01*
X-49910Y-177836D01*
X-49883Y-177734D01*
X-49855Y-177604D01*
X-49827Y-177465D01*
X-49790Y-177308D01*
X-49772Y-177142D01*
X-49744Y-176947D01*
X-49725Y-176744D01*
X-49707Y-176531D01*
X-49698Y-176300D01*
X-49688Y-176050D01*
Y-176032D01*
Y-175986D01*
Y-175921D01*
Y-175819D01*
Y-175708D01*
X-49679Y-175569D01*
Y-175421D01*
Y-175255D01*
Y-175079D01*
Y-174894D01*
X-49670Y-174515D01*
Y-174135D01*
Y-173951D01*
Y-173784D01*
X-49688Y-173793D01*
X-49735Y-173849D01*
X-49809Y-173932D01*
X-49910Y-174043D01*
X-50021Y-174172D01*
X-50151Y-174302D01*
X-50290Y-174441D01*
X-50438Y-174580D01*
X-50539Y-174505D01*
X-50530Y-174496D01*
X-50512Y-174478D01*
X-50484Y-174441D01*
X-50447Y-174395D01*
X-50401Y-174339D01*
X-50345Y-174265D01*
X-50290Y-174182D01*
X-50216Y-174089D01*
X-50142Y-173987D01*
X-50068Y-173877D01*
X-49892Y-173627D01*
X-49716Y-173359D01*
X-49540Y-173063D01*
X-49531Y-173053D01*
X-49522Y-173026D01*
X-49494Y-172979D01*
X-49466Y-172924D01*
X-49420Y-172850D01*
X-49374Y-172757D01*
X-49328Y-172655D01*
X-49272Y-172545D01*
X-49207Y-172424D01*
X-49152Y-172295D01*
X-49022Y-172008D01*
X-48902Y-171712D01*
X-48791Y-171397D01*
X-48097Y-171851D01*
D02*
G37*
G36*
X6959Y-172128D02*
X6672Y-172378D01*
Y-178316D01*
X8735D01*
X9123Y-177928D01*
X9715Y-178520D01*
X6709D01*
X6431Y-178834D01*
X5941Y-178381D01*
X6219Y-178141D01*
Y-174367D01*
Y-174357D01*
Y-174330D01*
Y-174284D01*
Y-174209D01*
Y-174126D01*
Y-174015D01*
Y-173886D01*
Y-173738D01*
X6209Y-173562D01*
Y-173377D01*
Y-173155D01*
X6200Y-172924D01*
Y-172665D01*
X6191Y-172378D01*
Y-172073D01*
X6182Y-171749D01*
X6959Y-172128D01*
D02*
G37*
G36*
X109310Y-172082D02*
Y-172100D01*
X109291Y-172128D01*
X109254Y-172175D01*
X109199Y-172230D01*
X109116Y-172313D01*
X109060Y-172369D01*
X108995Y-172424D01*
X108921Y-172480D01*
X108838Y-172554D01*
X108829D01*
X108820Y-172572D01*
X108792Y-172600D01*
X108755Y-172628D01*
X108662Y-172720D01*
X108533Y-172850D01*
X108385Y-173016D01*
X108228Y-173220D01*
X108052Y-173451D01*
X107876Y-173710D01*
X107867Y-173719D01*
X107858Y-173747D01*
X107830Y-173784D01*
X107802Y-173839D01*
X107765Y-173914D01*
X107728Y-174006D01*
X107682Y-174108D01*
X107645Y-174219D01*
X107599Y-174348D01*
X107552Y-174487D01*
X107515Y-174644D01*
X107478Y-174811D01*
X107451Y-174996D01*
X107423Y-175181D01*
X107414Y-175384D01*
X107404Y-175597D01*
Y-175606D01*
Y-175643D01*
Y-175708D01*
X107414Y-175782D01*
X107423Y-175884D01*
X107432Y-175995D01*
X107441Y-176115D01*
X107460Y-176254D01*
X107515Y-176541D01*
X107599Y-176837D01*
X107645Y-176985D01*
X107710Y-177132D01*
X107774Y-177262D01*
X107858Y-177392D01*
X107867Y-177401D01*
X107876Y-177419D01*
X107904Y-177456D01*
X107941Y-177503D01*
X107978Y-177558D01*
X108033Y-177613D01*
X108154Y-177771D01*
X108302Y-177937D01*
X108468Y-178113D01*
X108653Y-178289D01*
X108857Y-178455D01*
X108866D01*
X108884Y-178474D01*
X108903Y-178492D01*
X108940Y-178520D01*
X109023Y-178594D01*
X109125Y-178668D01*
X109208Y-178751D01*
X109282Y-178834D01*
X109310Y-178872D01*
X109328Y-178899D01*
X109338Y-178918D01*
X109328Y-178936D01*
X109310Y-178946D01*
X109273Y-178936D01*
X109217Y-178927D01*
X109134Y-178890D01*
X109079Y-178862D01*
X109014Y-178834D01*
X108940Y-178788D01*
X108866Y-178742D01*
X108764Y-178677D01*
X108662Y-178612D01*
X108653Y-178603D01*
X108635Y-178594D01*
X108607Y-178576D01*
X108561Y-178539D01*
X108505Y-178501D01*
X108450Y-178455D01*
X108302Y-178326D01*
X108126Y-178178D01*
X107932Y-177993D01*
X107728Y-177789D01*
X107525Y-177549D01*
X107515Y-177540D01*
X107506Y-177521D01*
X107478Y-177484D01*
X107441Y-177428D01*
X107395Y-177364D01*
X107349Y-177280D01*
X107303Y-177188D01*
X107247Y-177077D01*
X107192Y-176957D01*
X107136Y-176827D01*
X107081Y-176689D01*
X107034Y-176531D01*
X106988Y-176365D01*
X106951Y-176189D01*
X106914Y-175995D01*
X106896Y-175801D01*
Y-175791D01*
Y-175754D01*
Y-175699D01*
Y-175616D01*
Y-175523D01*
Y-175412D01*
X106905Y-175292D01*
X106923Y-175153D01*
X106942Y-175005D01*
X106970Y-174857D01*
X106997Y-174690D01*
X107044Y-174524D01*
X107099Y-174357D01*
X107164Y-174191D01*
X107238Y-174024D01*
X107330Y-173867D01*
X107340Y-173858D01*
X107358Y-173830D01*
X107386Y-173784D01*
X107423Y-173729D01*
X107478Y-173654D01*
X107534Y-173571D01*
X107608Y-173479D01*
X107682Y-173377D01*
X107867Y-173155D01*
X108080Y-172924D01*
X108311Y-172702D01*
X108570Y-172498D01*
X108579Y-172489D01*
X108598Y-172480D01*
X108635Y-172452D01*
X108681Y-172424D01*
X108801Y-172341D01*
X108931Y-172258D01*
X109069Y-172175D01*
X109190Y-172110D01*
X109236Y-172082D01*
X109273Y-172073D01*
X109301D01*
X109310Y-172082D01*
D02*
G37*
G36*
X147910Y-171990D02*
X147947Y-172008D01*
X147984Y-172027D01*
X148040Y-172054D01*
X148104Y-172091D01*
X148178Y-172137D01*
X148271Y-172193D01*
X148373Y-172258D01*
X148484Y-172332D01*
X148493Y-172341D01*
X148511Y-172350D01*
X148548Y-172378D01*
X148595Y-172415D01*
X148650Y-172461D01*
X148724Y-172517D01*
X148798Y-172582D01*
X148891Y-172655D01*
X148983Y-172739D01*
X149076Y-172840D01*
X149187Y-172942D01*
X149298Y-173063D01*
X149409Y-173192D01*
X149529Y-173321D01*
X149640Y-173469D01*
X149760Y-173627D01*
X149769Y-173636D01*
X149788Y-173664D01*
X149816Y-173710D01*
X149862Y-173775D01*
X149908Y-173858D01*
X149954Y-173960D01*
X150019Y-174071D01*
X150075Y-174200D01*
X150130Y-174339D01*
X150186Y-174487D01*
X150241Y-174653D01*
X150287Y-174829D01*
X150324Y-175023D01*
X150352Y-175218D01*
X150371Y-175421D01*
Y-175634D01*
Y-175643D01*
Y-175680D01*
Y-175745D01*
X150361Y-175828D01*
X150352Y-175921D01*
X150334Y-176032D01*
X150315Y-176161D01*
X150297Y-176300D01*
X150223Y-176596D01*
X150176Y-176753D01*
X150121Y-176910D01*
X150047Y-177068D01*
X149973Y-177225D01*
X149880Y-177373D01*
X149779Y-177512D01*
X149769Y-177521D01*
X149751Y-177540D01*
X149723Y-177586D01*
X149677Y-177632D01*
X149621Y-177697D01*
X149566Y-177771D01*
X149492Y-177845D01*
X149409Y-177928D01*
X149224Y-178113D01*
X149011Y-178307D01*
X148770Y-178483D01*
X148521Y-178649D01*
X148511D01*
X148493Y-178668D01*
X148456Y-178686D01*
X148410Y-178714D01*
X148308Y-178770D01*
X148178Y-178834D01*
X148049Y-178899D01*
X147938Y-178946D01*
X147892Y-178964D01*
X147827D01*
X147818Y-178955D01*
X147827Y-178936D01*
X147845Y-178909D01*
X147882Y-178862D01*
X147938Y-178807D01*
X148030Y-178724D01*
X148086Y-178677D01*
X148160Y-178622D01*
X148234Y-178557D01*
X148326Y-178492D01*
X148336D01*
X148345Y-178474D01*
X148373Y-178455D01*
X148410Y-178428D01*
X148511Y-178335D01*
X148576Y-178279D01*
X148641Y-178215D01*
X148715Y-178141D01*
X148798Y-178058D01*
X148881Y-177956D01*
X148974Y-177854D01*
X149066Y-177734D01*
X149159Y-177613D01*
X149261Y-177475D01*
X149362Y-177327D01*
X149372Y-177318D01*
X149390Y-177290D01*
X149409Y-177243D01*
X149446Y-177179D01*
X149483Y-177105D01*
X149529Y-177012D01*
X149575Y-176901D01*
X149631Y-176781D01*
X149677Y-176642D01*
X149714Y-176504D01*
X149760Y-176346D01*
X149788Y-176180D01*
X149816Y-175995D01*
X149834Y-175810D01*
X149843Y-175625D01*
X149834Y-175421D01*
Y-175412D01*
Y-175375D01*
X149825Y-175320D01*
X149816Y-175236D01*
X149806Y-175144D01*
X149788Y-175042D01*
X149769Y-174922D01*
X149742Y-174792D01*
X149668Y-174505D01*
X149575Y-174209D01*
X149446Y-173904D01*
X149372Y-173766D01*
X149288Y-173627D01*
X149279Y-173617D01*
X149270Y-173599D01*
X149242Y-173553D01*
X149205Y-173506D01*
X149168Y-173451D01*
X149113Y-173377D01*
X148992Y-173211D01*
X148844Y-173035D01*
X148687Y-172840D01*
X148511Y-172655D01*
X148326Y-172489D01*
X148317Y-172480D01*
X148308Y-172470D01*
X148243Y-172424D01*
X148160Y-172350D01*
X148067Y-172267D01*
X147975Y-172175D01*
X147892Y-172091D01*
X147864Y-172054D01*
X147836Y-172027D01*
X147818Y-171999D01*
Y-171980D01*
X147827Y-171971D01*
X147855D01*
X147910Y-171990D01*
D02*
G37*
G36*
X115443Y-171925D02*
X115063Y-172202D01*
Y-174542D01*
X117126D01*
X117644Y-174015D01*
X118384Y-174746D01*
X115063D01*
Y-178705D01*
X117922D01*
X118486Y-178141D01*
X119254Y-178909D01*
X112187D01*
X112094Y-178918D01*
X111983D01*
X111863Y-178936D01*
X111715Y-178955D01*
X111576Y-178973D01*
X111428Y-179010D01*
X111114Y-178705D01*
X114536D01*
Y-172831D01*
Y-172822D01*
Y-172803D01*
Y-172766D01*
Y-172720D01*
Y-172665D01*
Y-172591D01*
Y-172517D01*
Y-172424D01*
X114527Y-172230D01*
X114518Y-172008D01*
X114508Y-171758D01*
X114499Y-171499D01*
X115443Y-171925D01*
D02*
G37*
G36*
X88581D02*
X88201Y-172202D01*
Y-174542D01*
X90264D01*
X90782Y-174015D01*
X91522Y-174746D01*
X88201D01*
Y-178705D01*
X91060D01*
X91624Y-178141D01*
X92392Y-178909D01*
X85325D01*
X85232Y-178918D01*
X85121D01*
X85001Y-178936D01*
X84853Y-178955D01*
X84714Y-178973D01*
X84566Y-179010D01*
X84252Y-178705D01*
X87674D01*
Y-172831D01*
Y-172822D01*
Y-172803D01*
Y-172766D01*
Y-172720D01*
Y-172665D01*
Y-172591D01*
Y-172517D01*
Y-172424D01*
X87665Y-172230D01*
X87656Y-172008D01*
X87646Y-171758D01*
X87637Y-171499D01*
X88581Y-171925D01*
D02*
G37*
G36*
X-76042D02*
X-76421Y-172202D01*
Y-174542D01*
X-74358D01*
X-73840Y-174015D01*
X-73100Y-174746D01*
X-76421D01*
Y-178705D01*
X-73563D01*
X-72998Y-178141D01*
X-72231Y-178909D01*
X-79298D01*
X-79390Y-178918D01*
X-79501D01*
X-79621Y-178936D01*
X-79769Y-178955D01*
X-79908Y-178973D01*
X-80056Y-179010D01*
X-80371Y-178705D01*
X-76948D01*
Y-172831D01*
Y-172822D01*
Y-172803D01*
Y-172766D01*
Y-172720D01*
Y-172665D01*
Y-172591D01*
Y-172517D01*
Y-172424D01*
X-76957Y-172230D01*
X-76967Y-172008D01*
X-76976Y-171758D01*
X-76985Y-171499D01*
X-76042Y-171925D01*
D02*
G37*
G36*
X25172Y-176707D02*
X25190D01*
X25218Y-176725D01*
X25274Y-176744D01*
X25338Y-176772D01*
X25403Y-176809D01*
X25468Y-176855D01*
X25523Y-176910D01*
X25560Y-176975D01*
Y-176985D01*
X25570Y-177003D01*
X25588Y-177040D01*
X25597Y-177086D01*
X25625Y-177207D01*
X25634Y-177336D01*
Y-177345D01*
Y-177373D01*
X25625Y-177419D01*
Y-177484D01*
X25607Y-177558D01*
X25588Y-177660D01*
X25560Y-177761D01*
X25523Y-177882D01*
X25514Y-177900D01*
X25505Y-177937D01*
X25468Y-178002D01*
X25431Y-178094D01*
X25366Y-178196D01*
X25283Y-178326D01*
X25181Y-178455D01*
X25052Y-178603D01*
X25033Y-178622D01*
X24996Y-178668D01*
X24922Y-178733D01*
X24839Y-178807D01*
X24746Y-178881D01*
X24654Y-178955D01*
X24552Y-179010D01*
X24460Y-179038D01*
X24450D01*
X24423Y-179047D01*
X24349D01*
X24312Y-179057D01*
X24275D01*
X24247Y-179047D01*
X24238Y-179038D01*
Y-179029D01*
X24247Y-179010D01*
X24284Y-178973D01*
X24302Y-178955D01*
X24339Y-178927D01*
X24349Y-178918D01*
X24376Y-178899D01*
X24413Y-178862D01*
X24469Y-178816D01*
X24534Y-178751D01*
X24598Y-178686D01*
X24737Y-178520D01*
X24746Y-178511D01*
X24774Y-178474D01*
X24811Y-178418D01*
X24857Y-178344D01*
X24904Y-178243D01*
X24968Y-178122D01*
X25024Y-177983D01*
X25079Y-177817D01*
X25024D01*
X24968Y-177808D01*
X24904D01*
X24746Y-177771D01*
X24672Y-177752D01*
X24617Y-177715D01*
X24608Y-177706D01*
X24598Y-177697D01*
X24543Y-177641D01*
X24478Y-177558D01*
X24423Y-177438D01*
Y-177428D01*
X24413Y-177410D01*
Y-177373D01*
X24404Y-177327D01*
X24395Y-177225D01*
X24404Y-177105D01*
Y-177095D01*
X24413Y-177077D01*
X24423Y-177049D01*
X24450Y-177003D01*
X24478Y-176957D01*
X24524Y-176901D01*
X24580Y-176846D01*
X24645Y-176790D01*
X24654Y-176781D01*
X24682Y-176762D01*
X24728Y-176744D01*
X24793Y-176716D01*
X24867Y-176698D01*
X24959Y-176689D01*
X25061D01*
X25172Y-176707D01*
D02*
G37*
G36*
X73956Y-175967D02*
X71302D01*
Y-178316D01*
Y-178326D01*
Y-178335D01*
X71311Y-178400D01*
X71329Y-178474D01*
X71366Y-178566D01*
X71394Y-178622D01*
X71440Y-178668D01*
X71487Y-178705D01*
X71551Y-178742D01*
X71625Y-178779D01*
X71709Y-178807D01*
X71810Y-178816D01*
X71931Y-178825D01*
X73244D01*
X73281Y-178816D01*
X73337Y-178797D01*
X73411Y-178770D01*
X73485Y-178733D01*
X73549Y-178677D01*
X73605Y-178594D01*
X73642Y-178501D01*
Y-178483D01*
X73651Y-178464D01*
Y-178437D01*
X73660Y-178400D01*
X73670Y-178354D01*
X73679Y-178289D01*
X73688Y-178224D01*
Y-178141D01*
X73697Y-178048D01*
X73707Y-177937D01*
X73716Y-177808D01*
X73725Y-177669D01*
X73734Y-177521D01*
X73744Y-177345D01*
X73753Y-177160D01*
X73892D01*
Y-177170D01*
Y-177188D01*
Y-177216D01*
X73901Y-177253D01*
X73910Y-177364D01*
X73919Y-177493D01*
X73929Y-177650D01*
X73947Y-177826D01*
X73975Y-178178D01*
Y-178187D01*
Y-178196D01*
X73993Y-178252D01*
X74012Y-178326D01*
X74049Y-178418D01*
X74104Y-178520D01*
X74178Y-178612D01*
X74280Y-178696D01*
X74410Y-178761D01*
Y-178770D01*
X74400Y-178779D01*
X74354Y-178844D01*
X74280Y-178927D01*
X74178Y-179019D01*
X74104Y-179066D01*
X74030Y-179112D01*
X73947Y-179149D01*
X73855Y-179186D01*
X73744Y-179214D01*
X73633Y-179242D01*
X73503Y-179251D01*
X71672D01*
X71607Y-179242D01*
X71533Y-179232D01*
X71459Y-179214D01*
X71376Y-179195D01*
X71283Y-179167D01*
X71200Y-179121D01*
X71107Y-179075D01*
X71033Y-179010D01*
X70959Y-178936D01*
X70895Y-178853D01*
X70848Y-178742D01*
X70821Y-178622D01*
X70811Y-178483D01*
Y-175967D01*
X69553D01*
Y-175976D01*
Y-176013D01*
X69544Y-176059D01*
X69535Y-176134D01*
X69526Y-176217D01*
X69507Y-176319D01*
X69489Y-176420D01*
X69470Y-176541D01*
X69424Y-176809D01*
X69368Y-177086D01*
X69304Y-177373D01*
X69220Y-177650D01*
Y-177660D01*
X69211Y-177678D01*
X69193Y-177715D01*
X69174Y-177771D01*
X69146Y-177826D01*
X69119Y-177891D01*
X69035Y-178058D01*
X68924Y-178233D01*
X68776Y-178418D01*
X68610Y-178612D01*
X68397Y-178779D01*
X68388Y-178788D01*
X68369Y-178797D01*
X68332Y-178825D01*
X68286Y-178853D01*
X68212Y-178890D01*
X68138Y-178936D01*
X68036Y-178992D01*
X67925Y-179047D01*
X67796Y-179112D01*
X67648Y-179177D01*
X67481Y-179251D01*
X67296Y-179325D01*
X67093Y-179399D01*
X66880Y-179482D01*
X66640Y-179556D01*
X66381Y-179639D01*
X66344Y-179491D01*
X66353D01*
X66362Y-179482D01*
X66418Y-179464D01*
X66501Y-179427D01*
X66612Y-179380D01*
X66751Y-179325D01*
X66899Y-179251D01*
X67065Y-179177D01*
X67241Y-179084D01*
X67602Y-178881D01*
X67777Y-178770D01*
X67944Y-178659D01*
X68110Y-178529D01*
X68249Y-178409D01*
X68369Y-178270D01*
X68471Y-178141D01*
X68480Y-178131D01*
X68490Y-178104D01*
X68517Y-178067D01*
X68545Y-178002D01*
X68582Y-177928D01*
X68619Y-177836D01*
X68665Y-177725D01*
X68712Y-177595D01*
X68758Y-177447D01*
X68804Y-177290D01*
X68860Y-177114D01*
X68897Y-176910D01*
X68943Y-176707D01*
X68980Y-176476D01*
X69008Y-176226D01*
X69035Y-175967D01*
X67528D01*
X67037Y-176041D01*
X66760Y-175763D01*
X72698D01*
X73226Y-175236D01*
X73956Y-175967D01*
D02*
G37*
G36*
X22304Y-172443D02*
X20316D01*
Y-175070D01*
X21426D01*
X21990Y-174505D01*
X22758Y-175273D01*
X20316D01*
Y-178002D01*
Y-178011D01*
Y-178030D01*
Y-178067D01*
Y-178113D01*
Y-178178D01*
Y-178243D01*
Y-178326D01*
Y-178409D01*
X20325Y-178612D01*
Y-178825D01*
X20334Y-179057D01*
X20343Y-179288D01*
X19751Y-179500D01*
Y-179491D01*
Y-179454D01*
Y-179399D01*
X19761Y-179325D01*
Y-179242D01*
Y-179130D01*
X19770Y-179019D01*
Y-178890D01*
X19779Y-178612D01*
Y-178316D01*
X19788Y-178011D01*
Y-177725D01*
Y-175273D01*
X17624D01*
Y-175292D01*
Y-175338D01*
X17615Y-175421D01*
X17605Y-175523D01*
X17596Y-175653D01*
X17578Y-175801D01*
X17559Y-175967D01*
X17531Y-176152D01*
X17494Y-176346D01*
X17448Y-176550D01*
X17393Y-176753D01*
X17328Y-176966D01*
X17254Y-177179D01*
X17171Y-177382D01*
X17069Y-177586D01*
X16958Y-177780D01*
X16949Y-177789D01*
X16930Y-177826D01*
X16893Y-177873D01*
X16838Y-177946D01*
X16764Y-178030D01*
X16680Y-178131D01*
X16579Y-178252D01*
X16458Y-178372D01*
X16320Y-178511D01*
X16162Y-178649D01*
X15987Y-178797D01*
X15792Y-178955D01*
X15580Y-179112D01*
X15348Y-179269D01*
X15099Y-179417D01*
X14830Y-179575D01*
X14719Y-179464D01*
X14729Y-179454D01*
X14775Y-179427D01*
X14830Y-179390D01*
X14914Y-179334D01*
X15006Y-179269D01*
X15117Y-179186D01*
X15237Y-179084D01*
X15376Y-178982D01*
X15515Y-178862D01*
X15654Y-178733D01*
X15802Y-178594D01*
X15950Y-178455D01*
X16227Y-178141D01*
X16347Y-177974D01*
X16468Y-177798D01*
X16477Y-177789D01*
X16495Y-177752D01*
X16523Y-177697D01*
X16560Y-177623D01*
X16606Y-177530D01*
X16653Y-177419D01*
X16708Y-177280D01*
X16773Y-177132D01*
X16828Y-176957D01*
X16884Y-176762D01*
X16930Y-176559D01*
X16986Y-176337D01*
X17023Y-176096D01*
X17060Y-175838D01*
X17087Y-175560D01*
X17097Y-175273D01*
X15663D01*
X15570Y-175283D01*
X15459D01*
X15330Y-175301D01*
X15191Y-175320D01*
X15043Y-175347D01*
X14895Y-175384D01*
X14581Y-175070D01*
X17097D01*
Y-172443D01*
X16153D01*
X16061Y-172452D01*
X15950D01*
X15820Y-172470D01*
X15681Y-172489D01*
X15533Y-172517D01*
X15385Y-172554D01*
X15071Y-172239D01*
X21046D01*
X21574Y-171712D01*
X22304Y-172443D01*
D02*
G37*
G36*
X-41761Y-171786D02*
X-42039Y-171990D01*
X-42048Y-171999D01*
X-42066Y-172045D01*
X-42094Y-172110D01*
X-42131Y-172193D01*
X-42187Y-172295D01*
X-42242Y-172415D01*
X-42307Y-172545D01*
X-42372Y-172683D01*
X-42510Y-172979D01*
X-42658Y-173294D01*
X-42797Y-173590D01*
X-42862Y-173729D01*
X-42917Y-173849D01*
X-42566Y-174052D01*
X-42779Y-174265D01*
Y-177549D01*
Y-177558D01*
Y-177604D01*
Y-177669D01*
Y-177752D01*
Y-177854D01*
Y-177974D01*
Y-178104D01*
X-42769Y-178243D01*
Y-178539D01*
X-42760Y-178834D01*
Y-178982D01*
X-42751Y-179112D01*
Y-179242D01*
X-42742Y-179352D01*
X-43260Y-179602D01*
Y-179584D01*
Y-179537D01*
Y-179473D01*
X-43250Y-179380D01*
Y-179260D01*
Y-179130D01*
Y-178982D01*
X-43241Y-178825D01*
Y-178483D01*
X-43232Y-178131D01*
Y-177789D01*
Y-177623D01*
Y-177475D01*
Y-174404D01*
X-43241Y-174413D01*
X-43260Y-174441D01*
X-43306Y-174496D01*
X-43352Y-174561D01*
X-43417Y-174635D01*
X-43491Y-174727D01*
X-43574Y-174829D01*
X-43667Y-174940D01*
X-43870Y-175171D01*
X-44083Y-175403D01*
X-44305Y-175634D01*
X-44416Y-175736D01*
X-44518Y-175838D01*
X-44592Y-175726D01*
X-44582Y-175717D01*
X-44555Y-175680D01*
X-44508Y-175616D01*
X-44444Y-175532D01*
X-44360Y-175431D01*
X-44277Y-175310D01*
X-44175Y-175171D01*
X-44074Y-175014D01*
X-43963Y-174838D01*
X-43842Y-174653D01*
X-43722Y-174450D01*
X-43602Y-174237D01*
X-43482Y-174015D01*
X-43361Y-173784D01*
X-43149Y-173284D01*
X-43139Y-173266D01*
X-43121Y-173229D01*
X-43093Y-173155D01*
X-43065Y-173063D01*
X-43019Y-172951D01*
X-42973Y-172822D01*
X-42917Y-172683D01*
X-42862Y-172535D01*
X-42751Y-172221D01*
X-42640Y-171897D01*
X-42594Y-171749D01*
X-42547Y-171601D01*
X-42520Y-171472D01*
X-42492Y-171361D01*
X-41761Y-171786D01*
D02*
G37*
G36*
X-14936Y-178733D02*
Y-178742D01*
Y-178751D01*
Y-178779D01*
Y-178816D01*
X-14945Y-178899D01*
X-14955Y-179019D01*
X-14982Y-179140D01*
X-15010Y-179279D01*
X-15056Y-179408D01*
X-15112Y-179528D01*
X-15121Y-179537D01*
X-15149Y-179575D01*
X-15186Y-179630D01*
X-15251Y-179704D01*
X-15325Y-179778D01*
X-15417Y-179852D01*
X-15537Y-179935D01*
X-15667Y-180000D01*
X-15889Y-179667D01*
X-15880Y-179658D01*
X-15852Y-179648D01*
X-15806Y-179621D01*
X-15750Y-179584D01*
X-15695Y-179537D01*
X-15630Y-179482D01*
X-15574Y-179417D01*
X-15528Y-179343D01*
X-15519Y-179334D01*
X-15510Y-179306D01*
X-15491Y-179251D01*
X-15463Y-179186D01*
X-15445Y-179103D01*
X-15417Y-178992D01*
X-15399Y-178872D01*
X-15389Y-178733D01*
X-15833D01*
Y-177836D01*
X-14936D01*
Y-178733D01*
D02*
G37*
G36*
X77459Y89994D02*
X77526D01*
X77603Y89983D01*
X77698Y89972D01*
X77803Y89956D01*
X77914Y89933D01*
X78031Y89911D01*
X78153Y89878D01*
X78275Y89833D01*
X78403Y89784D01*
X78525Y89728D01*
X78647Y89656D01*
X78758Y89578D01*
X78863Y89489D01*
X78869Y89484D01*
X78886Y89467D01*
X78913Y89434D01*
X78947Y89395D01*
X78991Y89345D01*
X79035Y89284D01*
X79085Y89212D01*
X79135Y89129D01*
X79185Y89040D01*
X79235Y88940D01*
X79280Y88829D01*
X79324Y88712D01*
X79357Y88585D01*
X79385Y88451D01*
X79402Y88313D01*
X79407Y88163D01*
Y88113D01*
X79402Y88074D01*
Y88024D01*
X79396Y87974D01*
X79385Y87908D01*
X79374Y87841D01*
X79346Y87697D01*
X79302Y87530D01*
X79235Y87369D01*
X79196Y87286D01*
X79152Y87203D01*
X79146Y87197D01*
X79141Y87186D01*
X79124Y87164D01*
X79107Y87131D01*
X79080Y87097D01*
X79046Y87053D01*
X78969Y86959D01*
X78869Y86859D01*
X78747Y86748D01*
X78602Y86642D01*
X78442Y86553D01*
X78436D01*
X78419Y86542D01*
X78397Y86531D01*
X78364Y86520D01*
X78319Y86498D01*
X78269Y86481D01*
X78208Y86459D01*
X78142Y86437D01*
X78070Y86420D01*
X77992Y86398D01*
X77903Y86376D01*
X77814Y86359D01*
X77620Y86337D01*
X77409Y86326D01*
X77404D01*
X77381D01*
X77354D01*
X77309Y86331D01*
X77259D01*
X77198Y86337D01*
X77132Y86348D01*
X77060Y86354D01*
X76899Y86381D01*
X76721Y86426D01*
X76543Y86487D01*
X76455Y86520D01*
X76366Y86564D01*
X76360D01*
X76344Y86576D01*
X76321Y86587D01*
X76288Y86609D01*
X76249Y86631D01*
X76210Y86659D01*
X76105Y86737D01*
X75994Y86831D01*
X75877Y86942D01*
X75766Y87075D01*
X75666Y87231D01*
Y87236D01*
X75655Y87247D01*
X75644Y87275D01*
X75628Y87308D01*
X75611Y87347D01*
X75594Y87392D01*
X75572Y87447D01*
X75550Y87508D01*
X75528Y87575D01*
X75506Y87647D01*
X75472Y87808D01*
X75445Y87980D01*
X75433Y88163D01*
Y88218D01*
X75439Y88252D01*
Y88302D01*
X75450Y88357D01*
X75456Y88418D01*
X75467Y88490D01*
X75500Y88640D01*
X75544Y88801D01*
X75611Y88968D01*
X75650Y89051D01*
X75694Y89134D01*
X75700Y89140D01*
X75705Y89151D01*
X75722Y89173D01*
X75744Y89206D01*
X75766Y89240D01*
X75800Y89279D01*
X75883Y89373D01*
X75983Y89478D01*
X76105Y89589D01*
X76244Y89689D01*
X76405Y89784D01*
X76410D01*
X76427Y89795D01*
X76449Y89806D01*
X76482Y89817D01*
X76527Y89833D01*
X76577Y89850D01*
X76632Y89872D01*
X76693Y89889D01*
X76765Y89911D01*
X76837Y89933D01*
X77004Y89967D01*
X77176Y89989D01*
X77365Y90000D01*
X77370D01*
X77376D01*
X77409D01*
X77459Y89994D01*
D02*
G37*
G36*
X79341Y85155D02*
X76321Y83140D01*
X79341D01*
Y82652D01*
X75500D01*
Y83179D01*
X78514Y85188D01*
X75500D01*
Y85676D01*
X79341D01*
Y85155D01*
D02*
G37*
G36*
X144848Y-127000D02*
X144321D01*
X142312Y-123986D01*
Y-127000D01*
X141823D01*
Y-123159D01*
X142345D01*
X144360Y-126179D01*
Y-123159D01*
X144848D01*
Y-127000D01*
D02*
G37*
G36*
X139426Y-123098D02*
X139476D01*
X139526Y-123104D01*
X139592Y-123115D01*
X139659Y-123126D01*
X139803Y-123154D01*
X139970Y-123198D01*
X140131Y-123265D01*
X140214Y-123304D01*
X140297Y-123348D01*
X140303Y-123354D01*
X140314Y-123359D01*
X140336Y-123376D01*
X140369Y-123392D01*
X140403Y-123420D01*
X140447Y-123453D01*
X140541Y-123531D01*
X140641Y-123631D01*
X140752Y-123753D01*
X140858Y-123898D01*
X140947Y-124058D01*
Y-124064D01*
X140958Y-124081D01*
X140969Y-124103D01*
X140980Y-124136D01*
X141002Y-124181D01*
X141019Y-124231D01*
X141041Y-124292D01*
X141063Y-124358D01*
X141080Y-124430D01*
X141102Y-124508D01*
X141124Y-124597D01*
X141141Y-124686D01*
X141163Y-124880D01*
X141174Y-125091D01*
Y-125096D01*
Y-125119D01*
Y-125146D01*
X141169Y-125191D01*
Y-125241D01*
X141163Y-125302D01*
X141152Y-125368D01*
X141146Y-125441D01*
X141119Y-125601D01*
X141074Y-125779D01*
X141013Y-125957D01*
X140980Y-126045D01*
X140935Y-126134D01*
Y-126140D01*
X140924Y-126156D01*
X140913Y-126179D01*
X140891Y-126212D01*
X140869Y-126251D01*
X140841Y-126290D01*
X140763Y-126395D01*
X140669Y-126506D01*
X140558Y-126623D01*
X140425Y-126734D01*
X140269Y-126833D01*
X140264D01*
X140253Y-126845D01*
X140225Y-126856D01*
X140192Y-126872D01*
X140153Y-126889D01*
X140109Y-126906D01*
X140053Y-126928D01*
X139992Y-126950D01*
X139925Y-126972D01*
X139853Y-126995D01*
X139692Y-127028D01*
X139520Y-127056D01*
X139337Y-127067D01*
X139281D01*
X139248Y-127061D01*
X139198D01*
X139143Y-127050D01*
X139082Y-127044D01*
X139010Y-127033D01*
X138860Y-127000D01*
X138699Y-126956D01*
X138532Y-126889D01*
X138449Y-126850D01*
X138366Y-126806D01*
X138360Y-126800D01*
X138349Y-126795D01*
X138327Y-126778D01*
X138294Y-126756D01*
X138260Y-126734D01*
X138222Y-126700D01*
X138127Y-126617D01*
X138022Y-126517D01*
X137911Y-126395D01*
X137811Y-126256D01*
X137716Y-126095D01*
Y-126090D01*
X137705Y-126073D01*
X137694Y-126051D01*
X137683Y-126018D01*
X137666Y-125973D01*
X137650Y-125923D01*
X137628Y-125868D01*
X137611Y-125807D01*
X137589Y-125735D01*
X137567Y-125662D01*
X137533Y-125496D01*
X137511Y-125324D01*
X137500Y-125135D01*
Y-125130D01*
Y-125124D01*
Y-125091D01*
X137505Y-125041D01*
Y-124974D01*
X137517Y-124897D01*
X137528Y-124802D01*
X137544Y-124697D01*
X137567Y-124586D01*
X137589Y-124469D01*
X137622Y-124347D01*
X137666Y-124225D01*
X137716Y-124097D01*
X137772Y-123975D01*
X137844Y-123853D01*
X137922Y-123742D01*
X138011Y-123637D01*
X138016Y-123631D01*
X138033Y-123615D01*
X138066Y-123587D01*
X138105Y-123553D01*
X138155Y-123509D01*
X138216Y-123465D01*
X138288Y-123415D01*
X138371Y-123365D01*
X138460Y-123315D01*
X138560Y-123265D01*
X138671Y-123221D01*
X138788Y-123176D01*
X138915Y-123143D01*
X139049Y-123115D01*
X139187Y-123098D01*
X139337Y-123093D01*
X139387D01*
X139426Y-123098D01*
D02*
G37*
%LPC*%
G36*
X-38024Y-172304D02*
X-40781D01*
Y-174339D01*
X-38024D01*
Y-172304D01*
D02*
G37*
G36*
X131325Y-172933D02*
X129891D01*
Y-175042D01*
X131325D01*
Y-172933D01*
D02*
G37*
G36*
Y-175245D02*
X129891D01*
Y-177484D01*
X131325D01*
Y-175245D01*
D02*
G37*
G36*
X126321Y-173497D02*
X124156D01*
Y-175005D01*
X126321D01*
Y-173497D01*
D02*
G37*
G36*
X123666D02*
X121566D01*
Y-175005D01*
X123666D01*
Y-173497D01*
D02*
G37*
G36*
X126321Y-175208D02*
X124156D01*
Y-176781D01*
X126321D01*
Y-175208D01*
D02*
G37*
G36*
X123666D02*
X121566D01*
Y-176781D01*
X123666D01*
Y-175208D01*
D02*
G37*
G36*
X99459Y-173497D02*
X97294D01*
Y-175005D01*
X99459D01*
Y-173497D01*
D02*
G37*
G36*
X96804D02*
X94704D01*
Y-175005D01*
X96804D01*
Y-173497D01*
D02*
G37*
G36*
X99459Y-175208D02*
X97294D01*
Y-176781D01*
X99459D01*
Y-175208D01*
D02*
G37*
G36*
X96804D02*
X94704D01*
Y-176781D01*
X96804D01*
Y-175208D01*
D02*
G37*
G36*
X-65164Y-173497D02*
X-67328D01*
Y-175005D01*
X-65164D01*
Y-173497D01*
D02*
G37*
G36*
X-67818D02*
X-69918D01*
Y-175005D01*
X-67818D01*
Y-173497D01*
D02*
G37*
G36*
X-65164Y-175208D02*
X-67328D01*
Y-176781D01*
X-65164D01*
Y-175208D01*
D02*
G37*
G36*
X-67818D02*
X-69918D01*
Y-176781D01*
X-67818D01*
Y-175208D01*
D02*
G37*
G36*
X38390Y-173951D02*
X34764D01*
Y-174931D01*
X38390D01*
Y-173951D01*
D02*
G37*
G36*
Y-175135D02*
X34764D01*
Y-176189D01*
X38390D01*
Y-175135D01*
D02*
G37*
G36*
Y-176392D02*
X34764D01*
Y-177484D01*
X38390D01*
Y-176392D01*
D02*
G37*
G36*
Y-177688D02*
X34764D01*
Y-178797D01*
X38390D01*
Y-177688D01*
D02*
G37*
G36*
X-59281Y-174441D02*
X-60964D01*
Y-175597D01*
X-59281D01*
Y-174441D01*
D02*
G37*
G36*
Y-175801D02*
X-60964D01*
Y-176957D01*
X-59281D01*
Y-175801D01*
D02*
G37*
G36*
X-51104Y-175060D02*
X-52186D01*
Y-177549D01*
X-51104D01*
Y-175060D01*
D02*
G37*
G36*
X-47293Y-172720D02*
X-48865D01*
Y-172730D01*
X-48884Y-172748D01*
X-48902Y-172776D01*
X-48930Y-172813D01*
X-49004Y-172915D01*
X-49106Y-173044D01*
X-49217Y-173201D01*
X-49346Y-173368D01*
X-49485Y-173553D01*
X-49633Y-173738D01*
X-49180Y-174024D01*
X-47986D01*
X-47293Y-172720D01*
D02*
G37*
G36*
X-46386Y-174228D02*
X-47607D01*
Y-175449D01*
X-46386D01*
Y-174228D01*
D02*
G37*
G36*
X-48023D02*
X-49217D01*
Y-175449D01*
X-48023D01*
Y-174228D01*
D02*
G37*
G36*
X-46386Y-175653D02*
X-47607D01*
Y-176846D01*
X-46386D01*
Y-175653D01*
D02*
G37*
G36*
X-48023D02*
X-49217D01*
X-49244Y-176846D01*
X-48023D01*
Y-175653D01*
D02*
G37*
G36*
X19788Y-172443D02*
X17624D01*
Y-175070D01*
X19788D01*
Y-172443D01*
D02*
G37*
G36*
X77359Y89478D02*
X77354D01*
X77332D01*
X77293D01*
X77243Y89473D01*
X77187Y89467D01*
X77121Y89456D01*
X77043Y89445D01*
X76965Y89434D01*
X76788Y89389D01*
X76699Y89356D01*
X76604Y89323D01*
X76516Y89279D01*
X76427Y89228D01*
X76344Y89173D01*
X76266Y89106D01*
X76260Y89101D01*
X76249Y89090D01*
X76227Y89068D01*
X76205Y89040D01*
X76172Y89001D01*
X76138Y88957D01*
X76105Y88907D01*
X76066Y88851D01*
X76027Y88785D01*
X75994Y88712D01*
X75961Y88635D01*
X75927Y88551D01*
X75905Y88463D01*
X75883Y88374D01*
X75872Y88274D01*
X75866Y88169D01*
Y88141D01*
X75872Y88113D01*
Y88074D01*
X75877Y88024D01*
X75889Y87969D01*
X75900Y87902D01*
X75916Y87836D01*
X75938Y87758D01*
X75966Y87686D01*
X75994Y87602D01*
X76033Y87525D01*
X76083Y87447D01*
X76133Y87369D01*
X76194Y87292D01*
X76266Y87219D01*
X76271Y87214D01*
X76283Y87203D01*
X76310Y87186D01*
X76344Y87158D01*
X76382Y87131D01*
X76432Y87103D01*
X76493Y87070D01*
X76560Y87031D01*
X76638Y86997D01*
X76727Y86964D01*
X76821Y86936D01*
X76921Y86903D01*
X77032Y86881D01*
X77154Y86864D01*
X77282Y86853D01*
X77415Y86848D01*
X77420D01*
X77437D01*
X77459D01*
X77492D01*
X77531Y86853D01*
X77581D01*
X77631Y86859D01*
X77692Y86870D01*
X77820Y86887D01*
X77953Y86914D01*
X78097Y86953D01*
X78231Y87009D01*
X78236D01*
X78247Y87014D01*
X78264Y87025D01*
X78286Y87036D01*
X78353Y87075D01*
X78430Y87125D01*
X78519Y87192D01*
X78608Y87275D01*
X78697Y87369D01*
X78774Y87475D01*
Y87480D01*
X78786Y87486D01*
X78791Y87502D01*
X78808Y87530D01*
X78819Y87558D01*
X78836Y87591D01*
X78874Y87674D01*
X78908Y87774D01*
X78941Y87891D01*
X78963Y88024D01*
X78969Y88163D01*
Y88213D01*
X78963Y88252D01*
X78958Y88302D01*
X78947Y88352D01*
X78935Y88413D01*
X78924Y88479D01*
X78880Y88624D01*
X78847Y88701D01*
X78813Y88779D01*
X78769Y88862D01*
X78719Y88940D01*
X78663Y89018D01*
X78597Y89090D01*
X78591Y89095D01*
X78580Y89106D01*
X78558Y89123D01*
X78525Y89151D01*
X78486Y89179D01*
X78436Y89212D01*
X78375Y89245D01*
X78303Y89284D01*
X78225Y89317D01*
X78131Y89356D01*
X78031Y89389D01*
X77920Y89417D01*
X77798Y89445D01*
X77659Y89462D01*
X77515Y89473D01*
X77359Y89478D01*
D02*
G37*
G36*
X139337Y-123531D02*
X139287D01*
X139248Y-123537D01*
X139198Y-123542D01*
X139148Y-123553D01*
X139087Y-123565D01*
X139021Y-123576D01*
X138876Y-123620D01*
X138799Y-123653D01*
X138721Y-123687D01*
X138638Y-123731D01*
X138560Y-123781D01*
X138482Y-123837D01*
X138410Y-123903D01*
X138405Y-123909D01*
X138394Y-123920D01*
X138377Y-123942D01*
X138349Y-123975D01*
X138321Y-124014D01*
X138288Y-124064D01*
X138255Y-124125D01*
X138216Y-124197D01*
X138183Y-124275D01*
X138144Y-124369D01*
X138110Y-124469D01*
X138083Y-124580D01*
X138055Y-124702D01*
X138038Y-124841D01*
X138027Y-124985D01*
X138022Y-125141D01*
Y-125146D01*
Y-125169D01*
Y-125207D01*
X138027Y-125257D01*
X138033Y-125313D01*
X138044Y-125379D01*
X138055Y-125457D01*
X138066Y-125535D01*
X138110Y-125712D01*
X138144Y-125801D01*
X138177Y-125896D01*
X138222Y-125984D01*
X138271Y-126073D01*
X138327Y-126156D01*
X138394Y-126234D01*
X138399Y-126240D01*
X138410Y-126251D01*
X138432Y-126273D01*
X138460Y-126295D01*
X138499Y-126328D01*
X138543Y-126362D01*
X138593Y-126395D01*
X138649Y-126434D01*
X138716Y-126473D01*
X138788Y-126506D01*
X138865Y-126539D01*
X138949Y-126573D01*
X139037Y-126595D01*
X139126Y-126617D01*
X139226Y-126628D01*
X139331Y-126634D01*
X139359D01*
X139387Y-126628D01*
X139426D01*
X139476Y-126623D01*
X139531Y-126611D01*
X139598Y-126600D01*
X139664Y-126584D01*
X139742Y-126562D01*
X139814Y-126534D01*
X139898Y-126506D01*
X139975Y-126467D01*
X140053Y-126417D01*
X140131Y-126367D01*
X140208Y-126306D01*
X140280Y-126234D01*
X140286Y-126228D01*
X140297Y-126217D01*
X140314Y-126190D01*
X140342Y-126156D01*
X140369Y-126118D01*
X140397Y-126068D01*
X140430Y-126006D01*
X140469Y-125940D01*
X140503Y-125862D01*
X140536Y-125774D01*
X140564Y-125679D01*
X140597Y-125579D01*
X140619Y-125468D01*
X140636Y-125346D01*
X140647Y-125218D01*
X140652Y-125085D01*
Y-125080D01*
Y-125063D01*
Y-125041D01*
Y-125007D01*
X140647Y-124969D01*
Y-124919D01*
X140641Y-124869D01*
X140630Y-124808D01*
X140614Y-124680D01*
X140586Y-124547D01*
X140547Y-124403D01*
X140491Y-124269D01*
Y-124264D01*
X140486Y-124253D01*
X140475Y-124236D01*
X140464Y-124214D01*
X140425Y-124147D01*
X140375Y-124070D01*
X140308Y-123981D01*
X140225Y-123892D01*
X140131Y-123803D01*
X140025Y-123725D01*
X140020D01*
X140014Y-123714D01*
X139997Y-123709D01*
X139970Y-123692D01*
X139942Y-123681D01*
X139909Y-123664D01*
X139825Y-123626D01*
X139725Y-123592D01*
X139609Y-123559D01*
X139476Y-123537D01*
X139337Y-123531D01*
D02*
G37*
%LPD*%
D10*
X-11610Y-151500D02*
G03*
X-10035Y-153075I1575J0D01*
G01*
X-6965D02*
G03*
X-5390Y-151500I0J1575D01*
G01*
X-5390Y-142563D02*
G03*
X-6965Y-140988I-1575J-0D01*
G01*
X-10035Y-140988D02*
G03*
X-11610Y-142563I0J-1575D01*
G01*
X-19110Y-151500D02*
G03*
X-17535Y-153075I1575J0D01*
G01*
X-14465D02*
G03*
X-12890Y-151500I0J1575D01*
G01*
X-12890Y-142563D02*
G03*
X-14465Y-140988I-1575J-0D01*
G01*
X-17535Y-140988D02*
G03*
X-19110Y-142563I0J-1575D01*
G01*
X106724Y91556D02*
G03*
X105149Y89981I0J-1575D01*
G01*
Y86910D02*
G03*
X106724Y85336I1575J-0D01*
G01*
X115661Y85336D02*
G03*
X117236Y86910I-0J1575D01*
G01*
X117236Y89981D02*
G03*
X115661Y91556I-1575J0D01*
G01*
X121968Y77390D02*
G03*
X123543Y78965I-0J1575D01*
G01*
Y82035D02*
G03*
X121968Y83610I-1575J0D01*
G01*
X113031Y83610D02*
G03*
X111457Y82035I0J-1575D01*
G01*
X111457Y78965D02*
G03*
X113031Y77390I1575J0D01*
G01*
X48500Y77500D02*
X88000D01*
X48500D02*
Y94500D01*
X88000D01*
Y77500D02*
Y94500D01*
X150000Y-154000D02*
Y-114500D01*
X133000Y-154000D02*
X150000D01*
X133000D02*
Y-114500D01*
X150000D01*
X-5390Y-151500D02*
Y-148606D01*
X-5390Y-145457D02*
Y-142563D01*
X-11610Y-145457D02*
Y-142563D01*
X-10035Y-153075D02*
X-6965D01*
X-10035Y-140988D02*
X-6965D01*
X-11610Y-151500D02*
Y-148606D01*
X-12890Y-151500D02*
Y-148606D01*
X-12890Y-145457D02*
Y-142563D01*
X-19110Y-145457D02*
Y-142563D01*
X-17535Y-153075D02*
X-14465D01*
X-17535Y-140988D02*
X-14465D01*
X-19110Y-151500D02*
Y-148606D01*
X106724Y85336D02*
X109618D01*
X112768Y85336D02*
X115661D01*
X112768Y91556D02*
X115661D01*
X105149Y86910D02*
Y89981D01*
X117236Y86910D02*
Y89981D01*
X106724Y91556D02*
X109618D01*
X119075Y83610D02*
X121968D01*
X113031Y83610D02*
X115925D01*
X113031Y77390D02*
X115925D01*
X123543Y78965D02*
Y82035D01*
X111457Y78965D02*
Y82035D01*
X119075Y77390D02*
X121968D01*
D11*
X-26539Y64050D02*
G03*
X-26539Y64050I-461J0D01*
G01*
X137634Y-106150D02*
X136635Y-105150D01*
X134635D01*
X133635Y-106150D01*
Y-107149D01*
X134635Y-108149D01*
X136635D01*
X137634Y-109149D01*
Y-110148D01*
X136635Y-111148D01*
X134635D01*
X133635Y-110148D01*
X139634Y-105150D02*
Y-111148D01*
X141633Y-109149D01*
X143632Y-111148D01*
Y-105150D01*
X149630Y-111148D02*
X145632D01*
X149630Y-107149D01*
Y-106150D01*
X148631Y-105150D01*
X146631D01*
X145632Y-106150D01*
X32001Y87999D02*
X31001Y88999D01*
X29002D01*
X28002Y87999D01*
Y87000D01*
X29002Y86000D01*
X31001D01*
X32001Y85000D01*
Y84001D01*
X31001Y83001D01*
X29002D01*
X28002Y84001D01*
X34000Y88999D02*
Y83001D01*
X36000Y85000D01*
X37999Y83001D01*
Y88999D01*
X39998Y83001D02*
X41998D01*
X40998D01*
Y88999D01*
X39998Y87999D01*
X-52665Y-130250D02*
Y-134249D01*
X-50665Y-136248D01*
X-48666Y-134249D01*
Y-130250D01*
X-46666Y-136248D02*
X-44667D01*
X-45667D01*
Y-130250D01*
X-46666Y-131250D01*
X97193Y91445D02*
X96193Y92445D01*
X94194D01*
X93194Y91445D01*
Y87446D01*
X94194Y86447D01*
X96193D01*
X97193Y87446D01*
X102191Y86447D02*
Y92445D01*
X99192Y89446D01*
X103191D01*
X130000Y82499D02*
X129001Y83499D01*
X127001D01*
X126002Y82499D01*
Y78501D01*
X127001Y77501D01*
X129001D01*
X130000Y78501D01*
X132000Y82499D02*
X132999Y83499D01*
X134999D01*
X135998Y82499D01*
Y81500D01*
X134999Y80500D01*
X133999D01*
X134999D01*
X135998Y79500D01*
Y78501D01*
X134999Y77501D01*
X132999D01*
X132000Y78501D01*
X-8999Y-133500D02*
X-9999Y-134499D01*
Y-136499D01*
X-8999Y-137498D01*
X-5001D01*
X-4001Y-136499D01*
Y-134499D01*
X-5001Y-133500D01*
X-4001Y-127502D02*
Y-131500D01*
X-8000Y-127502D01*
X-8999D01*
X-9999Y-128501D01*
Y-130501D01*
X-8999Y-131500D01*
X-19499Y-134000D02*
X-20499Y-135000D01*
Y-136999D01*
X-19499Y-137999D01*
X-15501D01*
X-14501Y-136999D01*
Y-135000D01*
X-15501Y-134000D01*
X-14501Y-132001D02*
Y-130001D01*
Y-131001D01*
X-20499D01*
X-19499Y-132001D01*
D12*
X-22213Y-166000D02*
G03*
X-22213Y-166000I-787J0D01*
G01*
X-33213Y-162500D02*
G03*
X-33213Y-162500I-787J0D01*
G01*
D13*
X69000Y84000D02*
Y88000D01*
X75000Y84000D02*
Y88000D01*
X61000Y84000D02*
X75000D01*
X61000D02*
Y88000D01*
X75000D01*
X139500Y-133500D02*
X143500D01*
X139500Y-127500D02*
X143500D01*
Y-141500D02*
Y-127500D01*
X139500Y-141500D02*
X143500D01*
X139500D02*
Y-127500D01*
D14*
X-44390Y-165795D02*
Y-140205D01*
X-30610D01*
Y-165795D02*
Y-140205D01*
X-44390Y-165795D02*
X-30610D01*
D15*
X72003Y86002D02*
D03*
D16*
X141500Y-130500D02*
D03*
M02*
